/* XPM */
static char *e36accb42c834ff18e8f9b8decdffcbdiE9bCryz5fFR4g7c[] = {
/* columns rows colors chars-per-pixel */
"50 50 73 1 ",
"  c None",
". c #F4BA0F",
"X c #F6BE0D",
"o c #F5BC0E",
"O c #FBBF0E",
"+ c #FBBE0F",
"@ c #FBBF0F",
"# c #EFAE17",
"$ c #EAA21F",
"% c #EAA41E",
"& c #ECA51D",
"* c #EDA91B",
"= c #EDAA1A",
"- c #EEAC18",
"; c #F2B612",
": c #F4B613",
"> c #F2B414",
", c #F8B912",
"< c #F9BC10",
"1 c #E79D22",
"2 c #E79C23",
"3 c #E99F21",
"4 c #FAC706",
"5 c #FCCD02",
"6 c #FCCC03",
"7 c #FCCE03",
"8 c #FBC905",
"9 c #FBCB04",
"0 c #FCCD04",
"q c #FCCF05",
"w c #F7C10A",
"e c #FCC30B",
"r c #F8C408",
"t c #F9C608",
"y c #FCC509",
"u c #FBC10C",
"i c #FBC20C",
"p c #FBC30F",
"a c #FCCE08",
"s c #FCCF0B",
"d c #FCCF0E",
"f c #FCD006",
"g c #FCD108",
"h c #FCD30A",
"j c #FBD40C",
"k c #FBD60F",
"l c #FCC210",
"z c #FBC610",
"x c #FBCA10",
"c c #FBCD10",
"v c #FBC41B",
"b c #FBD311",
"n c #FCD010",
"m c #FBD411",
"M c #FBD711",
"N c #FCD114",
"B c #FBD811",
"V c #FBD812",
"C c #FBD813",
"Z c #FCD21D",
"A c #FBCD24",
"S c #FCD320",
"D c #FCD322",
"F c #FCD426",
"G c #FCD52C",
"H c #FCD52E",
"J c #FCD631",
"K c #FBD634",
"L c #FBD736",
"P c #FBD83C",
"I c #FBD942",
"U c #FBDB4D",
"Y c #FBDC50",
/* pixels */
"                                                  ",
"                                                  ",
"                                                  ",
"                                                  ",
"                                                  ",
"                                                  ",
"                                                  ",
"                                                  ",
"                                                  ",
"                                                  ",
"                                                  ",
"                     BBBBBBBB                     ",
"                  CBMMBBBBBMBMBB                  ",
"                 BBBkhf6666qhMBBV                 ",
"                BBMhfhZGKKGZs6hkVVC               ",
"               BBj6NPYUPJGGLILd8dVVV              ",
"              BkhfGUISs85555sNGSuxmV              ",
"             BBkfHUGa58=.X=t555NA+cVV             ",
"            BBk6HYZq6542>;2w5555svumVV            ",
"            BBhNUF6>%%%2332=.855ql<zVB            ",
"            Bk6PL66.%22133121=a56eu+mV            ",
"           BkjhYN666X22=rrX311456u<+dVV           ",
"           BBfSP6f6fw22#555-22r66u++umV           ",
"           BkaHF6666w22-84.32=656+++lVV           ",
"           BBqLN6f6fX2222222-6558++++VV           ",
"           BM6Js6666X22%-=&22=65e+++umV           ",
"           BB6Hq6f66r22#555#22.6++++<VV           ",
"           BBqZN6666X22#555;22#y++++pVB           ",
"           BBhsZ666fX32-44w$22>+++++dVV           ",
"            Bk5Zf65.322233132%,+l<++NV            ",
"            BBssa55>%%$2332&>o++u<upkm            ",
"            BBk655556a42>;3<++++<<lmVV            ",
"             BBcu8q6668&::&,<++++<cVV             ",
"              BBxu+uueuu<+++l<++uxVV              ",
"              CBVd<u++++++++<u+udVVV              ",
"               CVVmp++++++++<upNVVV               ",
"                 VVBmxz<++upxmVVV                 ",
"                  VVVVVBmVVVVVVV                  ",
"                     VBBVVVVV                     ",
"                                                  ",
"                                                  ",
"                                                  ",
"                                                  ",
"                                                  ",
"                                                  ",
"                                                  ",
"                                                  ",
"                                                  ",
"                                                  ",
"                                                  "
};
