/* XPM */
static char *_675451444893[] = {
/* columns rows colors chars-per-pixel */
"50 50 32 1 ",
"  c black",
". c #020202",
"X c #090809",
"o c #111111",
"O c #1D1E1D",
"+ c #3A2106",
"@ c #25221D",
"# c #272626",
"$ c #53260C",
"% c #513015",
"& c #6D371C",
"* c #542E20",
"= c #73441E",
"- c #654636",
"; c #715946",
": c #930F0F",
"> c #955826",
", c #CF453C",
"< c #865D41",
"1 c #A1694A",
"2 c #C5875E",
"3 c #EB8578",
"4 c #0F368B",
"5 c #0059BA",
"6 c #AFA992",
"7 c #BFB8B6",
"8 c #E0BAA1",
"9 c #CFC9B2",
"0 c #C7C6C5",
"q c #C8C8C8",
"w c #DFD2C2",
"e c None",
/* pixels */
"eeeeeeeeeeeeeeeeeeeeeeeeeeeeeeeeeeeeeeeeeeeeeeeeee",
"eeeeeeeeeeeeeeeeeeeeeeeeeeeeeeeeeeeeeeeeeeeeeeeeee",
"eeeeeeeeeeeeeeeeee***********eeeeeeeeeeeeeeeeeeeee",
"eeeeeeeeeeeeeeee<<<<<<<<<<<<<**eeeeeeeeeeeeeeeeeee",
"eeeeeeeeeeeeee<<;;;;<<********<**eeeeeeeeeeeeeeeee",
"eeeeeeeeeeeee<;ww;;<<<<<<;;;;;**<*eeeeeeeeeeeeeeee",
"eeeeeeeeeeee*;ww;<<<<;;;;;;;;;<<***eeeeeeeeeeeeeee",
"eeeeeeeeeee*;w0<<;;<;;;;;;;;;;;;<<**eeeeeeeeeeeeee",
"eeeeeeeeeee*;0<;w;<;;;;;;;;;;;;;;;<*eeeeeeeeeeeeee",
"eeeeeeeeee*<;<;ww;<;;;;;;;;;;<<;;;;<*eeeeeeeeeeeee",
"eeeeeeeeee*<<;77w;<;w;w;;;;;;;;<<;;;<*eeeeeeeeeeee",
"eeeeeeeeee*<<w7w;;*;w;ww;<;ww;;;;<**<<* eeeeeeeeee",
"eeeeeeeee*<<;ww;;<*;7;w7w;<;ww;;;;;<*  eeeeeeeeeee",
"eeeeeeeee*<<ww;;<**;7w;77;;<;w;;<;;;<*eeeeeeeeeeee",
"eeeeeeeee*<;w;;<*2*<ww<w7w;;<;;;;<;;<<*eeeeeeeeeee",
"eeeeeeeee*<;;;;*222*;w<;;ww;<*;;;;<<<<**eeeeeeeeee",
"eeeeeeeee*<;;;<*222*<;;<<;w;;*<;;;;<<<<*eeeeeeeeee",
"eeeeeeeee*<;<;*&2221*;;<**<;;***<;;*<<<<*eeeeeeeee",
"eeeeeeeee$1*<;*222211*;<*2*<;*22* <*    *eeeeeeeee",
"eeeeeeeee$8*<;*2222212*<<*1***221& *8$ee eeeeeeeee",
"eeeeeeeee 82*;*2$$$$222*<*2$$$$22&$ 8 eeeeeeeeeeee",
"eeeeeeeee 12 <*$6  6$222***6  6$2&$21 eeeeeeeeeeee",
"eeeeeeeeee &$ *2q-@@2222222@@-q22&$& eeeeeeeeeeeee",
"eeeeeeeeeee  & 2q---2822282---q22&  eeeeeeeeeeeeee",
"eeeeeeeeeeee &222q66288128266q222& eeeeeeeeeeeeeee",
"eeeeeeeeeeeee 1222888881288882221 eeeeeeeeeeeeeeee",
"eeeeeeeeeeeee &12228888112882221& eeeeeeeeeeeeeeee",
"eeeeeeeeeeeeee &122222212222221& eeeeeeeeeeeeeeeee",
"eeeeeeeeeeeeeee  &12222222221$  eeeeeeeeeeeeeeeeee",
"eeeeeeeeeeeee...X  &&11111&&  X..eeeeeeeeeeeeeeeee",
"eeeeeeeeeeee.ooooXo         oXoOo.eeeeeeeeeeeeeeee",
"eeeeeeeeeee.OoOOoX##o.:::.o##XO#Oo.eeeeeeeeeeeeeee",
"eeeeeeeeee.Xo#OOoX#Oo.,:,.oO#XOO#O.eeeeeeeeeeeeeee",
"eeeeeeeee.XooOOoXoX#O.3:3.O#X.XOOo.eeeeeeeeeeeeeee",
"eeeeeeeee.ooXooX o.#O.3:3.O#..oooX.eeeeeeeeeeeeeee",
"eeeeeeee%.ooX   .Xo.#.,:,.#.   OOOo.eeeeeeeeeeeeee",
"eeeeeeee%=.. eee.Xoo..,:,..o+=%   O.eeeeeeeeeeeeee",
"eeeeeeee ==  eee.....qq:..... %=>>  eeeeeeeeeeeeee",
"eeeeeeeee   eeee.oOO##9o.##OOo === eeeeeeeeeeeeeee",
"eeeeeeeeeeeeeee.     66.          eeeeeeeeeeeeeeee",
"eeeeeeeeeeeeeee.ooOO#.55.#OOoo.eeeeeeeeeeeeeeeeeee",
"eeeeeeeeeeeeeee.ooO#.544.#OOoo.eeeeeeeeeeeeeeeeeee",
"eeeeeeeeeeeeeee.ooO#.55 .#OOo.eeeeeeeeeeeeeeeeeeee",
"eeeeeeeeeeeeeeee     554      eeeeeeeeeeeeeeeeeeee",
"eeeeeeeeeeeeeeeeee+%%%%+e %% eeeeeeeeeeeeeeeeeeeee",
"eeeeeeeeeeeeeeeeee+=>>=+eeeeeeeeeeeeeeeeeeeeeeeeee",
"eeeeeeeeeeeeeeeeeeeeeeeeeeeeeeeeeeeeeeeeeeeeeeeeee",
"eeeeeeeeeeeeeeeeeeeeeeeeeeeeeeeeeeeeeeeeeeeeeeeeee",
"eeeeeeeeeeeeeeeeeeeeeeeeeeeeeeeeeeeeeeeeeeeeeeeeee",
"eeeeeeeeeeeeeeeeeeeeeeeeeeeeeeeeeeeeeeeeeeeeeeeeee"
};
