/* XPM */
static char *_1701_e801443a28092606d9d568c8155b12868935ef242a7747834b8623a724e1c64b[] = {
/* columns rows colors chars-per-pixel */
"50 50 31 1 ",
"  c black",
". c #020202",
"X c #090809",
"o c #111111",
"O c #1D1E1D",
"+ c #3A2106",
"@ c #25221D",
"# c #272626",
"$ c #53260C",
"% c #513015",
"& c #6D371C",
"* c #542E20",
"= c #73441E",
"- c #654636",
"; c #0E2464",
": c #715946",
"> c #930F0F",
", c #955826",
"< c #CF453C",
"1 c #865D41",
"2 c #A1694A",
"3 c #C5875E",
"4 c #0F368B",
"5 c #0059BA",
"6 c #AFA992",
"7 c #BFB8B6",
"8 c #CFAD98",
"9 c #E0BAA1",
"0 c #C8C8C8",
"q c #DFD2C2",
"w c None",
/* pixels */
"wwwwwwwwwwwwwwwwwwwwwwwwwwwwwwwwwwwwwwwwwwwwwwwwww",
"wwwwwwwwwwwwwwwwwwwwwwwwwwwwwwwwwwwwwwwwwwwwwwwwww",
"wwwwwwwwwwwwwwwwwwwwwwwwwwwwwwwwwwwwwwwwwwwwwwwwww",
"wwwwwwwwwwwwwwwwwwwww111111***wwwwwwwwwwwwwwwwwwww",
"wwwwwwwwwwwwwwwww1111111***::1**wwwwwwwwwwwwwwwwww",
"wwwwwwwwwwwwwww11::::::::11**::1**wwwwwwwwwwwwwwww",
"wwwwwwwwwwwwww11111::::::::11* :11*wwwwwwwwwwwwwww",
"wwwwwwwwwwwww11::::::::1111:1 :::11*wwwwwwwwwwwwww",
"wwwwwwwwwwww1::::::::::::1** :::::11*wwwwwwwwwwwww",
"wwwwwwwwwww1::::::::::::::11*::::::1*wwwwwwwwwwwww",
"wwwwwwwwww1::::::::::11:qq:11*:::::11*wwwwwwwwwwww",
"wwwwwwwwww1::::::::::::11:::11*::::11*wwwwwwwwwwww",
"wwwwwwwwww1::q:1::q:::q:1111111*::::11*wwwwwwwwwww",
"wwwwwwwww1:::q::1:qq:::q:111*11**:::11*wwwwwwwwwww",
"wwwwwwwww*q::qq:1:q7q:1:q:111    1::11*wwwwwwwwwww",
"wwwwwwwww*q1:q7q:1:q7q:1:::11*:::1::11*wwwwwwwwwww",
"wwwwwwwww*:11:qq:11:qq:11:::11*:::1:11*wwwwwwwwwww",
"wwwwwwwww*:1*1:q:1*1:q::111111*:::1:11*wwwwwwwwwww",
"wwwwwwwww*11**1::***1:::1*11111*::1:11 wwwwwwwwwww",
"wwwwwwwww*11**1:1*33*1::1*  111*1:1111 wwwwwwwwwww",
"wwwwwwwwww*1*&*1*3339  1***$   *1:111* wwwwwwwwwww",
"wwwwwwwwww*1*&3**$$$33* *3*$293 11111* wwwwwwwwwww",
"wwwwwwwwwww***3336 6$3*3 3*3293 1111* wwwwwwwwwwww",
"wwwwwwwwwwwww&333@-0$333333323& 111** wwwwwwwwwwww",
"wwwwwwwwwwwww&999--0933333332& *11** wwwwwwwwwwwww",
"wwwwwwwwwwww&399988099333333  1*11 * wwwwwwwwwwwww",
"wwwwwwwwwwww&399999993333332*1*11*  wwwwwwwwwwwwww",
"wwwwwwwwwwww&239993333333332***1** wwwwwwwwwwwwwww",
"wwwwwwwwwwwww 23333333333322* *** wwwwwwwwwwwwwwww",
"wwwwwwwwwwwwww &23333333222* 2** wwwwwwwwwwwwwwwww",
"wwwwwwwwwwwwwww  &&2222222      wwwwwwwwwwwwwwwwww",
"wwwwwwwwwwwwwwwww        XooX..wwwwwwwwwwwwwwwwwww",
"wwwwwwwwwwwwwwwwww><.##XooOOO#o.wwwwwwwwwwwwwwwwww",
"wwwwwwwwwwwwwwwww><.oO#XoOO##OOX.wwwwwwwwwwwwwwwww",
"wwwwwwwwwwwwwwwww><.O#Xo  XoOOOo.wwwwwwwwwwwwwwwww",
"wwwwwwwwwwwwwwww.><.O#XXXX Xoooo.wwwwwwwwwwwwwwwww",
"wwwwwwwwwwwwwww o><.#.oooXX..oOoX.wwwwwwwwwwwwwwww",
"wwwwwwwwwwwwww+% o>..OoooXXX..OOo.wwwwwwwwwwwwwwww",
"wwwwwwwwwwwwww++= >..........O##O.wwwwwwwwwwwwwwww",
"wwwwwwwwwwwwwww % ..##OOOooo      wwwwwwwwwwwwwwww",
"wwwwwwwwwwwwwwww             =%== wwwwwwwwwwwwwwww",
"wwwwwwwwwwwwwwwwwww;.#OOOOooo %= wwwwwwwwwwwwwwwww",
"wwwwwwwwwwwwwwwwwww;5.#OOOOooo  wwwwwwwwwwwwwwwwww",
"wwwwwwwwwwwwwwwwww+45.#OOOOoo  wwwwwwwwwwwwwwwwwww",
"wwwwwwwwwwwwwwwww+,,55       wwwwwwwwwwwwwwwwwwwww",
"wwwwwwwwwwwwwwwww+=,,=% ===% wwwwwwwwwwwwwwwwwwwww",
"wwwwwwwwwwwwwwwwww++== %==% wwwwwwwwwwwwwwwwwwwwww",
"wwwwwwwwwwwwwwwwwwwwwwwwwwwwwwwwwwwwwwwwwwwwwwwwww",
"wwwwwwwwwwwwwwwwwwwwwwwwwwwwwwwwwwwwwwwwwwwwwwwwww",
"wwwwwwwwwwwwwwwwwwwwwwwwwwwwwwwwwwwwwwwwwwwwwwwwww"
};
