/* XPM */
static char *_3474_d80d8e38042a99d032043977940b4593241f0bf0116ff704276fee6466ee71e2[] = {
/* columns rows colors chars-per-pixel */
"50 50 34 1 ",
"  c black",
". c #020202",
"X c #090809",
"o c #111111",
"O c #1D1E1D",
"+ c #3A2106",
"@ c #25221D",
"# c #272626",
"$ c #53260C",
"% c #513015",
"& c #6D371C",
"* c #542E20",
"= c #73441E",
"- c #654636",
"; c #0E2464",
": c #715946",
"> c #930F0F",
", c #955826",
"< c #CF453C",
"1 c #865D41",
"2 c #A1694A",
"3 c #C5875E",
"4 c #0F368B",
"5 c #0059BA",
"6 c #AFA992",
"7 c #BFB8B6",
"8 c #CFAD98",
"9 c #E0BAA1",
"0 c #CFC9B2",
"q c #C7C6C5",
"w c #C8C8C8",
"e c #DFD2C2",
"r c #FADBC7",
"t c None",
/* pixels */
"tttttttttttttttttttttttttttttttttttttttttttttttttt",
"tttttttttttttttttttttttttttttttttttttttttttttttttt",
"ttttttttttttttttt***111111tttttttttttttttttttttttt",
"ttttttttttttttt**1::::::::1111tttttttttttttttttttt",
"ttttttttttttt**1::::::eeee1:::11tttttttttttttttttt",
"tttttttttttt*11:::::eqqqq1111:::11tttttttttttttttt",
"ttttttttttt*11:::::eee:11::1:::11ttttttttttttttttt",
"tttttttttt*11:::::ee::1:::1::::::1tttttttttttttttt",
"tttttttttt*1::::::e::1::::1:::::::1ttttttttttttttt",
"ttttttttt*11:::::e::1:e:::1:::::ee:1tttttttttttttt",
"ttttttttt*11::::::::1e7e::1:e::e:ee:1ttttttttttttt",
"tttttttt*11::::::::1:e77e:1ee:1ee::::1*ttttttttttt",
"tttttttt*11:::::::11:e7ee:1e7e1e7e1:1*tttttttttttt",
"tttttttt*11::1::::11:ee::1*:7e1:ee:1*ttttttttttttt",
"tttttttt*11::1:::11::e:::*2*ee:1::::1ttttttttttttt",
"tttttttt*11:1::::1*:::::*22*:e:11:::1ttttttttttttt",
"tttttttt*11:1::::1*::::1*222*:::*11:1ttttttttttttt",
"tttttttt 11:1::::1*::::*32&$$*1:1  11*tttttttttttt",
"tttttttt 1111:1:$$*::::*323332*1:*&  *tttttttttttt",
"tttttttt *111:1$&2&*:::*3293333*11*tt tttttttttttt",
"tttttttt *11111$392$*::*333$$$$3****tttttttttttttt",
"ttttttttt *1111 3923 1:*33$6 6333&tttttttttttttttt",
"ttttttttt **111 &3233 :*33$w-@333&tttttttttttttttt",
"tttttttttt **11* &2333  339w--999&tttttttttttttttt",
"tttttttttt * 11*1  33333399w88r993&ttttttttttttttt",
"ttttttttttt  *11*1*2333333999r9993&ttttttttttttttt",
"tttttttttttt **1***233333333399932&ttttttttttttttt",
"ttttttttttttt *** *22333333333332 tttttttttttttttt",
"tttttttttttttt **2 *22233333332& ttttttttttttttttt",
"ttttttttttttttt      2222222&&  tttttttttttttttttt",
"tttttttttttttttt..XooX        tttttttttttttttttttt",
"ttttttttttttttt.o#OOOooX##.<>ttttttttttttttttttttt",
"tttttttttttttt.XOO##OOoX#Oo.<>tttttttttttttttttttt",
"tttttttttttttt.oOOOoX  oX#O.<>tttttttttttttttttttt",
"tttttttttttttt.ooooX XXXX#O.<>.ttttttttttttttttttt",
"ttttttttttttt.XoOo..XXooo.#.<>o tttttttttttttttttt",
"ttttttttttttt.oOO..XXXoooO..>o %+ttttttttttttttttt",
"ttttttttttttt.O##O........w6> =++ttttttttttttttttt",
"ttttttttttttt      oooOOO##6o % tttttttttttttttttt",
"ttttttttttttt ==%=       .06   ttttttttttttttttttt",
"tttttttttttttt =% oooOOOO#.;tttttttttttttttttttttt",
"ttttttttttttttt  oooOOOO#.5;tttttttttttttttttttttt",
"tttttttttttttttt  ooOOOO#.54+ttttttttttttttttttttt",
"tttttttttttttttttt       55,,+tttttttttttttttttttt",
"tttttttttttttttttt %=== %=,,=+tttttttttttttttttttt",
"ttttttttttttttttttt %==% ==++ttttttttttttttttttttt",
"tttttttttttttttttttttttttttttttttttttttttttttttttt",
"tttttttttttttttttttttttttttttttttttttttttttttttttt",
"tttttttttttttttttttttttttttttttttttttttttttttttttt",
"tttttttttttttttttttttttttttttttttttttttttttttttttt"
};
