/* XPM */
static char *d6229ed5f2ea4dedb2d7bb59b3e955feK6UKPUCgSBnsRXAY[] = {
/* columns rows colors chars-per-pixel */
"50 50 37 1 ",
"  c #74C75E",
". c #75C85E",
"X c #75C760",
"o c #77C961",
"O c #7BCA65",
"+ c #7ECC69",
"@ c #82BB6E",
"# c #84BE70",
"$ c #81CF66",
"% c #83CE6D",
"& c #86D06C",
"* c #88D16F",
"= c #86C171",
"- c #89C573",
"; c #85CF70",
": c #8DCB76",
"> c #8FCE78",
", c #90CF7A",
"< c #87D071",
"1 c #8CD274",
"2 c #84D37A",
"3 c #8FD478",
"4 c #94D57D",
"5 c #97D680",
"6 c #99D783",
"7 c #97D880",
"8 c #9ADA84",
"9 c #9EDB89",
"0 c #A1DA8E",
"q c #A5DB92",
"w c #A8DC96",
"e c #ADDD9C",
"r c #A3E28C",
"t c #A7E691",
"y c #A8E792",
"u c #A9E993",
"i c #B2DFA2",
/* pixels */
"44444444444444444444744444474744444444444444444444",
"44344=444444444444344747474544744434**&44444i4i444",
"t8444=@4444494644443331447467654444**&&&144u4iw444",
"u84444@,4@48e0i44443&&+1447qqe94441*&&**4,444e4444",
"444=,>@:@@4w8ee44441+1&+3599qe654444*&444>444444,-",
":44=@-::@,448e444441.OO +354q94544444::4:@4444>4,#",
"464,=:44,-44444444441.+*%44747444>44:@@4-@,>4--4,:",
"49441:444344444444444&&4343473443::,:@@,@#>:-#4-#,",
"484444344444@,44434444444<144*1314=@1@@4#>4@@=---4",
"444444444444=@444454444541341+<*441=4##4>44111-344",
"4444404944344@4:#44578584541O&<O44444,,444344>444,",
",#,44i0w04@:---@-4459eqq843+o+oO444404q443&&>44444",
"@#,44qe904=@:3-=34456eq6973<<Oo14444iqw041&&*33444",
"=:44440644:@:44,>544499444734;<54444qe4t441&*43444",
",444444444444444444444444447735444444q444441444444",
"44444484444444444445454457788445444444444444444444",
"4443411144444w4w444>:44,,54rr8444444,4444444444444",
"44431&&&3344qqqi475,#,54,448t8494444#:444444444444",
"4441&&&&*31404i04455-:44:984r49u4444>@44:40w4w4444",
"44444*&344>4444444-4-=:@-rt543r844-4>@,=@4q0ei4444",
"4444441>4>@4444>4>@=::-=,4083-4,44==:-:@-404i04444",
"44444>#@4>@444>-44=#>64-::4,444444:@:,>>:444444443",
"44414:@@1@@>>>=>,-:->9t8444,44:444>::444>44444443:",
"414-#:@@4@-4=@@>##4446rr484446,4044,4>44144-44443,",
"444>#,#@43441>>@:440r3408u04-44444444444344@-44443",
"-444:4:-444444>>4434u0,>8844-@3444444444444>@4,-44",
"@>444444444*14>444444r>3,:484=,4-,44i0e44@4:@:@=44",
"->444i4e44**&*444444>>3444::4#-=@344ie4e4@#:::#:44",
"44444ie4i44*&**344444043:4-@=-,@:4444e044:@>43,344",
",44444e04444&*444444:34:441==43:444444444::>484:44",
"4444444444444444444480,,441:,444444444444444444444",
"444444444444444444444444464r0444444444444444444448",
"4443444444444444444:@444:449u8444444@>444444444444",
"444444&3444484884486@:944444r84t9444=@444444804444",
"4444*:O*4448e9i44444:-4--rr4940t84444#44@40i0i4444",
"4444O*1O144w8ee44,@4--=@-9t61:0444@3:@:@@4q4ee4444",
"4444$$$..1446w444:@@:4:=4>844,,,44=@-,:#3444q44443",
"44441$.1O344444444:=19r4:>3:44,444,=-4>3>444444443",
"444443$33434444441:449rr487444:4r4433344>44:44443:",
"4444443444&343&43444449r5r84,64484444444444#444444",
"3444454541143&+1*448t4466t84--4444444444443##44444",
"#>45405q4444&.<++445r9::4445>@344444r4w44:4,@,-#44",
"#>445iqw0441oO+o<44444,4,,,54=::#>44iqw04@::=:@-44",
"-5444qu60444+1.+4444,44444-=:--=#,44qe4w4=#:>:->44",
">44444t7474733+44444454,:4:#=::=:4444w444>-,43>>48",
"44444447444447444444444>44>--444444444444,44444444",
"445444444774744444444644444,4445444444444444444444",
"4443441*4444*444444441*15451444444**44444444444444",
"544344*O*44&$455543341$$141$14444*$*4:444444444444",
"4;+1<3O.o+..o<y43+;3<;OoOo.oO094&$oO$O34448e4e4444"
};
