/* XPM */
static char *c5f4d60d38d14d22d4b6dede7cfda49df8dkPcco6aWaabFF[] = {
/* columns rows colors chars-per-pixel */
"50 50 88 1 ",
"  c None",
". c #BB4302",
"X c #C3540E",
"o c #C35811",
"O c #D76303",
"+ c #DA6302",
"@ c #DC6A04",
"# c #DD6C0B",
"$ c #DE7003",
"% c #E38907",
"& c #E79106",
"* c #EA9B07",
"= c #E8960B",
"- c #E99E09",
"; c #FA9F13",
": c #EBA007",
"> c #ECA20B",
", c #FBA315",
"< c #FBA917",
"1 c #FCA718",
"2 c #FDAC1B",
"3 c #FDB31C",
"4 c #FCBB1C",
"5 c #D98A35",
"6 c #E68C25",
"7 c #E58A31",
"8 c #E69138",
"9 c #EFB026",
"0 c #FFB725",
"q c #FFB826",
"w c #F0B22A",
"e c #FFBC2A",
"r c #FFBF31",
"t c #FDC21F",
"y c #FDC721",
"u c #FECD22",
"i c #FFC02F",
"p c #FED525",
"a c #FED72A",
"s c #FED82E",
"d c #FFC433",
"f c #FECD35",
"g c #FFC73C",
"h c #FECD3C",
"j c #FED933",
"k c #FED53C",
"l c #FEDB3B",
"z c #E3A145",
"x c #EBA249",
"c c #EEAD49",
"v c #EBB54F",
"b c #F1B144",
"n c #F1BA44",
"m c #F2B748",
"M c #EDBC58",
"N c #F1BA5E",
"B c #F7C74E",
"V c #FED246",
"C c #FEDB42",
"Z c #FBD34E",
"A c #FEDB4D",
"S c #F6C454",
"D c #F7CC56",
"F c #FCD352",
"G c #FEDD52",
"H c #FCDE5C",
"J c #FEE046",
"K c #FEE24C",
"L c #FEE453",
"P c #FEE45C",
"I c #FFE85E",
"U c #F3C263",
"Y c #F9D662",
"T c #FADB65",
"R c #F7DE6A",
"E c #F9DC6C",
"W c #F9D473",
"Q c #FEE665",
"! c #FFE961",
"~ c #FCE26B",
"^ c #FEE86C",
"/ c #FBE272",
"( c #FBE57C",
") c #FDEA7D",
"_ c #FBE783",
"` c #FCED91",
"' c #FBED9E",
"] c #FAEDA0",
/* pixels */
"                                                  ",
"                                                  ",
"                                                  ",
"                                                  ",
"                                                  ",
"                                                  ",
"                                                  ",
"                                                  ",
"                   O#8UYHGKG)`]                   ",
"                 O+7WAapppppaL^)'                 ",
"                @@xHpppppppppsLIP(                ",
"              %&=WPpppppppppppsL!LP               ",
"             @@@NjLJppppppupppppLILG              ",
"             **nQasLJau4<,,,3tppaLIL~             ",
"            ::w(ILssGe2300002,,tpaL!L_            ",
"           -::Y!!!La3000000000<,4paL!!            ",
"           ::9^I!!Id000000000002;4paL!_           ",
"          -::D!!!IV000000000000e3,upaK!           ",
"          ::>~!!!Pd00000000000000,2ppaL_          ",
"          $$6LI!!V0000000000000000,ypppQ          ",
"         O++csC!!r0000000e0000000023pppC          ",
"         +++SapCQ0000000000000000001pppj          ",
"         +++Fpppk000000000000000000<uppp(         ",
"         +++Apppf000000000000000000<uppp/         ",
"         +++Apppf0000000000000000002upppR         ",
"         +++Appph00000000000000000q2uppp~         ",
"         +++Zpppk00000000000000000q2upppE         ",
"         +++Bpppk00000000000000000q3pppj          ",
"         +++bsppje00000e000000e0000eappC          ",
"          ++6Aapsh00000000000000000hKapA          ",
"          ++#HJppCe0000000000000000pKLsH          ",
"          +++m!Kajh00000000000000qAlpJP           ",
"           ++6Q!Kpld0000000000000h!PjpP           ",
"           ++@D!IKsCe000000000q0g!!!IlR           ",
"            ++6Q!!LaKdq000q0q0eF!!!I!~            ",
"            ++@b!!IKalVdq000edH!!!!!^             ",
"             O+@S!!!KapllCkljajI!I!!              ",
"              +O#T!!!LpppppppppjI!!/              ",
"               ..ov!!!KappppppppjQ/               ",
"                 ..5T!!LspppppplH                 ",
"                  ..XzYQLsasjCT                   ",
"                      o5MTTR                      ",
"                                                  ",
"                                                  ",
"                                                  ",
"                                                  ",
"                                                  ",
"                                                  ",
"                                                  ",
"                                                  "
};
