/* XPM */
static char *c2a235fff6704a8df7d5db61ae9e55c5BhGZ4CIyhDpIbgjP[] = {
/* columns rows colors chars-per-pixel */
"50 50 127 2 ",
"   c None",
".  c #B74203",
"X  c #BB4201",
"o  c #BF4A03",
"O  c #C14701",
"+  c #C24F0B",
"@  c #C65811",
"#  c #CD6107",
"$  c #D56204",
"%  c #DB6302",
"&  c #DC6B06",
"*  c #DE6D0B",
"=  c #DF710E",
"-  c #CA631A",
";  c #CC691D",
":  c #DF7312",
">  c #E07604",
",  c #E17B17",
"<  c #E27E1A",
"1  c #E27E21",
"2  c #E08A09",
"3  c #E79206",
"4  c #E89206",
"5  c #EB9D07",
"6  c #E79C0B",
"7  c #E99E09",
"8  c #E3811C",
"9  c #FA9E13",
"0  c #EBA007",
"q  c #EBA008",
"w  c #EDA613",
"e  c #FBA215",
"r  c #FCA916",
"t  c #FCA619",
"y  c #FDAC1C",
"u  c #FCB41B",
"i  c #FDBB1C",
"p  c #D6802D",
"a  c #D68330",
"s  c #D98934",
"d  c #E48628",
"f  c #E78F29",
"g  c #E79029",
"h  c #E68F35",
"j  c #E89331",
"k  c #EA9A34",
"l  c #EFAF25",
"z  c #FFB725",
"x  c #FFB826",
"c  c #F0B22B",
"v  c #FFBC2E",
"b  c #EFAF33",
"n  c #FFBD30",
"m  c #F1B73A",
"M  c #FDC31F",
"N  c #FDC620",
"B  c #FECB22",
"V  c #FFC02F",
"C  c #FED525",
"Z  c #FED62A",
"A  c #FED82E",
"S  c #FFC235",
"D  c #FECF35",
"F  c #FFCA3B",
"G  c #FED037",
"H  c #FED933",
"J  c #FEDB3B",
"K  c #EA9D47",
"L  c #EFAB42",
"P  c #EAA04A",
"I  c #E6A84A",
"U  c #F2B94E",
"Y  c #EDAB57",
"T  c #EBB452",
"R  c #EFBE5A",
"E  c #F0B457",
"W  c #E2B66E",
"Q  c #FFC641",
"!  c #FEC843",
"~  c #FED143",
"^  c #FEDD43",
"/  c #FFD54C",
"(  c #FEDC4C",
")  c #F6C557",
"_  c #FBD557",
"`  c #FEDE52",
"'  c #FEDF5C",
"]  c #FEE046",
"[  c #FEE24D",
"{  c #FEE454",
"}  c #FFE55A",
"|  c #FFE85D",
" . c #F6CA64",
".. c #F4C668",
"X. c #F9D263",
"o. c #F3D964",
"O. c #FCDD64",
"+. c #F8D66C",
"@. c #F7DE6F",
"#. c #F9DF6C",
"$. c #F3C476",
"%. c #F6DE73",
"&. c #FAD974",
"*. c #FEE465",
"=. c #FFE960",
"-. c #FDE46C",
";. c #FFE969",
":. c #FCE373",
">. c #FEE975",
",. c #F7E078",
"<. c #FEEB7D",
"1. c #F8D689",
"2. c #F9DD8F",
"3. c #EBD794",
"4. c #F6E284",
"5. c #FDE685",
"6. c #FEE982",
"7. c #F9E68C",
"8. c #FEED8B",
"9. c #F7E797",
"0. c #FBE394",
"q. c #FCEB96",
"w. c #FAEC9E",
"e. c #F4E6A3",
"r. c #FBEEA4",
"t. c #F6EBA9",
"y. c #FBEEAB",
/* pixels */
"                                                                                                    ",
"                                              # a W 3.e.                                            ",
"                                    $ % % h $.0.6.-.{ ` { *.8.r.y.r.                                ",
"                              $ % % % K 2.-.^ C C C C C C C A } ;.<.r.y.                            ",
"                            % % % 1 1.*.A C C C C C C C C C C A } =.=.>.q.                          ",
"                        $ % % % P 5.H C C C C C C C C C C C C C Z } | =.{ ;.r.                      ",
"                      6 5 5 6  .:.Z C C C C C C C C C C C C C C C Z } | | { ] q.                    ",
"                    & > > > ..>.| J C C C C C C C C C C C C C C C C A } =.| } H q.                  ",
"                  % % % % Y } Z { | J C C C C C C C C C C C C C C C C Z } | =.{ J 9.                ",
"                6 5 q q m 6.H C C { =.J C C C N u r e e 9 r r i C C C C Z } | | { J r.              ",
"                q 0 0 w 5.=.} H C C [ =.J N e e e y y y y e e 9 9 u C C Z Z { | =.{ {               ",
"              7 5 q q +.;.=.| | H C Z [ n t z z z z x x x z z y 9 9 e B C C Z } =.=.{ 6.            ",
"              0 0 0 c <.=.=.=.| } H C r u z z z z z z z z z z z z t 9 9 M C C Z { =.=.=.w.          ",
"            7 0 0 0 &.=.=.=.=.=.=.| u z z z z z z z z z z z z z z z z 9 e M C C Z { =.=.6.          ",
"            0 0 0 l >.=.=.=.=.=.=.S x z z z z z z z z z z z z z z z z z e e B Z C Z { =.=.9.        ",
"          7 0 0 0 X.=.=.=.=.=.=./ z z z x z z z z z x z z z z z z z z z u 9 t C C C Z { =.6.        ",
"          5 5 5 q >.=.=.=.=.=.| v z z z z z z z z z z z z z z z z x z z z y 9 N C C C C { ;.        ",
"        2 4 4 4 b ;.=.=.| =.=._ x z z z z z z z z z z z z z z z z z z z z z e e C C C C C { 7.      ",
"        % % % % E J } | =.=.=.S z z z z z z x z z z z z z z z z z z z z z z z 9 N C C C C Z :.      ",
"        % % % %  .C A } =.=.*.z z z z x z z z z z x z z z z z x z z z z z z z 9 y C C C C C (       ",
"        % % % % O.C C A } | / z z z x z z z z z z z z z z z z z z z z z z z z y 9 C C C C C J       ",
"        % % % : ` C C C A } ! z z z z z z z z z z z z z z z z z z z z z z z z z 9 B C C C C Z 4.    ",
"      $ % % % d ^ C C C C J n z z z z z z z z z z z z z x z z z z z z z z z z z e M C C C C C ,.    ",
"      $ % % % j J C C C C J x z z z z z z z z z z z z z z z z z z z z z z z z z t i C C C C C @.    ",
"      % % % % k H C C C C ^ z z z z z z z z z z z z z z z z z z z z z z z x z z t i C C C C C #.    ",
"      $ % % % k J C C C C ^ z z z z x z z z z z z x z z z z z x z z z z z z z z y u C C C C C o.    ",
"      % % % % k J C C C C ^ z z z z z z z z z x z z z z z z z z z z z z z z z z y i C C C C C O.    ",
"      $ % % % g J C C C C ( x x z z z z z z z z z z z z z z z z z z z z z z z z y i C C C C C O.    ",
"      $ % % % 8 ^ C C C C ] v z z z z z z z z z z z z z z z z z z z z z z x z z y N C C C C C @.    ",
"        % % % * [ C C C C H S z z z z z z z z z z z z z z z z z z z x z z z z z t B C Z C C Z %.    ",
"        % % % % _ C C C C Z ~ x z z z z z z z z z z z z z z z z z z z z z z z z y C C C C C J       ",
"        % % % % ) Z C C C C ( z z z x z z z z z x z z z z z z x z z z z z z z z S [ C C C C `       ",
"        $ % % % L } A Z C C ] V z z z z z z x z z z z z z z z z z z z z z z z y F | [ Z Z C }       ",
"          % % % < -.} A C C Z ^ z z z z z z z z z z z z z z z z z z x z z z z z Z J =.[ Z Z %.      ",
"          % % % % X.=.| A C C [ S z z z z z z z z z z z z z z z z z z z z z z D C C H | { (         ",
"          % % % % L =.=.} A C Z ( x z z z z z z z z z z z z z z z z z z z z S =.] C Z J | -.        ",
"            % % % = -.=.=.} A C J ~ x z z z z z z z z z z z z x z z z z z v } =.=.] C C ^ %.        ",
"            % % % % U =.=.=.} H C [ F x z z z z z z z z z z z z z z z z v } =.=.=.=.^ C '           ",
"              % % % : -.=.=.=.| H C [ F z z z z z x z z z z z z z z z n } =.=.=.=.=.=.{ %.          ",
"              % % % % L =.=.=.| } H C [ / x z x z z z z z z z z z z ! =.=.=.=.=.=.=.=.:.            ",
"                % % % & X.=.=.} =.| H C J { F x z z x x z z z z S O.=.=.=.=.| =.| =.-.              ",
"                  % % % , #.=.=.=.=.} H C Z ^ { ( F S V V F ! ^ H { =.=.=.=.=.=.=.;.%.              ",
"                  $ % % % g -.=.=.=.=.=.H C C C A H J J J H Z C C C [ =.=.=.=.=.=.:.                ",
"                    $ % % % k -.=.=.=.=.} H C C C C C C C C C C C C C [ | =.} ;.:.                  ",
"                      O O O O a -.=.=.=.=.| H C C C C C C C C C C C C C [ | ;.:.                    ",
"                          X X X ; +.=.=.=.=.=.H C C C C C C C C C C C C Z -.%.                      ",
"                            X X X + I ;.=.=.=.| H C C C C C C C C C Z ( -.                          ",
"                                X X X - T :.;.=.=.H C C C C C C H ` #.                              ",
"                                    . X X @ s ) :.-.` ` ` ' *.#.%.                                  ",
"                                                                                                    "
};
