/* XPM */
static char *b70c31f4b3dc457dcd498a897f52d8dbHaHVLs4Qp7C78yCj[] = {
/* columns rows colors chars-per-pixel */
"50 50 134 2 ",
"   c None",
".  c #BC4201",
"X  c #C2500B",
"o  c #D65E02",
"O  c #C75D15",
"+  c #D76304",
"@  c #DB6302",
"#  c #DE6B0A",
"$  c #DF710E",
"%  c #CD6A1E",
"&  c #D76F15",
"*  c #DD6F11",
"=  c #E27C05",
"-  c #E07411",
";  c #E17816",
":  c #E0771A",
">  c #E37F1C",
",  c #E38306",
"<  c #E48E09",
"1  c #E79106",
"2  c #E89507",
"3  c #E79D0A",
"4  c #E99E09",
"5  c #E5881E",
"6  c #EB9F13",
"7  c #FB9F13",
"8  c #EBA007",
"9  c #EBA10A",
"0  c #EDA715",
"q  c #FBA315",
"w  c #FBA916",
"e  c #FCA518",
"r  c #FDAC1B",
"t  c #FCB31A",
"y  c #FDBB1C",
"u  c #D88531",
"i  c #D98C36",
"p  c #E68B24",
"a  c #E79027",
"s  c #E89026",
"d  c #E58D34",
"f  c #EA9831",
"g  c #E0933F",
"h  c #FFB725",
"j  c #FFB926",
"k  c #F1B52E",
"l  c #FCB22D",
"z  c #FFBA29",
"x  c #EDA53C",
"c  c #FCBA33",
"v  c #FDC11F",
"b  c #FDC522",
"n  c #FECB23",
"m  c #FEC72A",
"M  c #FED525",
"N  c #FED62A",
"B  c #FED82E",
"V  c #FFC535",
"C  c #FFC63B",
"Z  c #FFCB3D",
"A  c #FED631",
"S  c #FEDA34",
"D  c #FED23D",
"F  c #FEDB3B",
"G  c #F0B145",
"H  c #EDBE58",
"J  c #FDC242",
"K  c #F4C44D",
"L  c #FED344",
"P  c #FEDD44",
"I  c #FDD14A",
"U  c #FEDD4B",
"Y  c #F5C452",
"T  c #F2C75C",
"R  c #F6CB5C",
"E  c #F8CE59",
"W  c #FDDB54",
"Q  c #FAD45C",
"!  c #F6DA5D",
"~  c #FCDC5B",
"^  c #FEE047",
"/  c #FEE24B",
"(  c #FFE353",
")  c #FFE65B",
"_  c #FFE95E",
"`  c #F4C46D",
"'  c #F7D161",
"]  c #F8D663",
"[  c #F7DB62",
"{  c #FADD64",
"}  c #F6DD6A",
"|  c #FADE6B",
" . c #EBC276",
".. c #FAD972",
"X. c #F9D67F",
"o. c #FBDE7C",
"O. c #FEE260",
"+. c #FEE664",
"@. c #FFE960",
"#. c #FFE961",
"$. c #FFE862",
"%. c #FFE962",
"&. c #FFE963",
"*. c #FFE865",
"=. c #FFE966",
"-. c #FFEA66",
";. c #FFE960",
":. c #FDE16A",
">. c #FEE56B",
",. c #FEE76B",
"<. c #FDE16C",
"1. c #FEE66A",
"2. c #FFE869",
"3. c #FFE86A",
"4. c #FEE96E",
"5. c #FCE475",
"6. c #F9E172",
"7. c #FAE67B",
"8. c #FDE47A",
"9. c #FEE878",
"0. c #FEEC7E",
"q. c #F2DC8F",
"w. c #FCE983",
"e. c #F8E689",
"r. c #FCE988",
"t. c #F7E695",
"y. c #F7E897",
"u. c #FBE991",
"i. c #FEEE90",
"p. c #F8E898",
"a. c #F8EA9C",
"s. c #FAED9E",
"d. c #FBEDA1",
"f. c #F8EBA4",
/* pixels */
"                                                                                                    ",
"                                                                                                    ",
"                                            @ + & g  .q.p.a.                                        ",
"                                      + @ @ # d ` 8.O.U U U ,.i.s.                                  ",
"                                  + o @ @ $ ` | S M M M M M M / -.0.d.                              ",
"                                @ @ @ @ : X.P M M M M M M M M N ) @.-.r.                            ",
"                              , = = = 5 ..S M M M M M M M M M M S ) _ ) 5.                          ",
"                            < 2 2 2 0 o.U M M M M M M M M M M M M F _ @.^ 5.                        ",
"                            @ @ @ + ` P @.S M M M M M M M M M M M M ^ _ _ F r.                      ",
"                          , , , , x ( M ^ _ N M M M n v y y v M M M M ( _ _ P f.                    ",
"                        4 8 8 4 0 | ) M M ( ( N n j j h h t w q y M M B ) _ ) )                     ",
"                        8 8 8 4 K 4._ ( M N ) D j h j h h h h h 7 r M M S _ _ ( t.                  ",
"                      4 8 8 8 0 | @.@.@.P M m h h h h h h h h h h 7 r n M F @.@.9.                  ",
"                      4 8 8 8 k ,.O.@.@.O.A j h h h h h h h h h h t 7 y M N ^ @.@.p.                ",
"                    3 8 8 8 8 ] @.@.@.@.) h h z h h h h h h h h h h r 7 n M M ( @.w.                ",
"                    4 4 8 8 0 <.@.@.@.@.L h h h h h h h h h h h h h h q r M M B _ 2.                ",
"                    8 8 8 8 k 2.@.@.@.@.z h h h h h h h h h h h h h h r q b M M S @.e.              ",
"                    1 1 2 2 Y O.@.@.@.W h h h j h h h h h h h h h h h h q t M M M F 7.              ",
"                  + @ @ @ @ R U @.@.@.C h h h h h h h j h h j h h h z h r q N M M M ~               ",
"                  + @ @ @ * I N ( @.1.h h h h h h h h h h h h h h h h h r 7 n M M M P               ",
"                  @ @ @ @ : L M B ) ~ h h h h h h h h h h h h j h h h h h q y M M M F               ",
"                  @ @ @ @ > S M M S ~ h h h h h h h h h h h h h h h h h h q t M M M S               ",
"                  @ @ @ @ p A M M M L h h h h h h h z h h h h h h h h h h w w M M M A }             ",
"                  @ @ @ @ a A M M M V h h h h h h h h h h h h h h h h h h r q M M M B {             ",
"                  @ @ @ @ s A M M N V h h h h h h h h h h h j h h h j h h r q M M M B !             ",
"                  @ @ @ @ s B M M B V h h h h h h h h h h h h h h h h h h r q M M M N !             ",
"                  @ @ @ @ p B M M N C j h j h h h j h h h h h h h h h h h r e M M M B !             ",
"                  @ @ @ @ p A M M N Z h h h h j h h h h h h h h h h h h h r e M M M S {             ",
"                  @ @ @ @ > S M M M L h h h h h h h h h h h h h h h h j h w r M M M S               ",
"                  @ @ @ @ ; D M M M L h h h h h h h h h j h h h h h h h h q y M M M F               ",
"                  + @ @ @ # L M M M F j h h h h h h h h z h h h h h h h h q D M M M F               ",
"                  + @ @ @ # E S M M S V h h j h h h h h h h h h h h h z r q _ P M M U               ",
"                    @ @ @ @ G ) B M B L j j h h h h h h h h h h h h h h w t F ) F M W               ",
"                    @ @ @ @ p O./ B M P j h h h h h j h h h h h h h h h q b M P ) S :.              ",
"                    @ @ @ @ - { @.^ M B V h h h h h h h h h h h h h h h l W B M / O.                ",
"                    + @ @ @ @ Y @.@.S M / z h h h h h h h h h h h h h q L _ ( N B O.                ",
"                      @ @ @ @ s =._ _ S S L j h h h h h h h h h h h r c ) @.@.^ B }                 ",
"                      @ @ @ @ # Q @._ ) M P C j h h h h h h h h z r l ) @.@.@.@.(                   ",
"                        @ @ @ @ x =.@.@.( M ^ Z j h h h h h h h h l @.@.@.@.@.@.6.                  ",
"                        @ @ @ @ - Q @._ _ ^ M P L z h h h h h h G -.@.@.@.@.@.1.                    ",
"                          @ @ @ @ f *._ @.@.F M S / U Z V C L F S _ @.@.@.@.=.6.                    ",
"                          + @ @ @ # R _ @.@.) S M M B S F S M M M F @.@.@.@.<.                      ",
"                            + o o o * ' @.@.@.) B M M M M M M M M M P _ @.,.                        ",
"                              . . . . % { @.@.@./ M M M M M M M M M N ( 1.                          ",
"                                . . . . % } @.@.@.^ M M M M M M M M N W                             ",
"                                  . . . . O T =.@._ F M M M M M N S O.                              ",
"                                      . . . X u R 1.) F N N F P ~ |                                 ",
"                                          . . . O i H ] [ { |                                       ",
"                                                                                                    ",
"                                                                                                    "
};
