/* XPM */
static char *_a9b0d83674c4e66c03e9d928b74d2cbDf903j9VQ1ydySae[] = {
/* columns rows colors chars-per-pixel */
"50 50 130 2 ",
"   c None",
".  c #BB4201",
"X  c #BF4906",
"o  c #BF4C09",
"O  c #C14E09",
"+  c #D45C02",
"@  c #D66304",
"#  c #DB6302",
"$  c #DC6C04",
"%  c #DE6B0A",
"&  c #DF7203",
"*  c #E17615",
"=  c #E17815",
"-  c #E27D1A",
";  c #D27929",
":  c #E48605",
">  c #E38906",
",  c #E5870B",
"<  c #E79207",
"1  c #E99F08",
"2  c #FB9E13",
"3  c #EBA007",
"4  c #ECA109",
"5  c #EDA918",
"6  c #FBA215",
"7  c #FBAB17",
"8  c #FCA518",
"9  c #FCAB1D",
"0  c #FCB31A",
"q  c #FDBC1D",
"w  c #D98933",
"e  c #E58722",
"r  c #E78F2A",
"t  c #E69037",
"y  c #EFAE23",
"u  c #FFB725",
"i  c #FFB926",
"p  c #FCB42D",
"a  c #FFBC2C",
"s  c #ECA137",
"d  c #EDA53A",
"f  c #EEA93C",
"g  c #FDBA35",
"h  c #FDC11F",
"j  c #FDC520",
"k  c #FECB23",
"l  c #FEC929",
"z  c #FED525",
"x  c #FED62B",
"c  c #FED82E",
"v  c #FFC333",
"b  c #FECA37",
"n  c #F3C03E",
"m  c #FFC738",
"M  c #FCCB3C",
"N  c #FED334",
"B  c #FED934",
"V  c #FEDB3B",
"C  c #EBAB4D",
"Z  c #EFB246",
"A  c #F1B546",
"S  c #F3BC46",
"D  c #ECA953",
"F  c #F0BC51",
"G  c #F6C341",
"H  c #FDCF45",
"J  c #F4C44A",
"K  c #FDD544",
"L  c #FEDC42",
"P  c #FED34B",
"I  c #FCDA4A",
"U  c #EFC15B",
"Y  c #F3C95B",
"T  c #FDDD54",
"R  c #F9D45B",
"E  c #FBDD59",
"W  c #FEE045",
"Q  c #FEE24C",
"!  c #FFE455",
"~  c #FEE15E",
"^  c #FEE15D",
"/  c #FFE45C",
"(  c #FDE45E",
")  c #FFE55F",
"_  c #FFE75E",
"`  c #FFE55A",
"'  c #FFE85C",
"]  c #FFE85E",
"[  c #FFE95F",
"{  c #FFE95F",
"}  c #F7DC65",
"|  c #FADE66",
" . c #F9D56A",
".. c #F7DE6F",
"X. c #F8DE68",
"o. c #FADE69",
"O. c #FBDD74",
"+. c #F9DA7D",
"@. c #FDE360",
"#. c #FDE063",
"$. c #FEE362",
"%. c #FEE265",
"&. c #FDE467",
"*. c #FEE566",
"=. c #FFE960",
"-. c #FFE961",
";. c #FFE862",
":. c #FFE962",
">. c #FFE964",
",. c #FFE966",
"<. c #FFE967",
"1. c #FFE961",
"2. c #FEE26B",
"3. c #FDE56B",
"4. c #FBE36D",
"5. c #FCE16E",
"6. c #FCE26E",
"7. c #FCE46D",
"8. c #FEE86D",
"9. c #FFEB6D",
"0. c #FCE671",
"q. c #F8E070",
"w. c #F9E47B",
"e. c #FDE779",
"r. c #FCE87C",
"t. c #F9E68B",
"y. c #F7E795",
"u. c #FDED93",
"i. c #FCEE9C",
"p. c #F7EBA9",
/* pixels */
"                                                                                                    ",
"                                                                                                    ",
"                                                                                                    ",
"                                                                                                    ",
"                                                                                                    ",
"                                                                                                    ",
"                                      # # % D t.2.! ^ e.i.p.                                        ",
"                                  # # # t O.V z z z z z ! 9.u.                                      ",
"                                # # # D T z z z z z z z x ` [ 3.y.                                  ",
"                              < < < A ! z z z z z z z z z B [ ` ^                                   ",
"                            $ $ $ r %.! x z z z z z z z z z V -.` ^                                 ",
"                          > : : ,  .z Q Q z z z j i q h z z z Q =.Q 7.                              ",
"                          3 3 3 J =.V z ! W k u u u u 9 6 h z z ! [ ! t.                            ",
"                        1 3 4 5 6.=.' x z M u u u u u u u 6 0 z c ` ' 0.                            ",
"                        3 3 3 G 3.=.=.! l u u u u u u u u u 6 q z B ' <.                            ",
"                      1 3 3 4 R [ =.=.! a u u u u u u u u u 0 6 k z L ' r.                          ",
"                      1 3 3 y *.-.[ -.b u u u u u u u u u u u 9 0 z z Q 3.                          ",
"                      3 3 4 n <.[ -./ u u u u u u u u u u u u u 2 k z z `                           ",
"                    $ & & & S ' =.=.P u u u u u u u u u u u u u 6 q z z c w.                        ",
"                    @ # # # G B =.=.v u u u u u u u u u u u u u 9 7 z z z E                         ",
"                    # # # # K z L / a u u u u u u u u u u u u u u 2 k z z I                         ",
"                    # # + % K z z I u u u u u u u u u u u u u u u 6 k z z V                         ",
"                    # # # * V z z N u u u u u u u u u u u u u u u 6 j z z B                         ",
"                    # # @ - B z z N u u u u u u u u u u u u u u u 8 q z z N                         ",
"                    # # # - B z z N u u u u u u u u u u u u u u u 8 i z z c                         ",
"                    # # # * B z z N u u u u u u u u u u u u u u u 8 h z z B                         ",
"                    # # # % V z z N u u u u u u u u u u u u u u u 6 j z z B                         ",
"                    # # # # K z z N a u u u u u u u u u u u u u u 2 k z z L                         ",
"                    @ # # # M z z B a u u u u u u u u u u u u u u 9 x z z I                         ",
"                    @ # # # S B z c b u u u u u u u u u u a u u 9 a ! x z E                         ",
"                      # # # d ! z z K u u u u u u u u u u u u u 8 j W ! c }                         ",
"                      # # # e $.! z B v u u u u u u u u u u u u 9 V z Q !                           ",
"                      # # # % R =.W z K u u u u u u u u u u u 9 H ` B x ^                           ",
"                      @ # # # d =.' V V b u u u u u u u u u 0 p $.=.! B 4.                          ",
"                        # # # - #.=.' B L v u u u u u u u u p / =.=.[ /                             ",
"                        @ # # # A =.=.! c K v u u u u u u g ^ -.=.=.=.7.                            ",
"                          # # # = 2.=.=.Q z V K b a v v b ! -.-.=.=.3.                              ",
"                          @ # # @ s =.=.-.W z x B V V c z z ` =.' <.q.                              ",
"                            + + + @ J -.-.[ B z z z z z z z c ' =.q.                                ",
"                              . . . o Y -.-.` B z z z z z z z L 0.                                  ",
"                                . . . O C <.=.! z z z z z z V |                                     ",
"                                    . . X w Y *.! c z c K T                                         ",
"                                        . . o ; U X.4...                                            ",
"                                                                                                    ",
"                                                                                                    ",
"                                                                                                    ",
"                                                                                                    ",
"                                                                                                    ",
"                                                                                                    ",
"                                                                                                    "
};
