/* XPM */
static char *_3a29462930d4b42df84dac00f048dbdamE5OE1ibUgnTr5R[] = {
/* columns rows colors chars-per-pixel */
"50 50 67 1 ",
"  c None",
". c #B34204",
"X c #BB4201",
"o c #BC4201",
"O c #B84705",
"+ c #BA4A05",
"@ c #C04702",
"# c #C24802",
"$ c #C24A02",
"% c #C44A02",
"& c #CF6107",
"* c #D96303",
"= c #DB6302",
"- c #DB6402",
"; c #DC6703",
": c #DD6803",
"> c #DD6903",
", c #DD6A03",
"< c #DD6B03",
"1 c #DE6E03",
"2 c #DC6B05",
"3 c #DD6F04",
"4 c #DE6E04",
"5 c #D36C09",
"6 c #DF7004",
"7 c #DE7105",
"8 c #DE7205",
"9 c #DF7406",
"0 c #DF7506",
"q c #DF7606",
"w c #D97D0D",
"e c #E07504",
"r c #E27F06",
"t c #DB840D",
"y c #DB860D",
"u c #DC870D",
"i c #DD890D",
"p c #DC880F",
"a c #DE8E0E",
"s c #DE910E",
"d c #E58806",
"f c #E68D0A",
"g c #E89106",
"h c #E89206",
"j c #EA9707",
"k c #E99807",
"l c #EA9A07",
"z c #E99608",
"x c #E8970B",
"c c #E19A0F",
"v c #EA9F08",
"b c #EA9F09",
"n c #EA9F0C",
"m c #E39B11",
"M c #E19815",
"N c #E59F14",
"B c #EBA007",
"V c #EBA10A",
"C c #EBA10B",
"Z c #EBA20B",
"A c #ECA30C",
"S c #E5A215",
"D c #E6A517",
"F c #E4A318",
"G c #E6A718",
"H c #E7A919",
"J c #E6AA1A",
/* pixels */
"                                                  ",
"                     ae44444r                     ",
"                     p,=====e                     ",
"                     u,=====0                     ",
"                     y;=====8                     ",
"                     y;====;8                     ",
"                     p1,,,2,0                     ",
"                     Jllljkkn                     ",
"                     Sggggggx                     ",
"                     w=;===;2                     ",
"                     Mddddddf                     ",
"                     JBBBBBBA                     ",
"                     GBBBBBBA                     ",
"                     DBBBBBBZ                     ",
"                     SBBBBBBZ                     ",
"                     NBBBBvvZ                     ",
"                     mBBBBBBb                     ",
"                     cBBBBBBb                     ",
"                     cBBBBBBb                     ",
"                     sjjjjjjj                     ",
"                     &=======                     ",
"                     &======*                     ",
"                     &======*                     ",
"                     &======*                     ",
"                     &======*                     ",
"                     &======*                     ",
"                     &======*                     ",
"                     &======*                     ",
"                     &======*                     ",
"                     &======*                     ",
"                     &======*                     ",
"                     &======*                     ",
"                     &======*                     ",
"                     &======*                     ",
"                     &======*                     ",
"                     &======*                     ",
"                     &=======                     ",
"                     &======*                     ",
"                     &======*                     ",
"                     +%%%%%%#                     ",
"                     .ooooooX                     ",
"                     .ooooooX                     ",
"                     .ooooooX                     ",
"                     .ooooooX                     ",
"                     .ooooooX                     ",
"                     .ooooooX                     ",
"                     .ooooooo                     ",
"                     O######@                     ",
"                     518e11e1                     ",
"                     mBvBBvBb                     "
};
