/* XPM */
static char *c52c03928a2e46bdd5053a823ec5c73cYLrEyOHfJmWavk5J[] = {
/* columns rows colors chars-per-pixel */
"50 50 119 2 ",
"   c None",
".  c #BB4202",
"X  c #BF4A07",
"o  c #C64D02",
"O  c #C04C08",
"+  c #C75206",
"@  c #D76304",
"#  c #DB6302",
"$  c #DC6807",
"%  c #DD6A09",
"&  c #DE6F10",
"*  c #DF7514",
"=  c #E27C04",
"-  c #E07512",
";  c #E27B1A",
":  c #CE6E21",
">  c #E48505",
",  c #E68A06",
"<  c #E58A08",
"1  c #E59309",
"2  c #E69C0B",
"3  c #E99E09",
"4  c #E68C17",
"5  c #FA9F13",
"6  c #EBA007",
"7  c #EBA10A",
"8  c #EDA614",
"9  c #FBA215",
"0  c #FCA917",
"q  c #FCA619",
"w  c #FDAB1D",
"e  c #FCB41B",
"r  c #FDBC1E",
"t  c #D88431",
"y  c #E48421",
"u  c #E7932D",
"i  c #E8922B",
"p  c #EB9C35",
"a  c #E69138",
"s  c #E0983C",
"d  c #EFAE23",
"f  c #EDA92C",
"g  c #FEAF20",
"h  c #FFB725",
"j  c #FFB926",
"k  c #F0B32C",
"l  c #FFBE2C",
"z  c #ECA33B",
"x  c #FCB631",
"c  c #FDBC36",
"v  c #F1B03E",
"b  c #FDC31F",
"n  c #FEC322",
"m  c #FECC23",
"M  c #FFC02F",
"N  c #FED525",
"B  c #FED62B",
"V  c #FED82E",
"C  c #FFC434",
"Z  c #FECC36",
"A  c #FEC43C",
"S  c #FFCB3B",
"D  c #FED632",
"F  c #FEDA33",
"G  c #FED43C",
"H  c #FEDB3D",
"J  c #E29E42",
"K  c #EA9D45",
"L  c #EFAE44",
"P  c #E6A94A",
"I  c #F1B547",
"U  c #F0B54D",
"Y  c #F4BD4C",
"T  c #EEAE5B",
"R  c #F0BA6A",
"E  c #FECD42",
"W  c #F7C84F",
"Q  c #F8CB4D",
"!  c #FED343",
"~  c #FEDD43",
"^  c #FFD34A",
"/  c #FDDD4B",
"(  c #F7CA54",
")  c #F8CA50",
"_  c #F7CB59",
"`  c #FFD753",
"'  c #FDDD53",
"]  c #FAD45F",
"[  c #FCDD5C",
"{  c #FFE046",
"}  c #FFE24B",
"|  c #FFE554",
" . c #FFE65A",
".. c #FFE85E",
"X. c #F6CC63",
"o. c #F8D467",
"O. c #F9DD64",
"+. c #F8D469",
"@. c #FBDC69",
"#. c #F7DE72",
"$. c #FDE364",
"%. c #FFE960",
"&. c #FDE56B",
"*. c #FFE96B",
"=. c #FCE372",
"-. c #FCE877",
";. c #FCE57B",
":. c #FCE97D",
">. c #FADF90",
",. c #FBE680",
"<. c #FDE985",
"1. c #FBE18B",
"2. c #FEEC8D",
"3. c #FBEA92",
"4. c #F7E99D",
"5. c #FAEB9D",
"6. c #F6EAA3",
"7. c #FBEEA5",
"8. c #F7EBA9",
/* pixels */
"                                                                                                    ",
"                                      8.7.2.<.<.3.1.T ; # # @ @                                     ",
"                                  7.2.*.{ N N N B N } 2.R * # # # @                                 ",
"                              6.2.*.%.} N N N N N N N N ~ 1.a # # # #                               ",
"                            5.&...%.} B N N N N N N N N N B =.K # # # # @                           ",
"                          5. .| .. .F N N N N N N N N N N N D @.z > > > , 1                         ",
"                        4.' | ....H N N N N N N N N N N N N N / ;.f , , , ,                         ",
"                        $.} ....{ N N N N N N N N N N N N N H  .{ X.- $ # # #                       ",
"                      ,.{ ..%.} B N N N b e e r n m N N N F  .{ N } U , , , , 1                     ",
"                      /  .%.| B N N r 0 q w h h h j j N V  .} N B | ;.k 3 3 6 6                     ",
"                    ;. .%. .D N N e 9 0 h h h h h h j j ~  .V N { ..*.+.6 6 6 6 3                   ",
"                  3.%...%.F N N e 5 w h h h h h h h h h l B N H ..%.%.-.d 6 6 6 6                   ",
"                  :.%.%.{ N N r 9 w j h h h h h h h j h h j D  .%.%...%._ 6 6 6 6 3                 ",
"                  =.%.} N N m 9 q h h h h h h h h h h h h h C  .%.%.%.%.=.8 6 6 6 3                 ",
"                <.%.| B N N 0 9 h h h h j h h h h h h h h h j ^ %.%.%.%.&.k 6 6 6 6 2               ",
"                -. .F B N m 9 0 h h h h h h h h h h h h h h j C  .%.%.%.%.( 6 6 6 6 3               ",
"                &.F N N N w 5 e h h h h h j h h h h h h h h h j ' %.%...%.@.8 3 3 3 3               ",
"                } N N N N 9 q h h h h h h h h h h h h h h h h h E %.%.%.%.[ 4 = = = =               ",
"              @.D N N N b 5 h h h h h h h h h h h h h j h h h h c  ...%.} H y # # # #               ",
"              [ N N N N e 5 h h h h h h h h h h h h h h h h h h j  .%.| B D p # # # # #             ",
"              / N N N N 0 9 j h h h h h h h h h h h h h h h h h h `  .D N B I # # # # #             ",
"              / N N N N 9 w h h h h h j h h h j h h h h h j h h h ^ H N N N Y # # # # #             ",
"              ~ N N N m 9 w h h h h h h h h h h h h j h h h h h h C D N N N ( # # # # #             ",
"              G N N N m 5 g h h h h h h h h h h h j h h h h h h j C B N N N ) # # # # #             ",
"              ~ N N N m 5 h h h h h h j h h h j h h h h j h h h h C B N N N Q % # # # #             ",
"              H N N N m 5 g h h h h h h h h h h h h h h h h h h h C D N N N Q % # # # #             ",
"              H N N N m 5 g h h h h h h h h h h h j h h h h h j h C B N N N Q # # # # #             ",
"              G N N N m 5 h h h h h h h h h h h h h h h h h h h h Z D N N N W # # # # #             ",
"              ~ N N N m 5 g h h h h j h h h h h h h h h h h h h j S V N N B Y # # # # #             ",
"              / N N N N q w h h h h h h h h h h h h h j h j h h j S B N N B v # # # # #             ",
"              / N N N N g q h h h h h h j h h h h j h h h h h h h G B N N B p # # # # @             ",
"              [ B N N ~ S 9 h h h h h h h h h h h h h h h h j h j G N N N ~ 4 # # # # @             ",
"              O.D N F ..G 9 h h h h h h h h h j h h h h h j h h A F N N D  .* # # # #               ",
"                H F | } N w w h h h h h h h h h h h h h h h h h ! V N V | o.% # # # #               ",
"                ' | | B N C 9 h h h h h h h h h j h h h h h h l H N N | %.I # # # # #               ",
"                &. .D N H  .q w h h h h h h h h h h h h h h h G F N { ..%.i # # # # @               ",
"                  H N F ..%.E q h h h h h h h h h h h j h h c ~ N ~ %.%.O.- # # # #                 ",
"                  / V  .%.%.%.c w j h h h h h h h h h h j j ~ D F  .%.%.Y # # # # #                 ",
"                  O. ...%.%.%. .x w h h h j h h h h h h j ! H V | %.%.$.y # # # # @                 ",
"                    &.%.%.%.%.%.$.x e h h h h j h h h j E ~ V } %.%.%._ % # # # #                   ",
"                    =.%.%.%.%.%.%.$.A h h h j j h h M ! { N ~ ..%.%.O.i # # # # @                   ",
"                      &.%.%.%.%...../ Z C C M M C G } H N H  ...%.%.I % # # # @                     ",
"                        &.%.%.%.%.} N N D H { { ~ F N N V ..%.%.%.] ; # # # #                       ",
"                        =.%...%.} V N N N N N N N N N V | ..%...$.u # # # # @                       ",
"                          =.%.| D N N N N N N N N N B } %.%.%.$.s + o o o o                         ",
"                            =.~ N N N N N N N N N N { %.%.%.&.P O . . . .                           ",
"                              &.~ N N N N N N N N F ....%.&.J X . . . .                             ",
"                                #. .F N N N N N D  ...*.o.: X . . .                                 ",
"                                    #.$.[ ~ ~ ~ %.&.X.t X . . . .                                   ",
"                                                                                                    "
};
