/* XPM */
static char *ded03ec2e8704cfbcec87253d61f9530e4o1vNSFJi3NBXGX[] = {
/* columns rows colors chars-per-pixel */
"50 50 121 2 ",
"   c None",
".  c #BB4302",
"X  c #C14E0A",
"o  c #C2510C",
"O  c #C85E15",
"+  c #D66304",
"@  c #DB6302",
"#  c #DC6807",
"$  c #DD6D0B",
"%  c #CC671B",
"&  c #DE6F10",
"*  c #DB7215",
"=  c #E27A04",
"-  c #E07613",
";  c #E17A16",
":  c #E27B1A",
">  c #D47C2B",
",  c #E38406",
"<  c #E5850A",
"1  c #E69107",
"2  c #E89506",
"3  c #E59C0B",
"4  c #E99E09",
"5  c #E48414",
"6  c #E3821E",
"7  c #FB9E13",
"8  c #EBA007",
"9  c #ECA20B",
"0  c #ECA219",
"q  c #FBA215",
"w  c #FBA916",
"e  c #FCA618",
"r  c #FDAC1C",
"t  c #FDB41B",
"y  c #FDBB1D",
"u  c #DA8A35",
"i  c #DE953D",
"p  c #E48423",
"a  c #E58823",
"s  c #E8932D",
"d  c #E9992B",
"f  c #E58C32",
"g  c #E7943C",
"h  c #EFAF26",
"j  c #FEAF20",
"k  c #FFB725",
"l  c #FEBA25",
"z  c #F0B22C",
"x  c #FDB528",
"c  c #FFBC2C",
"v  c #EEA73F",
"b  c #F2B837",
"n  c #FFBE31",
"m  c #FDC620",
"M  c #FECC22",
"N  c #FEC32F",
"B  c #FECD2C",
"V  c #FED525",
"C  c #FED62A",
"Z  c #FED82E",
"A  c #FFC333",
"S  c #FFC63C",
"D  c #FFCB3C",
"F  c #FED933",
"G  c #FFD13F",
"H  c #FEDB3B",
"J  c #ECA547",
"K  c #EFAC42",
"L  c #E8AF4E",
"P  c #F3BB4F",
"I  c #EDAD59",
"U  c #F4BE50",
"Y  c #F0B867",
"T  c #FFC740",
"R  c #FFCF4A",
"E  c #FFD244",
"W  c #FEDD43",
"Q  c #FFD64B",
"!  c #FEDC4C",
"~  c #F6C553",
"^  c #F3C65E",
"/  c #F7CE5E",
"(  c #FEDC53",
")  c #F8D05F",
"_  c #FEDD5B",
"`  c #FFE046",
"'  c #FFE24C",
"]  c #FFE455",
"[  c #FFE55B",
"{  c #FFE95E",
"}  c #F5CF64",
"|  c #F4C56A",
" . c #F7D365",
".. c #F9D262",
"X. c #FBDC63",
"o. c #F6DD6E",
"O. c #FADD6A",
"+. c #F4C575",
"@. c #F5C973",
"#. c #F6CF7E",
"$. c #F5DD73",
"%. c #FBDC76",
"&. c #FADD7D",
"*. c #FEE365",
"=. c #FFE960",
"-. c #FDE46B",
";. c #FFE96B",
":. c #FCE373",
">. c #FFE974",
",. c #FDE57D",
"<. c #FEE87D",
"1. c #F8D689",
"2. c #F8E487",
"3. c #FFED85",
"4. c #F9E78F",
"5. c #FDEB8D",
"6. c #FBE994",
"7. c #FCED9A",
"8. c #F9ECA4",
"9. c #F7ECAA",
"0. c #FAEEA8",
/* pixels */
"                                                                                                    ",
"                                      9.0.7.7.7.7.1.Y g * + +                                       ",
"                                0.7.3.;.F V V V V C W ;.5.+.f # @ +                                 ",
"                            8.5.;.=.] F V V V V V V V V V H >.#.p @ @ +                             ",
"                        8.3.{ =.{ [ Z V V V V V V V V V V V V H ,.I # @ @ @                         ",
"                      7.] ' =.=.{ Z V V V V V V V V V V V V V V C _ @.5 = = ,                       ",
"                    6.W ' =.=.] Z V V V V V V V V V V V V V V V V F ;.&.0 2 2 1                     ",
"                  4.W ' =.=.] Z V V V V V V V V V V V V V V V V F { ] ' @.* @ @ @                   ",
"                6.H ] { =.] F V V V V M m y t y y m V V V V V F [ [ Z C ` | < , , <                 ",
"              8.W ] { { ] Z V V V m r 7 7 7 7 q q 7 7 t m V H ] ] Z C C ] >.~ 8 8 8 4               ",
"              -.] =.=.] F V V M t q 7 e r t k k k k r e w l ! [ F V Z ' { =.:.h 8 8 8               ",
"            6.] { =.] F V V m e 7 w j k k k k k k k k k k j x C V C ' =.=.=.;. .8 8 8 4             ",
"            >.{ { ] F V V m e 7 e k k k k k k k k k k k k k k r B ' =.=.=.{ =.:.b 8 8 8 4           ",
"          5.=.{ ] Z V V M q 7 t k k k k k k k k k k k k k k k k c ( =.=.=.=.{ ;.%.8 8 8 4           ",
"          ;.=.] C V V V w q r k k k k k k k k k k k k k k k k k k A { =.=.=.=.=.>.z 8 8 8           ",
"        4.=.] Z V V V y 7 r k k k k k k k k k k k k k k k k k k k k Q =.=.{ =.=.=...8 8 8 4         ",
"        <.] C V V V m w e k k k k k k k k k k k k l k k k k k k k k A *.{ { =.=.=.,.9 4 4 4         ",
"        ] C V V V V y q k k k k k k k k k k k k l l k k k k k k x k l ( { =.{ { =.{ d = = =         ",
"      2.Z V V V V V w e k k k k k k k k k k k k x k k k k k k k k k k S =.=.=.{ W F J @ @ @ +       ",
"      :.V V V V V m 7 r k k k k k k k k k k k k k k k k k k k k k k k n *.=.] W V V ^ @ @ @ @       ",
"      *.V V V V V t q k k k k k k k k k k l k k k k k k k x k k k k k l ( [ W V V V X.@ @ @ @       ",
"      ( V V V V V w e k k k k k k k k k l l k k k k k k l l k k k k k k Q ` V V V V *.$ @ @ @       ",
"      W V V V V V 7 r k k k k k k k k k x k k k k k k k k k k k k k k k A Z V V V V ( : @ @ @       ",
"      W V V V V M 7 k k k k k k k k k k k k k k k k k k k k k k k k k k N F V V V V ! 6 @ @ @       ",
"      H C V V V M q k k k k k k k k k k k k k k l l k k k k k k k l l k A H V V V V W p @ @ @       ",
"      H V V V V M q k k k k k k k k k k k k k k x l k k k k k k k k x k c H V V V V Q 6 @ @ @       ",
"      H V V V V M q k k k k k k k k k k k k k k k k k k k k k k k k k k A H V V V V ! 6 @ @ @       ",
"      W V V V V V 7 k k k k k k k k x l l k k k k k k k k k k k k k k k A H V V V V ! ; @ @ @       ",
"      ( V V V V V w k k k k k k k k k k k k k k k k k k l k k k k k k k S F V V V V ] $ @ @ @       ",
"      [ V V V V V t r k k k k k k k k k k k k k k k k k l x k k k k k k G C V V V V _ # @ @ @       ",
"      X.V V V V V B k k k k k k l l k k k k x l k k k k k k k k k k l l W V V V V V ~ @ @ @ @       ",
"      o.C V V V W _ k k k k k x l k k k k k k l l k k k k k k k k k x A H V V V C H v @ @ @ +       ",
"        H V C ` { ` l k l k k k k k k k k k k k k k l l k k k k k k k G F V V V H =.a @ @ @ +       ",
"        ( C W { ` V M l k k k k k k k k k k k k k k x l k k k k k k A W V V C ` =.-.$ @ @ @         ",
"        -.W { ! V V H A k k k k l x k k k k k k k k k k k k k k k k E F V C W =.=.U + @ @ @         ",
"          *.` V V H ] ] c l k k k k k k k k k k k k k k k k k k k A W C C W { =.-.a @ @ @ +         ",
"          *.V V H { =.=.( c l k k k k k k k k k k k k k k k l k n Q Z C ` { =.=...# @ @ @           ",
"          $.H H { =.{ =.=.Q c k k k k k k k k k k k k k l k l c W H C ` { { =.*.s @ @ @ +           ",
"            -.{ { { =.=.=.=.( n k k k k k k k k k k k k l x n Q H C ` { =.=.=.P # @ @ +             ",
"              ;.=.=.=.=.=.=.=.X.D c k k k k k k k k k k l D ! H C ` =.=.=.=.X.p @ @ @               ",
"              :.=.=.=.=.=.=.=.=.;._ c k k k k k k k k N ! ' F V W =.=.=.=.*.K @ @ @ @               ",
"                :.=.=.=.=.=.=.=.[ F F W Q D S A D E ] ! F V V ` =.=.=.=.=.~ $ @ @ @                 ",
"                  :.=.=.=.=.=.[ F V V V C Z F H H Z C V V V ` =.=.=.=.=...- @ @ @                   ",
"                    -.=.{ =.] F V V V V V V V V V V V V V ' =.=.=.=.=...: @ @ @                     ",
"                      :.=.] F V V V V V V V V V V V V C ' =.=.=.=.=.| O X . .                       ",
"                        :.] C V V V V V V V V V V V V ' =.=.=.=.;.L o . . .                         ",
"                            X.W C V V V V V V V V V ' =.=.=.-.O.> . . .                             ",
"                              $.*.( F V V V V V C ] =.=.-. .u . . . .                               ",
"                                    $.o.*.*._ _ *.-.^ i % . . .                                     ",
"                                                                                                    "
};
