/* XPM */
static char *_8627_d6eaa6195549f9afcc05713cfdc11ba69412c83eb92c77104d8ec534693b4c3a[] = {
/* columns rows colors chars-per-pixel */
"50 50 179 2 ",
"   c #160502",
".  c #180500",
"X  c #1E0A06",
"o  c #220F0B",
"O  c #24110D",
"+  c #2A120E",
"@  c #3F1D0F",
"#  c #271411",
"$  c #2A1512",
"%  c #2E1915",
"&  c #2E1C1A",
"*  c #361E16",
"=  c #3E1D11",
"-  c #301D1A",
";  c #3F2117",
":  c #3F231A",
">  c #241F23",
",  c #292829",
"<  c #3C3536",
"1  c #35383B",
"2  c #3C3A3C",
"3  c #363834",
"4  c #401D0F",
"5  c #411C11",
"6  c #4C261C",
"7  c #522D23",
"8  c #4A362B",
"9  c #543D2C",
"0  c #443D36",
"q  c #4B3B32",
"w  c #443C3A",
"e  c #493D38",
"r  c #4B433A",
"t  c #584030",
"y  c #584739",
"u  c #564133",
"i  c #64422A",
"p  c #6B4329",
"a  c #774726",
"s  c #604430",
"d  c #664D3A",
"f  c #6C4E3E",
"g  c #734933",
"h  c #75523A",
"j  c #3C3D41",
"k  c #403B44",
"l  c #404142",
"z  c #A2531E",
"x  c #874E26",
"c  c #8A5324",
"v  c #8E5529",
"b  c #855627",
"n  c #995325",
"m  c #94562C",
"M  c #985728",
"N  c #97592E",
"B  c #9A5827",
"V  c #865837",
"C  c #895937",
"Z  c #955633",
"A  c #925A33",
"S  c #9A5833",
"D  c #A35421",
"F  c #A55B2B",
"G  c #9E663D",
"H  c #AC652D",
"J  c #B8672B",
"K  c #A46134",
"L  c #AB6537",
"P  c #BB6B33",
"I  c #B56834",
"U  c #CF6C1F",
"Y  c #D16D1F",
"T  c #CE6D25",
"R  c #C56E2C",
"E  c #CD6D2A",
"W  c #D36E24",
"Q  c #D46F29",
"!  c #CE7026",
"~  c #CE722D",
"^  c #D57125",
"/  c #DA7426",
"(  c #D47229",
")  c #DB7529",
"_  c #D7782C",
"`  c #DB7A2E",
"'  c #C36D31",
"]  c #CC7434",
"[  c #C77A37",
"{  c #CD793B",
"}  c #E17627",
"|  c #E47A27",
" . c #E97B26",
".. c #E17629",
"X. c #E67A29",
"o. c #E87C28",
"O. c #985F41",
"+. c #8A664F",
"@. c #83665E",
"#. c #B7764F",
"$. c #BD7647",
"%. c #BD7D53",
"&. c #896B62",
"*. c #937269",
"=. c #98776E",
"-. c #97786F",
";. c #9D7F76",
":. c #9F7F79",
">. c #957971",
",. c #C67F4A",
"<. c #9C8077",
"1. c #9E847E",
"2. c #BB8063",
"3. c #A2847A",
"4. c #A9897E",
"5. c #BC8B79",
"6. c #CF854A",
"7. c #C68559",
"8. c #C68F6E",
"9. c #C38F7C",
"0. c #A58A81",
"q. c #AC8D84",
"w. c #AF9085",
"e. c #AB918A",
"r. c #A7928B",
"t. c #B09187",
"y. c #B2948A",
"u. c #B59E95",
"i. c #B99C92",
"p. c #B19690",
"a. c #BEA197",
"s. c #BCA49C",
"d. c #C49E92",
"f. c #C4A195",
"g. c #C5A49A",
"h. c #C9A59B",
"j. c #CBAB9E",
"k. c #C6AB9F",
"l. c #D1B09F",
"z. c #CBADA3",
"x. c #C3ABA5",
"c. c #D0AEA1",
"v. c #CDB2A6",
"b. c #CBB3AB",
"n. c #CAB5AC",
"m. c #D2B1A5",
"M. c #D3B6AB",
"N. c #D5B9AD",
"B. c #D9BCAF",
"V. c #CFBBB0",
"C. c #D5BAB2",
"Z. c #DABEB2",
"A. c #D4C1B6",
"S. c #DCC2B5",
"D. c #D5C4BA",
"F. c #DDC4BA",
"G. c #DBC9BE",
"H. c #E1C6BC",
"J. c #E2CABE",
"K. c #DDCCC4",
"L. c #DED0C8",
"P. c #E4CDC3",
"I. c #E8CFC6",
"U. c #E5D1C6",
"Y. c #E8D0C6",
"T. c #E6D4CB",
"R. c #EAD5CB",
"E. c #E7D8CE",
"W. c #EDD9CE",
"Q. c #F0D6CE",
"!. c #E6D7D0",
"~. c #EEDCD3",
"^. c #E8D7D1",
"/. c #F1DDD3",
"(. c #EFE3DB",
"). c #EDE0D5",
"_. c #F2E1D7",
"`. c #F2E3DA",
"'. c None",
/* pixels */
"'.'.'.'.'.'.'.'.'.'.'.'.'.'.'.'.'.'.'.'.'.'.'.'.'.'.'.'.'.'.'.'.'.'.'.'.'.'.'.'.'.'.'.'.'.'.'.'.'.'.",
"'.'.'.'.'.'.'.'.'.'.'.'.'.'.'.'.'.'.'.'.'.'.'.'.'.'.'.'.'.'.'.'.'.'.'.'.'.'.'.'.'.'.'.'.'.'.'.'.'.'.",
"'.'.'.'.'.'.'.'.'.'.'.'.'.'.'.'.'.'.'.'.'.'.'.'.'.'.'.'.'.'.'.'.'.'.'.'.'.'.'.'.'.'.'.'.'.'.'.'.'.'.",
"'.'.'.'.'.'.'.'.'.'.'.'.'.'.'.'.'.'.'.'.'.'.'.'.'.'.'.'.'.'.'.'.'.'.'.'.'.'.'.'.'.'.'.'.'.'.'.'.'.'.",
"'.'.'.'.'.'.'.'.'.'.'.'.'.'.R.~.~.R.N.'.'.'.'.'.'.'.'.'.'.b.T.E.^.R.C.'.'.'.'.'.'.'.'.'.'.'.'.'.'.'.",
"'.'.'.'.'.'.'.'.'.'.E.T.z.z./.`._.~.M.D.K.P.'.b.b.^.~.^.b.g.R.`.`.`.C.Z./.'.'.'.'.'.'.'.'.'.'.'.'.'.",
"'.'.'.'.'.'.'.'.'.^.`.J.d.j.~.`.`._.F.R.(._.`.Z.M./.`./.H.d.R.`.`.`.Z.Z.`.`.Q.'.'.'.'.'.'.'.'.'.'.'.",
"'.'.'.'.'.'.'.'.P.`.`.I.h.z.E.`.`.(.H.R.(.).(.J.N.`.`.`.N.g.~.`.`.`.C.Z.`.`._.'.'.'.'.'.'.'.'.'.'.'.",
"'.'.'.'.'.'.'.'.R.`./.C.d.h.W.`././.M.P.`././.H.h.~.`.~.z.d.~./.`./.N.Z.`.`.`.`.'.'.'.'.'.'.'.'.'.'.",
"'.'.'.'.'.'.'.n.R.R.Z.m.d.d.S.R.H.Z.z.P././.~.Z.g.R./.R.d.d.F.Z.Z.N.l.M.R.I.I.Q.'.'.'.7.,.] [ F +.'.",
"'.'.'.'.'.'.'.C.B.z.v.z.d.3.q.i.y.y.:.w.s.i.i.w.4.t.i.d.q.=.t.q.q.q.4.9.8.7.7.,.{ ` ! ( ( ) ! z A '.",
"'.'.'.'.'.'.~././.R.`./.y.+ % % % % O # % & % $ + % % % $ X % % % % 6 ' ) Q ) Q ^ ../ W ) ^ T D Z '.",
"'.'.'.'.'.'._.`.`.`.`.Y.3.. . . . . . . . X   . . . . . . . . .     = Q } W ^ ^ ^ } / W ( / T D N '.",
"'.'.'.'.'.'./.`.`.`.`.I.3.X . . . . . . . . . . . . . . . . . .     = E / ^ / W ( ) _ T _ ( R n C '.",
"'.'.'.'.'.'.A.P.J./.~.J.4.    . . . . . . . . . . . . . . . . .     5 E ^ ! ! P P I K m V g d 8 r '.",
"'.'.'.'.'.'.s.z.z.N.v.j.*.  . . . . . . . . . . . . . . . . . .     6 A C h f y 0 0 2 2 1 3 w , 3 '.",
"'.'.'.'.'.'.'.'.^.Q.I.P.1.. . . . . . . . . . . . . . . . . . . . . > k < w e q 8 u s p x v m a g '.",
"'.'.'.'.'.'.'.!./.`.`.Q.p.. . . . . . . . . . .   . . .   . . .     * a v n F J ~ _ ( T ..) W z Z '.",
"'.'.'.'.'.'.'.!.`.`./.P.:.. . . . . . .   . . . . . . . . . . . .   @ T ) ^ / ^ ^ } ^ Q ..) ! D Z '.",
"'.'.'.'.'.'.'.K.`.Q.I.Z.:.. . . . . . . . . . . . . . .   . . . .   @ W Q W / ^ _ ..W Q ../ T D N '.",
"'.'.'.'.'.'.'.b.M.z.z.d.*.. . . . . . . . . . . . . . . . . . . . . 5 Q / / } ^ ^ | Y W ../ ^ D N '.",
"'.'.'.'.'.'.D.J.P.P.F.B.-.. . . . . . . . . . .   . . . . . . . . . 5 Q / / o./ / | T W X./ _ D m '.",
"'.'.'.'.'.'.E._._.`.(.H.;.. . . . . . . . .   . . . . . .   . . . . 4 Q ^ / X.^ ) o.T ^ ../ ^ D Z '.",
"'.'.'.'.'.'.~.`.`.`.(.R.0.. . . . . .   . . . . . . . . . . . . . . 4 Q ) ^ X.^ / | U ^ | / ^ D Z '.",
"'.'.'.'.'.'.K.`.`._.~.S.3.. . . .   . . . . . . . . . . . . . . .   = W ) / X./ / X.Y ^  ./ ( z Z '.",
"'.'.'.'.'.'.C.P.S.Y.P.m.=.. . . . . . .   . . . . . . . . . .   . . = W / ^ X.) ) X.^ ^  ./ ( z Z '.",
"'.'.'.'.'.'.'.z.C.N.z.c.@.. . . . . . . . . . . . .   . . . . . .   5 ^ ) ^ | / / X.^ ^  ./ ^ D N '.",
"'.'.'.'.'.'.'.'./._.`.R.q.. . . . . . . . . . . . . . . . . . . .   5 W ) / | ) / o./ /  .^ ^ z m '.",
"'.'.'.'.'.'.'.K._.`.`./.t.. . . . . . . . . . . . . . . . .   . .   = W / ^ | / ^ o./ ^  .^ ^ z N '.",
"'.'.'.'.'.'.'.n./.`.`.U.0.. .   . .   . . .   . . . . . . . . . .   5 W / ^ | ) ^ o./ ^ o.^ ^ z N '.",
"'.'.'.'.'.'.'.x.P.Q.Q.S.;.. . . . . . . . . . . . .   . . . . . .   @ ^ / ^ | / / o./ / o.) ^ z Z '.",
"'.'.'.'.'.'.'.C.C.Z.C.z.&.. . . . . . . . . . .   . . . . . . .     @ ^ / ^  ./ /  ./ ^ o.) ^ z Z '.",
"'.'.'.'.'.'.R.^._./.).P.3.. . .   . . . . . . . . . .   . .   . .   5 W / ^ | / / o./ / o...^ z Z '.",
"'.'.'.'.'.'./.`.`.`.`.W.q.. . . . . . . . . . . . . . . . . . . .   5 W / W | ) /  ./ ^ X.} ( z A '.",
"'.'.'.'.'.'.~.`.`.`.`.R.0.. . . . . . . . .   . . . . . . . . .     5 ^ / / | ) ) o.) ^ o.) ^ D v '.",
"'.'.'.'.'.'.C.K.~.J.G.B.3.X . . . . . . . . . . . . . . . . . . .   5 W / ) | ) / o./ ^ o.) ^ z v '.",
"'.'.'.'.'.'.s.v.N.m.h.d.@.. . . . .   . . . . . . . . . .   .   .   = ^ ( / | ) / o.^ ^ o.) ^ z v '.",
"'.'.'.'.'.'.'.'.R.T.I.M.-.. . . . . . . . . . .   . . . . . . . . . = ^ ^ W | / / o.Y ^ o.) ^ z c '.",
"'.'.'.'.'.'.'.~.`.`.(.R.0.. . . . . . . . . . . . . . . . . . .     5 E ^ T | / ^  .Y ^ o./ ! z c '.",
"'.'.'.'.'.'.'.).`.`.`./.e.X . . . . . . .     . . . . . . . . . .   6 S L J ] ( _ ..W W o.) W z c '.",
"'.'.'.'.'.'.'.G././.~.R.q.. . . . . . . . . . . . . . . . . . . . . > 2 w j w q 9 f h V G H L v b '.",
"'.'.'.'.'.'.'.'.N.N.M.f.&.. . . . . . . . . . . . . .   . . . . . . * p i 9 8 < 1 2 l 2 2 1 j , r '.",
"'.'.'.'.'.'.D.J.M.F.Z.B.<.. . . . . . . .     . . . . . . . . . . . = W ( W ` ] P F c a i 9 8 , e '.",
"'.'.'.'.'.'.U._./.`._._.r.. . . . . . . . . . . . . . . . . . . .   5 W / ( ) W Q W ^ W ( _ Q M C '.",
"'.'.'.'.'.'.T._.`.`.`.`.s.. . .     . .   .   . . . . . . . . . .   5 Q ^ ^ ../ / } ) ^ / ..W z A '.",
"'.'.'.'.'.'.A.R.T._.`.~.u.$ $ O X $ & & ; - - O O - - - - - - X $ - 7 E ( _ X.^ /  ./ W o./ Q z A '.",
"'.'.'.'.'.'.s.z.v.G.U.S.f.v.N.N.k.N.Z.S.C.C.S.v.m.S.S.M.m.M.Z.f.z.N.m.5.2.#.$.' ] ) _ Q o./ ^ z S '.",
"'.'.'.'.'.'.'.'.'.'.'.'.'.'.'.'.'.'.'.'.'.'.'.'.'.'.'.'.'.'.'.'.'.'.'.'.'.'.'.'.'.'.'.%.6.] ] n O.'.",
"'.'.'.'.'.'.'.'.'.'.'.'.'.'.'.'.'.'.'.'.'.'.'.'.'.'.'.'.'.'.'.'.'.'.'.'.'.'.'.'.'.'.'.'.'.'.'.'.'.'.",
"'.'.'.'.'.'.'.'.'.'.'.'.'.'.'.'.'.'.'.'.'.'.'.'.'.'.'.'.'.'.'.'.'.'.'.'.'.'.'.'.'.'.'.'.'.'.'.'.'.'."
};
