/* XPM */
static char *e05879abe9c348afe0f11d48656736f9IRaPuP0QNAumOwNK[] = {
/* columns rows colors chars-per-pixel */
"50 50 194 2 ",
"   c None",
".  c #3F3D1D",
"X  c #3A3335",
"o  c #3C3628",
"O  c #413E1E",
"+  c #5F3817",
"@  c #5A3419",
"#  c #653C1A",
"$  c #693E1B",
"%  c #443F26",
"&  c #5D382A",
"*  c #423A37",
"=  c #623A24",
"-  c #6E431D",
";  c #72461F",
":  c #4C4925",
">  c #4E4B29",
",  c #494528",
"<  c #514E2B",
"1  c #56532E",
"2  c #59562F",
"3  c #4C4636",
"4  c #544D3C",
"5  c #565232",
"6  c #5A5633",
"7  c #5E5B32",
"8  c #5B553E",
"9  c #694422",
"0  c #724720",
"q  c #754A22",
"w  c #7E5328",
"e  c #7A5127",
"r  c #6A463A",
"t  c #615E36",
"y  c #646136",
"u  c #676438",
"i  c #6C683C",
"p  c #3A3448",
"a  c #3A2A5A",
"s  c #382B48",
"d  c #331D68",
"f  c #311B66",
"g  c #37206B",
"h  c #39226E",
"j  c #3A2668",
"k  c #3C2571",
"l  c #3F2875",
"z  c #4B2E4F",
"x  c #443C47",
"c  c #443D52",
"v  c #473B59",
"b  c #473965",
"n  c #553D6B",
"m  c #452C7A",
"M  c #492F7E",
"N  c #432B75",
"B  c #4B317E",
"V  c #4E387A",
"C  c #493571",
"Z  c #533E7C",
"A  c #5D5547",
"S  c #4C455A",
"D  c #494256",
"F  c #51495E",
"G  c #5B5050",
"H  c #574E49",
"J  c #6B4B5A",
"K  c #645C5C",
"L  c #654F48",
"P  c #4B4061",
"I  c #544C62",
"U  c #5D546A",
"Y  c #595167",
"T  c #4F4070",
"R  c #5D5076",
"E  c #574678",
"W  c #6B4B67",
"Q  c #61596F",
"!  c #6A5C67",
"~  c #694B79",
"^  c #655D72",
"/  c #705E7C",
"(  c #7B5C7D",
")  c #6B6174",
"_  c #6D647A",
"`  c #71697D",
"'  c #716375",
"]  c #7B7470",
"[  c #777069",
"{  c #895D2F",
"}  c #82572A",
"|  c #895D31",
" . c #8D6233",
".. c #876135",
"X. c #946837",
"o. c #946A39",
"O. c #9A6E3D",
"+. c #936736",
"@. c #9C723E",
"#. c #805B4C",
"$. c #846142",
"%. c #9B7646",
"&. c #9A714A",
"*. c #9A7544",
"=. c #81625B",
"-. c #A47B46",
";. c #967477",
":. c #AC8148",
">. c #A68476",
",. c #4D3382",
"<. c #513687",
"1. c #523A85",
"2. c #553A8B",
"3. c #583E8D",
"4. c #583F84",
"5. c #5C448D",
"6. c #5E4D87",
"7. c #5E4391",
"8. c #644B95",
"9. c #664B98",
"0. c #674B95",
"q. c #695396",
"w. c #6D539C",
"e. c #6F5A99",
"r. c #765A98",
"t. c #704F87",
"y. c #756285",
"u. c #766E83",
"i. c #7B668D",
"p. c #7C6383",
"a. c #797186",
"s. c #7D758A",
"d. c #7D6597",
"f. c #7156A1",
"g. c #755AA3",
"h. c #7A5FA8",
"j. c #785DA6",
"k. c #7C63A6",
"l. c #7E69A5",
"z. c #7E63AA",
"x. c #80608F",
"c. c #827A8C",
"v. c #836C94",
"b. c #83669C",
"n. c #837B90",
"m. c #907093",
"M. c #846DA5",
"N. c #8B6FA3",
"B. c #8166AD",
"V. c #8469AE",
"C. c #8B6EAB",
"Z. c #8C75A5",
"A. c #8B72AB",
"S. c #8B76AB",
"D. c #927BAA",
"F. c #9578A6",
"G. c #866BB1",
"H. c #896EB3",
"J. c #8D72B6",
"K. c #8F75B9",
"L. c #947AB5",
"P. c #9176BA",
"I. c #9479BC",
"U. c #957ABB",
"Y. c #997EC1",
"T. c #888280",
"R. c #97978C",
"E. c #8F869B",
"W. c #96889B",
"Q. c #A4A599",
"!. c #A3A397",
"~. c #9682AF",
"^. c #9989A7",
"/. c #9581B4",
"(. c #9C92A5",
"). c #A796B8",
"_. c #A49DA3",
"`. c #B6B5A8",
"'. c #BBBAAD",
"]. c #B7B5A9",
"[. c #AFA0B4",
"{. c #BDB2BB",
"}. c #B8AFB7",
"|. c #C1BFB0",
" X c #C5C3B5",
".X c #CECBBE",
"XX c #C9C5BD",
"oX c #D0CFBF",
"OX c #9B81C2",
"+X c #A58CCA",
"@X c #CCC6C4",
"#X c #D2CFC5",
"$X c #DCDACA",
"%X c #D7D2C8",
/* pixels */
"                                                                                                    ",
"                                                                                                    ",
"                                              -...                                                  ",
"                                            %.-.%.9                                                 ",
"                                            O.*.o.J 6.                                              ",
"                                          J.=.#.L G.G.6.                                            ",
"                                        /.P.J.y.r.J.z.q.                                            ",
"                                      V.e.F.A.V.B.x.v.1.e.                                          ",
"                                      r.l.Z.r.f.w.Z.B.8.q.                                          ",
"                                      V.q.J.V.G.h.L.g.V b.                                          ",
"                                      0.q.J.J.M.M.H.0.W ;.t.                                        ",
"                                6 [ {.D.q.e.A.J.J.M.5.m.~.(.' 2                                     ",
"                            I.^ 7 A [.).P.B.V.l.l.z.B.U.W.D.L t ^ J.                                ",
"                        +XOXU.i.6 6 >.i./.G.V.J.J.G.G.N.%XW.6 6 y.I.U.G.                            ",
"                      U.OXJ.G.M.A u F ~.XXr.D.w.e.C.}.v.U.K u 8 d.J.I.z.2.                          ",
"                      P.K.J.w.z.A t y ] Z.L.#XM.@Xb.).(.y.t t 4 7.h.H.H.8.                          ",
"                    U.I.P.P.w.3.4 7 u 1 / P.(.P.).M.I._ 5 u 7 3 4.H.I.I.G.<.                        ",
"                    U.P.I.H.7.v < 7 t 2 , _ J.J.k.J.y., 6 7 t < n G.P.I.I.9.                        ",
"                  Y.P.I.K.B.m s 1 7 7 7 1 H P.j.8.P.G < 7 t 7 1 c f.I.I.P.f.k                       ",
"                  Y.P.I.H.7.h   2 y 7 t 7 3 8.l g e.3 7 7 t t 7   7.B.I.J.8.k                       ",
"                  U.B.f.3.k h   > i t t 2 , h m m k % 7 t t i <     2.3.2.2.h                       ",
"                  Y.H.2.m       : 7 y 7 2 . z.1.2.V.% 6 2 u 7 :       ,.m k d                       ",
"                  G.5.,.g         < 7 < 5 X 5.<.2.<.* < < 7 <         e.L.M.m                       ",
"                  XX.X'.c.        O : , 3 <.1.<.2.8.N X o : O         W.'.#X.X_.                    ",
"                 X$X X`.!.          K ` R E V V V V C b p X           Q.`. X$X X                    ",
"                  $X.X`.          E.n.u.u.a.` _ ^ ^ U x p D p         R.]..X$X                      ",
"                  .X'.!.          u.` _ R ^ _ ) I c c I y._ c p         Q.'.%X    ..                ",
"                  |.'.R.        C P ) a.s.S S F S F U U _ ^ p s l       S.J.l.~ | } 0               ",
"                  /.L.M.        l.k.E U _ ^.) S S I U ` a.I T l.z.      U.P.I.q.= +                 ",
"              D.Z.A.v.y.!     Y.I.I.k.V I u.s.s.u.a.a.u.I a l.I.I.Y.    P.I.P.8.                    ",
"              v.y.i.          Y.I.P.j.<.g v I u.u.U ^ v j 2.z.Y.Y.U.  } J w.2.                      ",
"                y.d.        Y.Y.P.K.9.<.f g   I Y S   f f <.w.K.F.;.&.w = ,.                        ",
"                            OXI.I.h.2.m d               j V ~ ;.&.X.+.;                             ",
"                            OXP.J.8.<.k                 J #.O.o.+.{ ; #                             ",
"                            +XP.f.2.m h               *.X.X.X. .} ; #                               ",
"                            I.J.7.M h             *.X.+.X.X.| ; ; $ L                               ",
"                            K.B.3.,.l           @.X.X.X.X.X.} ; ; = p.                              ",
"                            9.w.3.2.,.k         @.X.X.X.X.X.q ; # = t.                              ",
"                            G.G.H.9.M k       -.+.X.X.X.X.{ ; ; $ W H.                              ",
"                              U.P.g.M h       o.X.X.o.O. .q ; $ & L.                                ",
"                              Y.I.z.m         e @.-.:.{ 0 ; ; = x.U.                                ",
"                              Y.I.B.M         0 }  .} ; ; ; = ( L.Y.                                ",
"                              OXU.G.,.          # ; 0 ; # @ n H.U.                                  ",
"                                U.K.5.                # @ z 8.I.Y.                                  ",
"                                I.I.f.                    k z.U.U.                                  ",
"                                K.I.g.m                   h z.I.J.                                  ",
"                            G.P.J.B.2.N                   k 7.B.K.P.G.                              ",
"                          g.z.f.w.g.K.5.                  ,.K.f.w.f.z.g.                            ",
"                          9.7.2.2.2.,.                      B 2.2.2.7.9.                            ",
"                                                                                                    "
};
