/* XPM */
static char *_9bfd05c296b44b99ced4c96a3bec027kSV1QAZ8uQUubA4D[] = {
/* columns rows colors chars-per-pixel */
"50 50 171 2 ",
"   c None",
".  c #04070E",
"X  c #05080F",
"o  c #0C0C13",
"O  c #060910",
"+  c #0E1116",
"@  c #171A1D",
"#  c #3A0E19",
"$  c #290E17",
"%  c #271F23",
"&  c #222527",
"*  c #292B2D",
"=  c #36332E",
"-  c #3A332D",
";  c #383530",
":  c #383A39",
">  c #530F1C",
",  c #6F2A1D",
"<  c #752A1D",
"1  c #743F1F",
"2  c #691221",
"3  c #791726",
"4  c #4F2F27",
"5  c #582828",
"6  c #43342B",
"7  c #493429",
"8  c #4F3828",
"9  c #533927",
"0  c #5C3B26",
"q  c #513228",
"w  c #632D23",
"e  c #682C21",
"r  c #623C23",
"t  c #6C3E21",
"y  c #683422",
"u  c #3E413F",
"i  c #75401F",
"p  c #764620",
"a  c #744138",
"s  c #555852",
"d  c #5E605A",
"f  c #63645D",
"g  c #6D6E65",
"h  c #7A7B70",
"j  c #84281A",
"k  c #882719",
"l  c #962414",
"z  c #8D321B",
"x  c #9E0D38",
"c  c #9C1729",
"v  c #AE192C",
"b  c #BC172F",
"n  c #B5192D",
"m  c #A40F37",
"M  c #A20E38",
"N  c #AB1137",
"B  c #B21236",
"V  c #BD1632",
"C  c #BF1B3B",
"Z  c #B5173A",
"A  c #B72437",
"S  c #C3192C",
"D  c #C81A2E",
"F  c #C11635",
"G  c #C71A34",
"H  c #CD1B34",
"J  c #D51C33",
"K  c #D91E35",
"L  c #C7222C",
"P  c #D0392B",
"I  c #C6243B",
"U  c #DC2037",
"Y  c #D4233A",
"T  c #DD233A",
"R  c #D52A3F",
"E  c #D22037",
"W  c #E4253C",
"Q  c #E9273E",
"!  c #E8283F",
"~  c #E73A39",
"^  c #8D4519",
"/  c #87451B",
"(  c #9C4A16",
")  c #924618",
"_  c #B74D0F",
"`  c #A64B14",
"'  c #9C621E",
"]  c #BE6A15",
"[  c #C8590E",
"{  c #DF5E07",
"}  c #D67211",
"|  c #F27207",
" . c #D74C2B",
".. c #D3412C",
"X. c #D82B42",
"o. c #CB3647",
"O. c #D63544",
"+. c #E32D43",
"@. c #EC2C43",
"#. c #E6374B",
"$. c #E83E51",
"%. c #BC6C6B",
"&. c #DB5B4D",
"*. c #D34452",
"=. c #D94552",
"-. c #D7595D",
";. c #E84D5B",
":. c #EA4154",
">. c #E7525E",
",. c #C67A4D",
"<. c #E36241",
"1. c #E55B64",
"2. c #D76062",
"3. c #D57778",
"4. c #CC6765",
"5. c #E86E73",
"6. c #E67B7A",
"7. c #E5656B",
"8. c #AA942E",
"9. c #F69211",
"0. c #EFA418",
"q. c #FBBB1B",
"w. c #FAB41A",
"e. c #C99A31",
"r. c #F08F28",
"t. c #CFBE3C",
"y. c #FCAB28",
"u. c #FEAE26",
"i. c #FCB225",
"p. c #FCBC23",
"a. c #D3C916",
"s. c #E8D71B",
"d. c #F7C921",
"f. c #FED423",
"g. c #FEDD25",
"h. c #E1CC38",
"j. c #FFE527",
"k. c #858679",
"l. c #DC807A",
"z. c #EBD577",
"x. c #BD7B8C",
"c. c #8E8E80",
"v. c #9C9D8D",
"b. c #A6A695",
"n. c #BBAF9B",
"m. c #BBBBA6",
"M. c #DE8883",
"N. c #EF8886",
"B. c #E3948B",
"V. c #E49E92",
"C. c #CEA695",
"Z. c #EDAD8F",
"A. c #E8AB9A",
"S. c #F2AEA3",
"D. c #EBBAAA",
"F. c #EBCF86",
"G. c #EED298",
"H. c #CECEB6",
"J. c #D9D9BF",
"K. c #F1C4AB",
"L. c #ECC9B3",
"P. c #ECD6BD",
"I. c #F1DDB5",
"U. c #B3BAC6",
"Y. c #EDDEC2",
"T. c #E9E4C7",
"R. c #F0EECF",
"E. c #EEEED1",
"W. c #F3EFD1",
"Q. c #F5F3D5",
"!. c #F8F7D9",
/* pixels */
"                                                                                                    ",
"                                                                                                    ",
"                                                              < , l                                 ",
"                                                            e - = <                                 ",
"                                                          z - = - e                                 ",
"                                                      4 7 q = = - - 7 j                             ",
"                                                      - = = = = - - = e                             ",
"                                                    j 4 = = = = = - 6                               ",
"                                                  w - = - = = = = = - 5 k                           ",
"                                                < = = ; 7 - = 6 - = = = 7 l                         ",
"                                                y = = = = = = 6 0 = = - 4 l                         ",
"                                                6 = = = = = = = = = = 6 j                           ",
"                                              ; = = = = - = = = = = = = - w                         ",
"                                            = = = 7 7 = r = = = - p - = = = -                       ",
"                                          ; = = = 8 t t / = = = - 6 = = = = =                       ",
"                                          = 6 6 = = - _ / = = = = = = = = = = ;                     ",
"                                          = 7 9 ; ; 8 { ^ = = = = = = = = = =                       ",
"                                          = = = 8 i i 9.^ = i = = = = = = = ;                       ",
"                                          ; ; ; 8 [ ] q.) 9 r = = = 0 - = ;                         ",
"                                            r ` ^ 0.q.f.` 0 = = = ; ; ;                             ",
"                                              } 9.q.g.j.| ( - = = ;                                 ",
"                                              ' q.j.j.j.j.[ ( r ;                                   ",
"                                                d.j.j.j.j.d.^ -                                     ",
"                                              i.q.j.j.j.f.                                          ",
"                                              y.i.g.j.f.i.                                          ",
"                                               .r.i.p.i.y.                                          ",
"                                              S L P  . ...                                          ",
"                                      x x x M b S S S S                                             ",
"                                  x x x m B N V S S S G W @.                                        ",
"                              x x x B H J J J V V S b H J K @.                                      ",
"                            M x N J J J o.#.W K H G J K K K K Q                                     ",
"                            x N J J H 3.!.Z.W Q K K Q +.@.H J J Q                                   ",
"                          x m J J J I Q.I.s.<.W W ! ! ~ K.3.J J U @.                                ",
"                          M V J J J *.!.F.a.a Y +.@.I e.z.D.G J J T                                 ",
"                        x N J J J K E S.I.h.8.&.W +.,.t.G.1.D J J K                                 ",
"                        x F J J J J H X.N.L.A.=.U J *.M.1.J J J J J W                               ",
"                        M G J J J J J J J X.H J E J J J J J J J J J W                               ",
"                      x N J J J J J J J J J J J J J J J J J J J J J T                               ",
"                      M N J J K J J J O.-.O.J J J J J J J J D J J J W                               ",
"                        N J J J J J 4.T.!.!.L.l.2.3.B.D.L.I.C.v J J W                               ",
"                        N J J J G > % b.Q.!.!.!.!.!.!.!.!.!.g c J J W                               ",
"                        M H J J 2 . . . & h m.E.!.!.!.!.!.b.# J J J                                 ",
"                        x F J G $ . . . X X X + : s s s * o n J R X.                                ",
"                          N J A % g h : X X . . X o . . . 3 J K x.U.                                ",
"                            C o.n.!.!.T.c.s @ o X . o & o 3 J J Y                                   ",
"                            Z $.V.W.!.!.Q.E.H.b.c.c.m.J.b.5 T J                                     ",
"                              X.$.5.A.L.P.P.Y.T.E.E.E.Q.Q.%.+.                                      ",
"                                C I @.$.;.;.>.1.7.6.B.B.6.:.                                        ",
"                                    Z G K T T T X.+.W +.$.                                          ",
"                                          G H E Y                                                   "
};
