/* XPM */
static char *_f9d1a078146476aa1d39aef6bf1de6c6uPLIVkEjQAhJmpP[] = {
/* columns rows colors chars-per-pixel */
"50 50 194 2 ",
"   c None",
".  c #FBA315",
"X  c #FBA515",
"o  c #FBA516",
"O  c #FCA516",
"+  c #FBAA17",
"@  c #FCA918",
"#  c #FCAA18",
"$  c #FCAB18",
"%  c #FCA81A",
"&  c #FDA81A",
"*  c #FCAE19",
"=  c #FDAA1C",
"-  c #FCB319",
";  c #FCB31A",
":  c #FDB01D",
">  c #FDB11E",
",  c #FCB71C",
"<  c #FDB81C",
"1  c #FCBA1C",
"2  c #FEB120",
"3  c #FEB121",
"4  c #FEB322",
"5  c #FFB625",
"6  c #FFB725",
"7  c #FFB726",
"8  c #FFBA24",
"9  c #FFB826",
"0  c #FFB927",
"q  c #FEBC2D",
"w  c #FEBC2E",
"e  c #FDC11E",
"r  c #FDC31F",
"t  c #FEC321",
"y  c #FEC421",
"u  c #FDC720",
"i  c #FDC721",
"p  c #FDC821",
"a  c #FED124",
"s  c #FED224",
"d  c #FED425",
"f  c #FED525",
"g  c #FED526",
"h  c #FED527",
"j  c #FED627",
"k  c #FED628",
"l  c #FED629",
"z  c #FED729",
"x  c #FED62A",
"c  c #FED62B",
"v  c #FED72B",
"b  c #FED62C",
"n  c #FED72C",
"m  c #FED72D",
"M  c #FED72E",
"N  c #FED72F",
"B  c #FED82D",
"V  c #FFC030",
"C  c #FFC031",
"Z  c #FFC534",
"A  c #FFC835",
"S  c #FFCB35",
"D  c #FEC936",
"F  c #FFC936",
"G  c #FEC937",
"H  c #FECB37",
"J  c #FEC73B",
"K  c #FFC73D",
"L  c #FFC73F",
"P  c #FECA3A",
"I  c #FFCA3B",
"U  c #FFCD3A",
"Y  c #FECE3B",
"T  c #FECC3C",
"R  c #FECD3C",
"E  c #FED730",
"W  c #FED536",
"Q  c #FED636",
"!  c #FED833",
"~  c #FED834",
"^  c #FED934",
"/  c #FEDB35",
"(  c #FED836",
")  c #FED837",
"_  c #FEDA37",
"`  c #FED33F",
"'  c #FED63E",
"]  c #FED63F",
"[  c #FED938",
"{  c #FED939",
"}  c #FEDA38",
"|  c #FED93A",
" . c #FEDA3A",
".. c #FEDB3B",
"X. c #FEDC38",
"o. c #FEDC3A",
"O. c #FEDC3B",
"+. c #FED83D",
"@. c #FED83E",
"#. c #FEDC3C",
"$. c #FEDD3C",
"%. c #FEDD3E",
"&. c #FFC741",
"*. c #FED441",
"=. c #FED741",
"-. c #FDD941",
";. c #FED842",
":. c #FEDE41",
">. c #FCD944",
",. c #FDDB47",
"<. c #FFDF45",
"1. c #FEDD47",
"2. c #FBDA4B",
"3. c #FEDE49",
"4. c #FCDC4C",
"5. c #FEDF4D",
"6. c #FBDB51",
"7. c #FADA53",
"8. c #FEDF52",
"9. c #F9DA55",
"0. c #F9DB57",
"q. c #FBDD57",
"w. c #FFDC56",
"e. c #FBDC5A",
"r. c #FFDD58",
"t. c #FBDD5D",
"y. c #FEE045",
"u. c #FFE046",
"i. c #FEE147",
"p. c #FEE149",
"a. c #FFE149",
"s. c #FEE24C",
"d. c #FFE34F",
"f. c #FFE350",
"g. c #FFE452",
"h. c #FDE057",
"j. c #FFE45B",
"k. c #FEE15F",
"l. c #FFE45C",
"z. c #FEE65E",
"x. c #FFE85E",
"c. c #FFE95F",
"v. c #FADF69",
"b. c #FBE060",
"n. c #FCE263",
"m. c #FFE562",
"M. c #FCE366",
"N. c #FFE664",
"B. c #FEE765",
"V. c #FEE667",
"C. c #FEE767",
"Z. c #FFE860",
"A. c #FFE960",
"S. c #FFE861",
"D. c #FFE961",
"F. c #FFE962",
"G. c #FFE863",
"H. c #FFE965",
"J. c #FFEA67",
"K. c #F9E06A",
"L. c #FCE26A",
"P. c #FBE469",
"I. c #FDE669",
"U. c #FBE36E",
"Y. c #FAE26F",
"T. c #FCE46D",
"R. c #FDE56E",
"E. c #FDE46F",
"W. c #FEE968",
"Q. c #FEE96E",
"!. c #F8E070",
"~. c #F9E170",
"^. c #FCE471",
"/. c #FFEC72",
"(. c #FEEA75",
"). c #FCE77D",
"_. c #FBE87B",
"`. c #FCEA7B",
"'. c #F9E681",
"]. c #FBE681",
"[. c #FAE781",
"{. c #FAE684",
"}. c #FAE886",
"|. c #FBE987",
" X c #FBEA87",
".X c #F9E888",
"XX c #FBE98B",
"oX c #FBE98C",
"OX c #FBEA8F",
"+X c #FCED8E",
"@X c #FBEC93",
"#X c #F8EA9B",
"$X c #F9EB9C",
"%X c #FBEF9C",
/* pixels */
"                                                                                                    ",
"                                                                                                    ",
"                                                                                                    ",
"                                                                                                    ",
"                                                                                                    ",
"                                                                                                    ",
"                                                                                                    ",
"                                                                                                    ",
"                                              }.].]..X                                              ",
"                                      %XR.3.^ z z z m } 5.M.oX                                      ",
"                                  +X/.p.f f f f f f f f f f z 3.).                                  ",
"                              oXW.A.p.f f f f f f f f f f f f f f 8.%X                              ",
"                            ^.g.A.p.f f f f f f f f f f f f f f f y.W.XX                            ",
"                          k.d.A.y.f f f s r - + + + * < p f s z y.c.O.z .X                          ",
"                        L.d.A.y.f f s 1 . & > 6 5 9 5 9 3 > y <.c.%.f d.A.@X                        ",
"                      ].f.A.y.f f y X = 5 9 5 6 9 5 9 5 9 5 5 w W f d.A.A.H.$X                      ",
"                      z.A.y.f f r X 3 9 6 6 6 6 6 6 6 6 6 6 6 6 6 -.c.A.A.A.(.                      ",
"                    `.A.p.f f p X 3 5 9 6 6 6 6 6 6 6 6 6 6 6 6 5 V j.A.A.A.A.}.                    ",
"                    H.y.f f s X > 6 9 5 6 6 6 6 6 6 6 6 6 6 6 6 9 6 L A.A.A.A.Q.                    ",
"                  _.p.f f f 1 & 5 9 5 9 6 6 6 6 6 6 6 6 6 6 6 6 5 9 5 q.A.A.c.O.}.                  ",
"                  h.f f f s . 5 9 5 6 6 6 6 6 6 6 6 6 6 6 6 6 6 6 6 6 L A.c.^ f q.                  ",
"                  ^ f f f r & 5 5 9 6 6 6 6 6 6 6 6 6 6 6 6 6 6 9 5 6 9 N.O.f f <.                  ",
"                  z f f f - > 6 9 6 6 6 6 6 6 6 6 6 6 6 6 6 6 6 5 9 5 9 =.s f f )                   ",
"                t.f f f f + 9 6 6 6 6 6 6 6 6 6 6 6 6 6 6 6 6 6 9 5 9 5 S f f f m                   ",
"                9.f f f f + 6 6 6 6 6 6 6 6 6 6 6 6 6 6 6 6 6 6 6 6 6 6 S f f f z                   ",
"                7.f f f f & 6 6 6 6 6 6 6 6 6 6 6 6 6 6 6 6 6 6 6 6 6 6 S f f f m                   ",
"                e.f f f f * 9 6 6 6 6 6 6 6 6 6 6 6 6 6 6 6 6 6 6 6 9 5 U f f f E                   ",
"                  z f f f , 6 6 6 6 6 6 6 6 6 6 6 6 6 6 6 6 6 6 6 6 6 9 =.s f f }                   ",
"                  ^ f f f r 3 9 6 6 6 6 6 6 6 6 6 6 6 6 6 6 6 6 9 5 9 9 } f f f 4.                  ",
"                  >.f f f s > 5 6 6 6 6 6 6 6 6 6 6 6 6 6 6 6 6 5 9 6 P z f f %.L.                  ",
"                  e.f f f f r 5 6 6 6 6 6 6 6 6 6 6 6 6 6 6 6 6 9 5 9 @.f f <.c.                    ",
"                    ^ f f f <.q 6 6 6 6 6 6 6 6 6 6 6 6 6 6 6 6 5 9 T B f %.c.I.                    ",
"                    7.f f p.c.W 9 9 6 6 6 6 6 6 6 6 6 6 5 9 5 6 6 Z ^ f %.c.A.!.                    ",
"                      } y.c.O.z =.V 6 6 6 6 6 6 6 6 6 6 9 5 9 6 Z } f <.A.A.I.                      ",
"                      K.A.} f d.A.j.J 5 6 5 9 6 6 6 6 6 5 9 9 T ^ f } A.A.H.                        ",
"                        v.z p.c.A.A.A.w.K 9 5 9 6 6 6 6 0 P @.m f %.c.A.A.!.                        ",
"                          n.A.A.A.A.A.A.A.N.*.S A S U ' } z f f <.c.A.A.^.                          ",
"                            U.A.A.A.A.A.A.^ f f f f f f f f f %.c.c.A.!.                            ",
"                              !.W.A.A.c.^ f f f f f f f f f <.A.c.I.                                ",
"                                  T.N.O.f f f f f f f f f %.z.N.U.                                  ",
"                                      v.2.-.^ E z m m } 5.P.                                        ",
"                                                                                                    ",
"                                                                                                    ",
"                                                                                                    ",
"                                                                                                    ",
"                                                                                                    ",
"                                                                                                    ",
"                                                                                                    ",
"                                                                                                    ",
"                                                                                                    "
};
