/* XPM */
static char *_f3aca46331b4392adee3d7159f6e3674aej6xVGnlTYJlcT[] = {
/* columns rows colors chars-per-pixel */
"50 50 27 1 ",
"  c None",
". c #BA4201",
"X c #BC4201",
"o c #C75002",
"O c #C95002",
"+ c #D96203",
"@ c #DB6302",
"# c #DB6F04",
"$ c #DD7003",
"% c #DF7003",
"& c #DF7204",
"* c #DE7206",
"= c #DE7406",
"- c #DF7606",
"; c #E07A08",
": c #E28207",
"> c #E68905",
", c #E48807",
"< c #E68C06",
"1 c #EB9E07",
"2 c #E7920B",
"3 c #E99F09",
"4 c #EBA007",
"5 c #EBA10B",
"6 c #EBA30C",
"7 c #EBA40D",
"8 c #ECA80F",
/* pixels */
"                                                  ",
"                                                  ",
"                                                  ",
"                                                  ",
"                                                  ",
"                                                  ",
"                                                  ",
"                                                  ",
"                                                  ",
"                       &&&;:                      ",
"                       @@@@=                      ",
"                       @@@@=                      ",
"                       @@@@&                      ",
"                       44158                      ",
"                       %%%%;                      ",
"                       <<<<2                      ",
"                       44447                      ",
"                       44445                      ",
"                       44445                      ",
"                       44445                      ",
"                       44153                      ",
"                       >>>>,                      ",
"                       @@@@+                      ",
"                       @@@@@                      ",
"                       @@@@+                      ",
"                       @@@@+                      ",
"                       @@@@+                      ",
"                       @@@@@                      ",
"                       @@@@+                      ",
"                       @@@@+                      ",
"                       @@@@+                      ",
"                       @@@@@                      ",
"                       @@@@@                      ",
"                       @@@@+                      ",
"                       Ooooo                      ",
"                       XXXX.                      ",
"                       XXXX.                      ",
"                       XXXX.                      ",
"                       XXXX.                      ",
"                       XXXXX                      ",
"                       %##&#                      ",
"                       1111                       ",
"                                                  ",
"                                                  ",
"                                                  ",
"                                                  ",
"                                                  ",
"                                                  ",
"                                                  ",
"                                                  "
};
