/* XPM */
static char *d4d9243a6d834e68d28f8c8f0ae405ccQbCgyTAvWgiJQHyI[] = {
/* columns rows colors chars-per-pixel */
"50 50 127 2 ",
"   c None",
".  c #BB4201",
"X  c #BF4A07",
"o  c #CA5202",
"O  c #C65D15",
"+  c #D76304",
"@  c #DB6302",
"#  c #DE6F03",
"$  c #DE6D0B",
"%  c #DF7204",
"&  c #DF710F",
"*  c #CB651A",
"=  c #D16815",
"-  c #E07411",
";  c #E17B1A",
":  c #E18006",
">  c #E79206",
",  c #E89406",
"<  c #E79708",
"1  c #E99E09",
"2  c #E3811D",
"3  c #FB9F13",
"4  c #EBA007",
"5  c #EBA10A",
"6  c #FBA316",
"7  c #FBAB17",
"8  c #FCA618",
"9  c #FDAB1C",
"0  c #FCB41B",
"q  c #FDBB1C",
"w  c #DB933C",
"e  c #E28124",
"r  c #E8972F",
"t  c #E18E38",
"y  c #EB9E35",
"u  c #E8973F",
"i  c #E0993F",
"p  c #EFAF26",
"a  c #FCAC21",
"s  c #EFB027",
"d  c #FFB725",
"f  c #FFBA25",
"g  c #FDB72A",
"h  c #FFBC2B",
"j  c #F1B23B",
"k  c #F4BB3D",
"l  c #FDC41F",
"z  c #FDC621",
"x  c #FEC821",
"c  c #FDCB28",
"v  c #FED525",
"b  c #FED62A",
"n  c #FED82E",
"m  c #FFC433",
"M  c #FECA36",
"N  c #F7C43E",
"B  c #FCC43C",
"V  c #FDCA3C",
"C  c #FED532",
"Z  c #FED933",
"A  c #FED33E",
"S  c #FEDC3C",
"D  c #EA9D41",
"F  c #EDA745",
"G  c #EFAD41",
"H  c #F1B445",
"J  c #F5BF41",
"K  c #ECBD6F",
"L  c #FDC741",
"P  c #FFCD45",
"I  c #F5C44C",
"U  c #FFD144",
"Y  c #FEDD43",
"T  c #FDDC4A",
"R  c #F6C856",
"E  c #F3CC5F",
"W  c #FED052",
"Q  c #FEDC55",
"!  c #FAD35E",
"~  c #FBDB5C",
"^  c #FEE046",
"/  c #FEE24C",
"(  c #FFE553",
")  c #FFE65B",
"_  c #FFE85D",
"`  c #FFE95F",
"'  c #F6CC60",
"]  c #F9D563",
"[  c #F4D864",
"{  c #FCDE62",
"}  c #FADD65",
"|  c #FCDC69",
" . c #F9DE68",
".. c #F6CD71",
"X. c #FBE061",
"o. c #FFE762",
"O. c #FFE763",
"+. c #FEE365",
"@. c #FDE666",
"#. c #FEE766",
"$. c #FFE960",
"%. c #FFE961",
"&. c #FFE965",
"*. c #FEE867",
"=. c #FFE961",
"-. c #FEE768",
";. c #FDE56A",
":. c #FEE76D",
">. c #FCE46C",
",. c #FAE375",
"<. c #FEE774",
"1. c #FAE271",
"2. c #FEE871",
"3. c #FDE973",
"4. c #FEEB74",
"5. c #FEEB75",
"6. c #FBE57D",
"7. c #FBE77C",
"8. c #FCE67F",
"9. c #F5DA82",
"0. c #FAE584",
"q. c #FAE883",
"w. c #FAE789",
"e. c #FBEA8F",
"r. c #FDED93",
"t. c #F9EA9E",
"y. c #FAEDA2",
/* pixels */
"                                                                                                    ",
"                                                                                                    ",
"                                                                                                    ",
"                                                                                                    ",
"                                                                                                    ",
"                                                                                                    ",
"                                                                                                    ",
"                                                                                                    ",
"                                                                                                    ",
"                                          y.w.0.9.K t + + +                                         ",
"                                      r.4.S v v v Z +...e @ @ +                                     ",
"                                  e.4.` ^ v v v v v v Z | u @ @ @                                   ",
"                                8.) $.( v v v v v v v v b Q D % % % :                               ",
"                              6./ $.( b v v v v v v v v v b 2.j , , ,                               ",
"                            t./ _ ` Z v v v v v v v v v v / / ! ; @ @ @                             ",
"                            Q ) $.S v v l 0 0 0 f x v v Y ( b S E , < , <                           ",
"                          ,.( $./ v v 0 6 a d d d d f C ` n b ( 2.s 4 4 4                           ",
"                          -.$./ v v 7 6 d f d d d d d h C b ( $.$.] 5 4 4 1                         ",
"                        q.$.` n v 0 6 d d f d d d d d d d Y ` $.$.-.s 4 4 5                         ",
"                        4.$.Z v x 3 d d d d d d d d d d d m $.$.` &.I 1 4 4 1                       ",
"                        &.S v v 7 8 d d d d d d d d d d d f Q $.$.$.~ 1 4 4 1                       ",
"                      6.T v v l 3 d d d d d d d d d d d d d V $.$.$.:.5 4 4 4                       ",
"                      X.b v v 0 8 d d d d d d d d d d d d d f #.$.$.( r % % %                       ",
"                      T v v v 6 9 d d d d d d d d d d d d d d Q $.( n F @ + @ +                     ",
"                      S v v v 3 g d f d d d d d d d d d d f d P _ n v j + @ @ @                     ",
"                      Z v v x 6 d d d d d d d d f d d d d d d B S v v I @ @ @ +                     ",
"                      n v v q 8 d d d d d d d d d d d d d d d h Z v v N @ @ @ @                     ",
"                      b v v q 8 d d d d d d f d d d d d d f d h Z v v V @ @ @ @                     ",
"                      b v v q 9 d d d d d d d d d d d d d d d h Z v v B @ @ @ @                     ",
"                      b v v q 8 d d d d d d d d d d d d d d f h Z v v B @ @ @ @                     ",
"                      n v v f 8 d d d d g d d d d d d d d d d h Z v v B @ @ @ @                     ",
"                      Z v v z 6 d d d d d d d d d f d d d d f m Z v v k @ @ @ +                     ",
"                      S v v v 6 d d d d d d d d d d d d d d d M b v v j @ @ @ @                     ",
"                      T v b ( a d d d d d d d d d d d d d d d U v v Z y @ @ @ +                     ",
"                      T v T ( 0 9 d d d d d d d d d d d d d f S v b ) 2 @ @ @                       ",
"                      ~ ^ ( n c 8 d d d d d d d d d d d f d V b b ( { @ @ @ @                       ",
"                        _ Z b ( g a d d d d d d d d d d d f Y v ^ ` I @ @ @ +                       ",
"                        T b T ` Q 9 d d d d d d d d f d d V n S ) o.y @ @ @ +                       ",
"                        ~ Y ` ` $.L 9 d d d d d d d d d m Y Z _ ` ~ - @ @ +                         ",
"                          #.` ` $.o.B d d d d d d d d h T n ( $.$.H @ @ @ @                         ",
"                          >.$.$.$.$.&.W d d d d f d V Y b / $.$.{ & @ @ @                           ",
"                            -.$.$.$.$./ C U V V U T S v ^ $.$.#.G @ @ @ +                           ",
"                              -.$.$./ b v v b Z b v v S ` ` $.R $ @ @ @                             ",
"                              1.$.) n v v v v v v v n ) $.$.} = o o o                               ",
"                                1.S v v v v v v v b ( $.$.} * . o .                                 ",
"                                  >.T v v v v v v / $.$.E * . . .                                   ",
"                                      } T n b b T *.| w X . . .                                     ",
"                                            } [ E w O .                                             ",
"                                                                                                    ",
"                                                                                                    "
};
