/* XPM */
static char *_d05d98e42eb4287fa0405096109b274aXYVuQdK4ArcmVH6[] = {
/* columns rows colors chars-per-pixel */
"50 50 95 2 ",
"   c None",
".  c #BB4202",
"X  c #C44D04",
"o  c #C14F0A",
"O  c #C3530E",
"+  c #D76304",
"@  c #DB6302",
"#  c #DC6A03",
"$  c #DE6E0D",
"%  c #D06B1A",
"&  c #DF7312",
"*  c #E07613",
"=  c #E17916",
"-  c #E0781A",
";  c #E68C06",
":  c #EA9B07",
">  c #E79D0A",
",  c #E99E09",
"<  c #E9971E",
"1  c #FA9E12",
"2  c #EBA007",
"3  c #ECA10A",
"4  c #EEAA1F",
"5  c #FBA315",
"6  c #FCA917",
"7  c #FCA618",
"8  c #FDAB1B",
"9  c #FDB41C",
"0  c #FDBC1D",
"q  c #DA8A34",
"w  c #E58925",
"e  c #E8932D",
"r  c #EA9A32",
"t  c #FFB725",
"y  c #FFB826",
"u  c #FFBC2D",
"i  c #EFB031",
"p  c #FDBD30",
"a  c #FDC21F",
"s  c #FDC521",
"d  c #FECD23",
"f  c #FED525",
"g  c #FED62A",
"h  c #FED82D",
"j  c #FFC233",
"k  c #FFCB3C",
"l  c #FED732",
"z  c #FEDA35",
"x  c #FED43B",
"c  c #FEDB3D",
"v  c #ECA541",
"b  c #F3BF45",
"n  c #F4BE4B",
"m  c #EDAA54",
"M  c #ECB851",
"N  c #F3C046",
"B  c #FFCD41",
"V  c #FFCF4F",
"C  c #FFD343",
"Z  c #FEDC43",
"A  c #FAD04F",
"S  c #FEDC4C",
"D  c #F5C254",
"F  c #F6C857",
"G  c #F0C158",
"H  c #FAD355",
"J  c #FEDC52",
"K  c #F9D25C",
"L  c #FDDE5D",
"P  c #FEE24B",
"I  c #FFE454",
"U  c #FFE55B",
"Y  c #FFE85D",
"T  c #F6CC6A",
"R  c #FAD763",
"E  c #FBDD65",
"W  c #FBDF69",
"Q  c #F8D375",
"!  c #F6DE70",
"~  c #FADD72",
"^  c #FEE464",
"/  c #FFE961",
"(  c #FCE36B",
")  c #FFE969",
"_  c #FAE272",
"`  c #FEE975",
"'  c #FDE57B",
"]  c #FFEC7A",
"[  c #F7E281",
"{  c #FAE78C",
"}  c #FCEB8F",
"|  c #F7E793",
" . c #FAEA94",
".. c #FBED9F",
"X. c #F9EBA1",
/* pixels */
"                                                                                                    ",
"                                                                                                    ",
"                                                                                                    ",
"                                                                                                    ",
"                                                                                                    ",
"                                                                                                    ",
"                                                                                                    ",
"                                        ..} ` I S J U ( T m & @ +                                   ",
"                                     .] / P f f f f f f f c ` m $ @ @                               ",
"                                X.) Y Y I g f f f f f f f f f c Q - @ @                             ",
"                              } Z Y / I f f f f f f f f f f f f g ' i : :                           ",
"                            } Z Y / P g f f f f f f f f f f f f P U ( w # #                         ",
"                          { Z Y Y P f f f d a 9 8 9 0 s f f f P I h g ~ < ; ;                       ",
"                          I Y / P g f f 8 5 5 7 8 8 8 7 6 s P I h f S / ~ 3 2 3                     ",
"                        ` Y / P f f a 1 5 8 t t t t t t y 8 p h f P Y / ) b 2 2 ,                   ",
"                       .^ / P f f 0 1 8 t t t t t y t t t t t 9 P / / / / _ 2 2 ,                   ",
"                      ` Y P g f s 1 8 y t y t t t t t t t t t t B ^ Y / / ) b , , ,                 ",
"                    | ) P f f d 6 8 t t t t t t t t t t t t t t y J / / / Y W 3 2 2                 ",
"                    ' P f f f 0 5 t t t t t t t t t t y t t t t t p U / / / ) 4 , :                 ",
"                    I f f f f 1 8 y t t t t t t t t t t t t t t t y U / / Y P v # # #               ",
"                    l f f f s 5 t y t t t t t t t t y t t t t t t t B Y Y Z f G @ @ @               ",
"                  [ f f f f 9 8 t t t y t t t y t t t t t t y t t t u ) P f f H @ @ @               ",
"                  _ f f f f 6 9 t t t t t t t t t t t t t t t t t t t S f f f J @ @ @               ",
"                  E f f f f 1 t t t t t t t t t t t t t t t t t t t t l f f f Z & @ @               ",
"                  E f f f f 6 t t t t t t t t y t t t t t t t y t t t x f f f c * @ @               ",
"                  L f f f a 6 t t t t t t t t t t t t t t t t t t t t C f f f c & @ @               ",
"                  L f f f f 6 t t t t t t t t t t t t t t t t t t t t c f f f Z $ @ @               ",
"                  E f f f f 9 t t t t t t t t t t y t t t t t t t t t c f f f S @ @ @               ",
"                  ! g f f f 9 t t t t t t t t t t y t t t t t y t t u z f f f V @ @ @               ",
"                    l f f h C t y t t t t t t t t t t t t t t t t t k g f f g n @ @ @               ",
"                    Z f h U P 9 t t t t t t t t t t t t t t t t t t Z f f g I r @ @ @               ",
"                    L h I P f a t t t t t t t t t t t t t t t t t j c f f I ^ * @ @                 ",
"                      U P f h I u t t t t t t t t t t t y t t t y Z g g I Y F @ @ @                 ",
"                      U f h I ^ J u t t t t t t t t t t t t t t x z g I Y ) e @ @ +                 ",
"                      ~ z Y / / / S y y t t y t t t y t t t t k Z h I / Y K @ @ @                   ",
"                        ) / / Y / Y L u t t t t t t t t y y k Z g I Y / ) e @ @ +                   ",
"                          ^ / Y / Y / ^ V t y y t t y t j S z g I Y / / D # @ @                     ",
"                          _ ) / / / / Y c l x k k B C Z c g h I / / Y R & @ @                       ",
"                            ( / / / U z f f f f f f f f f g Y / / / E = @ @                         ",
"                              _ / Y h f f f f f f f f f h I Y Y / R % X X                           ",
"                                _ J f f f f f f f f f h Y Y Y ) G O . .                             ",
"                                    E Z f f f f f f h I Y ) W q o . .                               ",
"                                        E J S Z c Z U W M q o . .                                   ",
"                                                                                                    ",
"                                                                                                    ",
"                                                                                                    ",
"                                                                                                    ",
"                                                                                                    ",
"                                                                                                    ",
"                                                                                                    "
};
