/* XPM */
static char *result[] = {
/* columns rows colors chars-per-pixel */
"50 50 183 2 ",
"   c #33221D",
".  c #720303",
"X  c #7C0707",
"o  c #7E1B0F",
"O  c #7C110F",
"+  c #4C371E",
"@  c #59351C",
"#  c #7D2E17",
"$  c #6C3F1C",
"%  c #713D1C",
"&  c #7C391C",
"*  c #4A3227",
"=  c #563522",
"-  c #762B2C",
";  c #6A3C25",
":  c #7E3C2F",
">  c #633535",
",  c #6B411D",
"<  c #5F4637",
"1  c #664526",
"2  c #754B23",
"3  c #794E25",
"4  c #724720",
"5  c #7C5126",
"6  c #7E5428",
"7  c #72542E",
"8  c #6A4A32",
"9  c #6B473F",
"0  c #784D31",
"q  c #685038",
"w  c #785436",
"e  c #5F534C",
"r  c #754C4D",
"t  c #605956",
"y  c #696668",
"u  c #6E6F71",
"i  c #6F7072",
"p  c #737476",
"a  c #7A7B7D",
"s  c #860606",
"d  c #8A0707",
"f  c #870708",
"g  c #880708",
"h  c #860909",
"j  c #8C0909",
"k  c #930C0C",
"l  c #9A0E0E",
"z  c #881A12",
"x  c #941413",
"c  c #9D1212",
"v  c #9A1C14",
"b  c #9E1B1A",
"n  c #961C16",
"m  c #A41313",
"M  c #A81414",
"N  c #A41919",
"B  c #AB1C1C",
"V  c #B01F1F",
"C  c #802214",
"Z  c #84221B",
"A  c #962C1B",
"S  c #8B371E",
"D  c #A7231F",
"F  c #A4321A",
"G  c #8A2929",
"H  c #9E2926",
"J  c #99372A",
"K  c #913331",
"L  c #A42522",
"P  c #AB2423",
"I  c #AB2A27",
"U  c #AD2B2A",
"Y  c #A62926",
"T  c #B22525",
"R  c #B52A2A",
"E  c #BA2D2D",
"W  c #AF302F",
"Q  c #A7332B",
"!  c #A93937",
"~  c #B63332",
"^  c #BC3333",
"/  c #BE3B3A",
"(  c #B83C39",
")  c #C13636",
"_  c #C43C3C",
"`  c #C83F3F",
"'  c #824E27",
"]  c #854222",
"[  c #904A28",
"{  c #825429",
"}  c #855B2D",
"|  c #885D2F",
" . c #894936",
".. c #8A5F30",
"X. c #855D37",
"o. c #AF4235",
"O. c #B5443F",
"+. c #BE413F",
"@. c #8C6232",
"#. c #88633F",
"$. c #916635",
"%. c #946837",
"&. c #996E3B",
"*. c #956B38",
"=. c #9D723E",
"-. c #C4403F",
";. c #CB5E36",
":. c #C46A3B",
">. c #C83F40",
",. c #874B4C",
"<. c #9A4445",
"1. c #8D5E41",
"2. c #9C5945",
"3. c #BE4946",
"4. c #BC4D4C",
"5. c #B84542",
"6. c #BD5449",
"7. c #AE5652",
"8. c #A65650",
"9. c #BC5E5B",
"0. c #B85854",
"q. c #916B48",
"w. c #967140",
"e. c #8B645D",
"r. c #A57A43",
"t. c #AB615B",
"y. c #BC635E",
"u. c #8E6769",
"i. c #936E6F",
"p. c #886F71",
"a. c #A76E66",
"s. c #B66C66",
"d. c #B2726B",
"f. c #BF7778",
"g. c #BA7871",
"h. c #C44242",
"j. c #CD4545",
"k. c #C54944",
"l. c #CD4A4A",
"z. c #C74C4A",
"x. c #D14B4B",
"c. c #C4534C",
"v. c #C85C4D",
"b. c #C35552",
"n. c #CC5A57",
"m. c #D55151",
"M. c #D85858",
"N. c #E15E5E",
"B. c #CB645E",
"V. c #CA6662",
"C. c #C4746E",
"Z. c #C47C74",
"A. c #AB8048",
"S. c #CA8078",
"D. c #8B8B8D",
"F. c #838486",
"G. c #998082",
"H. c #95958A",
"J. c #8D8E90",
"K. c #9A9B96",
"L. c #A68B8D",
"P. c #A3A398",
"I. c #AFADA1",
"U. c #A7A8AA",
"Y. c #BCBBAE",
"T. c #B2B1A5",
"R. c #B5B6B8",
"E. c #D48D84",
"W. c #C49083",
"Q. c #D6938A",
"!. c #C79D93",
"~. c #DA9C92",
"^. c #C3A69A",
"/. c #D1AA9D",
"(. c #C6B3A5",
"). c #DAB3A6",
"_. c #D5BEB0",
"`. c #C4C2B4",
"'. c #CCCBBB",
"]. c #D5D3C3",
"[. c #DAD5C5",
"{. c #E1D6C6",
"}. c None",
/* pixels */
"}.}.}.}.}.}.}.}.}.}.}.}.}.}.}.}.}.}.}.}.}.}.}.}.}.}.}.}.}.}.}.}.}.}.}.}.}.}.}.}.}.}.}.}.}.}.}.}.}.}.",
"}.}.}.}.}.}.}.}.}.}.}.}.}.}.}.}.}.}._ }.O._ ( ( -.}.}.}.}.}.}.}.}.}.}.}.}.}.}.}.}.}.}.}.}.}.}.}.}.}.",
"}.}.}.}.}.}.}.}.}.}.}.}.}.}.}.}.}.}.m.^ j.x.j.x.^ }.}.}.}.}.}.}.}.}.}.}.}.}.}.}.}.}.}.}.}.}.}.}.}.}.",
"}.}.}.}.}.}.}.}.}.}.}.}.}.}.}.}.}.}.z.j.j.j.j.j.^ }.}.}.}.}.}.}.}.}.}.}.}.}.}.}.}.}.}.}.}.}.}.}.}.}.",
"}.}.}.}.}.}.}.}.}.}.}.}.}.}.}.}.}.}.j.j.j.j.j.-.) Y }.}.}.}.}.}.}.}.}.}.}.}.}.}.}.}.}.}.}.}.}.}.}.}.",
"}.}.}.}.}.}.}.}.}.}.}.}.}.}.}.}./ Q 4.c.) ) +.6.y.b W }.}.}.}.}.}.}.}.}.}.}.}.}.}.}.}.}.}.}.}.}.}.}.",
"}.}.}.}.}.}.}.}.}.}.}.}.}.}.}.}.^ Q >.k.R -.h.z.) D ~ }.}.}.}.}.}.}.}.}.}.}.}.}.}.}.}.}.}.}.}.}.}.}.",
"}.}.}.}.}.}.}.}.}.}.}.}.}.}.}.}./ H ^ j.) j.R j.Y x E }.}.}.}.}.}.}.}.}.}.}.}.}.}.}.}.}.}.}.}.}.}.}.",
"}.}.}.}.}.}.}.}.}.}.}.}.}.}.}.}.W D -.W.E E h.B.D F :.}.}.}.}.}.}.}.}.}.}.}.}.}.}.}.}.}.}.}.}.}.}.}.",
"}.}.}.}.}.}.}.}.}.}.}.}.}.}.n.!.y.R I 5.l.>.k.O.D :.v.7.h.}.}.}.}.}.}.}.}.}.}.}.}.}.}.}.}.}.}.}.}.}.",
"}.}.}.}.}.}.}.}.}.}.}.j.j.h.j.n.S.j.) ) 5./ / ^ ) j.y.E.b.j.h.h.}.}.}.}.}.}.}.}.}.}.}.}.}.}.}.}.}.}.",
"}.}.}.}.}.}.}.}.}.M.x.j.j.j.b.^.a.-.j.j.h.j.h._ -.B.[.s.) j.j.j.j.h.}.}.}.}.}.}.}.}.}.}.}.}.}.}.}.}.",
"}.}.}.}.}.}.}.}.}.m.>.j.j.j.j.>.-./.8.I P E B / 7.( c.Z.h.j.j.j.j.j.E }.}.}.}.}.}.}.}.}.}.}.}.}.}.}.",
"}.}.}.}.}.}.}.}.l.j.>.Y j.j.j.x.V._.7.Q.d.b.W.4.).s.j.j.j.h.) E j.j.T }.}.}.}.}.}.}.}.}.}.}.}.}.}.}.",
"}.}.}.}.}.}.}.j.j.x.j.x L j.j.j.c.3.j.~.7.b.{.4.n.s.j.j.j.) m ) x.j.h.B }.}.}.}.}.}.}.}.}.}.}.}.}.}.",
"}.}.}.}.}.}.x.j.j.j.j.x h h.j.j.j.j.j.b.h.) C.h.x.j.j.j.j.M m ) j.j.j.) x }.}.}.}.}.}.}.}.}.}.}.}.}.",
"}.}.}.}.}.}.x.j.j.j._ X X ) j.j.j.x.j.j.j.T j.j.j.j.x.x.) M c E x.j.j.j.m }.}.}.}.}.}.}.}.}.}.}.}.}.",
"}.}.}.}.}.}.x.j.j.j.Y . }.T x.j.j.j.j.j._ l E j.j.x.N.x.V M }.M x.x.j.j.B h }.}.}.}.}.}.}.}.}.}.}.}.",
"}.}.}.}.}.}.j.j.j.^ s . }.c ^ m.j.j.` T l s j D ` x.` V m l }.M T -.j.E m d }.}.}.}.}.}.}.}.}.}.}.}.",
"}.}.}.}.}.}.` U b s . }.}.}.j l c l j j l l l k j j l j d j }.}.m M M M l f }.}.}.}.}.}.}.}.}.}.}.}.",
"}.}.}.}.}.x.l.P s . }.}.}.}.}.d k k N h.B M B ) B d s s d }.}.}.}.m c c j d }.}.}.}.}.}.}.}.}.}.}.}.",
"}.}.}.}.}.+.H G O . }.}.}.}.}.}.c m m B m M m N l d s }.}.}.}.}.}.}.h.j.E j }.}.}.}.}.}.}.}.}.}.}.}.",
"}.}.}.}.}.(.[.`.Y.e.}.}.}.}.}.}.}.M M m m m M B k s o }.}.}.}.}.}.}.-.+.! h }.}.}.}.}.}.}.}.}.}.}.}.",
"}.}.}.}.}.].].Y.T.K.}.}.}.}.}.}.=.[ A v n n v v z # $ , }.}.}.}.}.}.K r < *   }.}.}.}.}.}.}.}.}.}.}.",
"}.}.}.}.}.'.[.(.I.}.}.}.}.}.}.r.*.*.$.@.{ { { { { 4 , 2 , }.}.}.}.}.q w.@.1 }.}.}.}.}.}.}.}.}.}.}.}.",
"}.}.}.}.}.`.].`.P.}.}.}.}.}.=.$.$.| | @.&...{ 2 4 3 | | 2 , }.}.}.}.7 &.| * }.}.q.8 }.}.}.}.}.}.}.}.",
"}.}.}.}.}.}.'.I.H.}.}.}.}.}.' | $.*.} 5 5 3 2 5 { | @.| 2 % C }.}.}.}.o.! C }.#.1 = }.}.}.}.}.}.}.}.",
"}.}.}.}.}.}.g.0.! }.}.}.}.P Q ] } @.A.| 2 6 6 5 6 @.$.{ % L T }.}.}.j.j.j.-.C @ }.}.}.}.}.}.}.}.}.}.",
"}.}.}.}.z.j.j._ T m }.}.) j.-.) S 3 %.r.=.@.} @.$.%.| 4 J j.j._ }.}.j.x.j.j.n }.}.}.}.}.}.}.}.}.}.}.",
"}.}.}.}.R ^ E }.}.}.}.}.x.j.j._ M C ' ..@.$.$.@.$.{ # v ) j.j.x.}.}.~ j.) B k }.}.}.}.}.}.}.}.}.}.}.",
"}.}.}.R T T E }.}.}.}.x.x.j.j.) M j h 4 6 @...6 3 z j M T j.j.j.m.}.; x x }.}.}.}.}.}.}.}.}.}.}.}.}.",
"}.}.}.}.}.}.}.}.}.}.}.x.x.j.` V M j j }.}.}.2 }.}.s j M M ` j.k.2.0 }.}.}.}.}.}.}.}.}.}.}.}.}.}.}.}.",
"}.}.}.}.}.}.}.}.}.}.}.l.j.j.) M l s }.}.}.}.}.}.}.}.s l m T k.1.0 }.}.}.}.}.}.}.}.}.}.}.}.}.}.}.}.}.",
"}.}.}.}.}.}.}.}.}.}.}.l.j.j.V m j j }.}.}.}.}.}.}.}.}.d m J 1. .5.}.}.}.}.}.}.}.}.}.}.}.}.}.}.}.}.}.",
"}.}.}.}.}.}.}.}.}.}.}.m.j.E M l h }.}.}.}.}.}.}.}.}.}.z K #.: h.x.}.}.}.}.}.}.}.}.}.}.}.}.}.}.}.}.}.",
"}.}.}.}.}.}.}.}.}.}.}.x.j.V c d }.}.}.}.}.}.}.}.}.}.}.q.w e r j.l._ }.}.}.}.}.}.}.}.}.}.}.}.}.}.}.}.",
"}.}.}.}.}.}.}.}.}.}.}.j.` B m l h }.}.}.}.}.}.}.}.}.w 8 t F.J.f.l.~ }.}.}.}.}.}.}.}.}.}.}.}.}.}.}.}.",
"}.}.}.}.}.}.}.}.}.}.}.P T M m m j }.}.}.}.}.}.}.}.}.= > p J.U.R.L.p.}.}.}.}.}.}.}.}.}.}.}.}.}.}.}.}.",
"}.}.}.}.}.}.}.}.}.}.}.^ ) ) V m j }.}.}.}.}.}.}.}.}.}.s u.R.U.J.J.J.p a }.}.}.}.}.}.}.}.}.}.}.}.}.}.",
"}.}.}.}.}.}.}.}.}.}.}.` >.x.) l g }.}.}.}.}.}.}.}.}.}.h <.K.J.J.J.F.p }.}.}.}.}.}.}.}.}.}.}.}.}.}.}.",
"}.}.}.}.}.}.}.}.}.}.}.}.j.j._ m f }.}.}.}.}.}.}.}.}.}.h K J.J.J.a u }.}.}.}.}.}.}.}.}.}.}.}.}.}.}.}.",
"}.}.}.}.}.}.}.}.}.}.}.}.x.x._ m j }.}.}.}.}.}.}.}.}.}.}.G J.D.u a }.}.}.}.}.}.}.}.}.}.}.}.}.}.}.}.}.",
"}.}.}.}.}.}.}.}.}.}.}.}.h.x.h.m h }.}.}.}.}.}.}.}.}.}.}.- u y G.}.}.}.}.}.}.}.}.}.}.}.}.}.}.}.}.}.}.",
"}.}.}.}.}.}.}.}.}.}.}.}.}.x.j.B }.}.}.}.}.}.}.}.}.}.}.}.,.i.9.}.}.}.}.}.}.}.}.}.}.}.}.}.}.}.}.}.}.}.",
"}.}.}.}.}.}.}.}.}.}.}.}.}.h.l.E k }.}.}.}.}.}.}.}.}.}.}.U l.l.}.}.}.}.}.}.}.}.}.}.}.}.}.}.}.}.}.}.}.",
"}.}.}.}.}.}.}.}.}.}.}.}.}._ l._ x }.}.}.}.}.}.}.}.}.}.f ^ j.>.}.}.}.}.}.}.}.}.}.}.}.}.}.}.}.}.}.}.}.",
"}.}.}.}.}.}.}.}.}.}.}.}.) h.j.^ k }.}.}.}.}.}.}.}.}.}.f P j.j._ }.}.}.}.}.}.}.}.}.}.}.}.}.}.}.}.}.}.",
"}.}.}.}.}.}.}.}.}.}.}.j.j.) E B j }.}.}.}.}.}.}.}.}.}.h N T ^ j.h./ }.}.}.}.}.}.}.}.}.}.}.}.}.}.}.}.",
"}.}.}.}.}.}.}.}.}.}.^ ^ R P E h.N }.}.}.}.}.}.}.}.}.}.j j.R R R E ) ~ }.}.}.}.}.}.}.}.}.}.}.}.}.}.}.",
"}.}.}.}.}.}.}.}.}.}.m m c c }.k }.}.}.}.}.}.}.}.}.}.}.}.k }.}.c c m }.}.}.}.}.}.}.}.}.}.}.}.}.}.}.}."
};
