/* XPM */
static char *_0ea2c1c6f1f492692829de801806681568BvEVrhDGlVFZk[] = {
/* columns rows colors chars-per-pixel */
"50 50 53 1 ",
"  c #C5D358",
". c #C5D35A",
"X c #C5D35B",
"o c #C6D459",
"O c #C6D45A",
"+ c #C7D55A",
"@ c #C6D45B",
"# c #C7D55B",
"$ c #C5D25C",
"% c #C5D35C",
"& c #C5D25D",
"* c #C6D35D",
"= c #C5D25E",
"- c #C5D35E",
"; c #C6D35E",
": c #C6D35F",
"> c #C6D45C",
", c #C7D55C",
"< c #C6D45D",
"1 c #C7D55D",
"2 c #C6D45E",
"3 c #C7D45E",
"4 c #C7D55E",
"5 c #C7D45F",
"6 c #C8D65B",
"7 c #C8D65C",
"8 c #C8D65D",
"9 c #C8D65E",
"0 c #C8D65F",
"q c #C7D460",
"w c #C8D560",
"e c #C8D561",
"r c #C8D660",
"t c #C9D760",
"y c #C8D661",
"u c #C9D661",
"i c #C9D761",
"p c #CAD761",
"a c #C8D562",
"s c #C9D662",
"d c #C9D762",
"f c #C9D663",
"g c #CAD762",
"h c #CAD763",
"j c #C9D664",
"k c #CAD764",
"l c #CAD765",
"z c #CAD861",
"x c #CBD962",
"c c #CAD863",
"v c #CBD866",
"b c #CCD967",
"n c #CDDA68",
/* pixels */
"nbllaaxxxxxxyyaxaxaaxaaaaaapapapaaxaxaxx8xvajjjlvn",
"vllqaaaayy00yyavaaxaaaaxaxaapaalaxaaxaa8x8xaqqqjvv",
"laq:::181q111qqqaaaaaaqqaaaaaaaaqaqqa:111111qqqqql",
"qq:::.:11 $ 1qqq:qq1qqq18q555qq8qqq:1:..:1.:%%%qqq",
"qqqq$.::###$%::1:::::.::::::55::::::::.##111%%1qqq",
"qxq1:.11011#1%11:1:1:1:1.1.::.8.#:.1#.##11111:1qal",
"vxq1111111########1##1#186.8888.#1#1##6#1001111qxl",
"xqq1111#1####1#####1##1##188..881#1#1#66#1##:11qxa",
"y0111$# 11# ##10888688668868888868888#  ##.#..:11x",
"q011%  ##   ######66#######6####66##### #.#...11q0",
"0y11$ .## #  #####6 ##66#666 6### ###   .# #..#111",
"xy11.######  # #. 6 . .#..   #  #  . #6######::8xx",
"yxa111##### # # #.#.#.#.#.#.6.#..#.### ##6##1:18qx",
"aqaq::#16## ##%1.#.#.#.#.#.#.#.##.#.#6 #####.::aaq",
"xxqq::##0###### #.#.1.1.#.1.1.#..1.#.# ##81##::axa",
"qaqq:###6##  # #.#.#.#.#.1.#.#.##.#.# ###8#1::qaaa",
"aaaq:11#6#6 #.#.1.1.#.1.1.#.1.1..#.#.# 668##1::8pa",
"aaaq::#1866 .1.1.#.#.1.#.#.1.#.#1.1.#. 6#6#1.:aaap",
"xa8q:.1#8## #.#.#.1.#.#.1.1.#.1..#.1.#.6#81##:5apa",
"aaa::1#18#6#.#.1.1.#.1.1.#.#.1.#1.#.1. 6#8#1::5aap",
"xpa8:.8#8## #.#.1.#.1.#.#.#.1.1..#.#.#  #81#::qapa",
"aaaq:1#18#6..#.#.#.1.#.1.1.1.#.#1.1.#.66#8#1.:q8la",
"paaq:.1#6#6 #.#.1.1.1.1.1.#.#.1..#.#.# 6#81#1:1apa",
"aaaq::##866 .1.1.#.#.#.#.#.1.1.##.#.#. 6#8#1:::aap",
"paa55.688##.#.#.#.#.#.#.1.#.1.1.#.1.1. 6#8#1.:5apl",
"apaq5:8@8## .#.#.1.1.1.1.#.1.#.#.1.#.# ##81#::5aaa",
"paaq:.@86#6 #.#.1.#.1.#.1.1.#.1.#.#.#.#6#8#11:qapa",
"laa8::8@6#6#.#.#.#.1.#.1.#.#.1.#.1.1.# 6#886.:qaap",
"aaaq:86:8## #.#.1.1.#.1.#.#.1.1.#.1.#. ##8#1::58al",
"aaaq:.#68## .1.1.#.#.1.#.1.1.#.#.1.#.# 6#81#8.5aap",
"xaa::.#18#6 #.#.#.1.#.#.1.#.#.1.#.#.#. 6#8#1::aapa",
"paa8::1#6#6#.#.1.1.#.1.1.#.1.1.#.#.#.#.##81#:58aap",
"apaa:.8#8#  6#.#.#.#.1.#.#.1.1.1.1.##. 6661#:::8pa",
"paa8:1#18#6##.#.1.1.#.1.1.#.#.#.#.1..# 6#8#11:qaaa",
"aaa5:.1#8## .#.#.#.#.#.#.1.1.1.#.#.##.  #8###:qaax",
"paaq::#18##.#.1.#.#.1.1.#.#.#.#.1.1..#66#8#1:::aaa",
"apqqq:##6666.#.#.#.#.#.#.1#.#..#.##.#. 6#8###:qqax",
"xa85:.##66  #.#.###.#.###. #.##6#..#.#6 #1##.11aax",
"p088#.666#6    #     #. .   # 6 .     66#6###.:80x",
"8a88...##.  66 #6666 ###6#66# 6 6#666  6 ##...#100",
"0y11 $.#.## .#########################  #.#...#100",
"yq11#$1###. 668888888888888888886011######.#.::100",
"xyy11%1#66######1#1#1#1#1#1###:6#1#1####68#11111xa",
"xyq1111#88###1#1#1###1#1#1#1#1681#1####188811q1qav",
"qvq1::1181#::1:#.1:#1.#::.1::.8.11%11%#1#1q111qqaa",
"qqq1%%$:1.#..:::::::::::::::::::1::%:%$ 11:%%%%q1a",
"qqq%%%:11...:1:1:5qq:a55qq1:qqaaqqqqq:$%#%%%=%qqqa",
"jqqq::1q1111:aaqaaaa8aaaa8aaa8aaqqqqq11111:%qq%qql",
"vljjqqxqqx11qxqlqxxaaaaaxaaaaaapvaaxaa8x00xqaaaavv",
"nvvvlqxvxxxxvqxqlqaaaxaxaaaxaxpaxaaaax0axxxxaxlvbn"
};
