/* XPM */
static char *_3c17132a6a1436efa35366cdc5d9a01FkC8Lr2WRKHcn9Rl[] = {
/* columns rows colors chars-per-pixel */
"50 50 237 2 ",
"   c #3F341C",
".  c #363B22",
"X  c #401805",
"o  c #4B2806",
"O  c #5D3E03",
"+  c #443210",
"@  c #443A19",
"#  c #4A3E1A",
"$  c #483710",
"%  c #543E17",
"&  c #683D06",
"*  c #394417",
"=  c #4C4319",
"-  c #4A4616",
";  c #54451A",
":  c #594316",
">  c #555214",
",  c #644403",
"<  c #674707",
"1  c #6B4715",
"2  c #6B531A",
"3  c #735D1C",
"4  c #7F6715",
"5  c #5A4E20",
"6  c #6B4D2C",
"7  c #665229",
"8  c #796923",
"9  c #766128",
"0  c #78732B",
"q  c #6E7836",
"w  c #75682D",
"e  c #74774C",
"r  c #855A0B",
"t  c #825E16",
"y  c #846B16",
"u  c #946A1B",
"i  c #877618",
"p  c #937317",
"a  c #8B680C",
"s  c #B57C07",
"d  c #AA7C18",
"f  c #896A28",
"g  c #84752E",
"h  c #897732",
"j  c #8E712E",
"k  c #B27923",
"l  c #DE7805",
"z  c #C07D06",
"x  c #E47F00",
"c  c #E17700",
"v  c #877948",
"b  c #85744F",
"n  c #BD811E",
"m  c #868332",
"M  c #9B8E34",
"N  c #AC8731",
"B  c #B0AF3D",
"V  c #A3A32F",
"C  c #C78403",
"Z  c #C78707",
"A  c #D99707",
"S  c #C48C13",
"D  c #C58E15",
"F  c #CA961B",
"G  c #D69C19",
"H  c #DC8902",
"J  c #EB8B04",
"K  c #F28C06",
"L  c #E79808",
"P  c #F19402",
"I  c #F79C08",
"U  c #E89B17",
"Y  c #F59916",
"T  c #D7AB03",
"R  c #DCB307",
"E  c #DFA01D",
"W  c #D9B516",
"Q  c #ECA40A",
"!  c #E4AA08",
"~  c #FBA605",
"^  c #F5A50D",
"/  c #F8A806",
"(  c #E2B201",
")  c #EAB502",
"_  c #E5B809",
"`  c #EBA41C",
"'  c #E6A415",
"]  c #F6AA19",
"[  c #E5B814",
"{  c #FAB214",
"}  c #CB9C3C",
"|  c #D0972F",
" . c #E49C36",
".. c #D7A128",
"X. c #CEAE3F",
"o. c #CEB23A",
"O. c #DCB232",
"+. c #E7A827",
"@. c #F3AA22",
"#. c #FAA323",
"$. c #E4A839",
"%. c #F5B839",
"&. c #F6B732",
"*. c #E8C61D",
"=. c #DDC323",
"-. c #E8C527",
";. c #F8CD28",
":. c #E6C637",
">. c #F2C535",
",. c #F9DA3C",
"<. c #EED72E",
"1. c #FAE438",
"2. c #999648",
"3. c #988C53",
"4. c #979858",
"5. c #8F8848",
"6. c #AD8F41",
"7. c #A59746",
"8. c #A08A52",
"9. c #9EA94E",
"0. c #B4BE4F",
"q. c #BDAE5B",
"w. c #B8B45E",
"e. c #AFB146",
"r. c #A89A6A",
"t. c #BC9D70",
"y. c #BCAD6C",
"u. c #B9AB61",
"i. c #BBB566",
"p. c #B5B878",
"a. c #AEB66B",
"s. c #D09740",
"d. c #C5B34C",
"f. c #DABD49",
"g. c #D8AB57",
"h. c #C7B85A",
"j. c #CBAA48",
"k. c #EDB349",
"l. c #C7BA64",
"z. c #D8B766",
"x. c #CAAB76",
"c. c #C6BB76",
"v. c #DBBA74",
"b. c #E5B963",
"n. c #B9C84C",
"m. c #BCD04F",
"M. c #BECB59",
"N. c #BFD954",
"B. c #BED75D",
"V. c #B5DC5E",
"C. c #BCD95B",
"Z. c #BED255",
"A. c #BDC863",
"S. c #BED662",
"D. c #BBD861",
"F. c #BCD66C",
"G. c #B7D06A",
"H. c #BCC47B",
"J. c #BFC474",
"K. c #BFD872",
"L. c #C8C548",
"P. c #D7CE4D",
"I. c #C5D64D",
"U. c #CAD54D",
"Y. c #C4D84C",
"T. c #C2CD55",
"R. c #C4CC5B",
"E. c #CECF5F",
"W. c #CBC259",
"Q. c #D3CF54",
"!. c #D2CE5C",
"~. c #D3C15C",
"^. c #C4D654",
"/. c #CAD354",
"(. c #C1D853",
"). c #C4D55C",
"_. c #CBD25B",
"`. c #C1D858",
"'. c #CDDA5B",
"]. c #CADB56",
"[. c #D1D054",
"{. c #D0D059",
"}. c #EAD258",
"|. c #EFCB52",
" X c #F8E545",
".X c #FDE35B",
"XX c #CDCE64",
"oX c #C7CD6E",
"OX c #CBCE6B",
"+X c #C9C362",
"@X c #D0CD62",
"#X c #D1CC6B",
"$X c #D6C96A",
"%X c #C4D463",
"&X c #C9D163",
"*X c #CBDA63",
"=X c #C5D26B",
"-X c #C9D06A",
";X c #C2DA6B",
":X c #D4D968",
">X c #CBCD72",
",X c #C5C979",
"<X c #D9CB7A",
"1X c #C5D171",
"2X c #C6D47B",
"3X c #C8D976",
"4X c #D8D873",
"5X c #E4CF64",
"6X c #E6C46B",
"7X c #E4C474",
"8X c #EFD36E",
"9X c #D5E261",
"0X c #F6EA68",
"qX c #FFF574",
"wX c #F2EE72",
"eX c #C5B289",
"rX c #E1BE84",
"tX c #CAD385",
"yX c #E4C988",
"uX c #EDD899",
"iX c #F6DA98",
"pX c #E9D58C",
"aX c #ECE389",
"sX c #F7E98B",
"dX c #FBF886",
"fX c #FAEC9C",
"gX c #F7E396",
"hX c #FCF796",
"jX c #E9E49E",
"kX c #EFD9AA",
"lX c #FDEAA5",
"zX c #FBE9A6",
"xX c #FDF9A8",
"cX c #FDE9B6",
"vX c #FFF3B5",
"bX c #FDFDB7",
"nX c #F7ECC0",
/* pixels */
">X#X>X%XS.D.D.V.V.V.%XB.%X-X-X-X=X1X-X=X=X-X&X&X_.).).)._.{._.@XXX#XXXOX%X).^.I.).%XXXoX>X>X=XB.C.N.",
">X>X>X%XS.S.V.V.V.V.S.S.%X-X-X-X1XoXoX1X=X=X&X&X_.&X).).E.{.!.@X#X#XXX%X=X).(.^._.%XXXoX2X,X1XB.N.C.",
"$X#XOX%XD.S.V.V.D.D.S.%X%X&X&X-X>X=X1X=X=X=X&X&X&X).&X)._.{._.@XOX#XOX%X%X).^.^.).XXXXoX>X>X=X`.C.C.",
"/././.`.N.N.C.C.C.)._._._.@X@X@X-X-XOXOXOXXXE.E.&X=X=X=X&X&X_.&X%XXXXX%X%X&X).).&X%XOX%X-X=X%XC.(.N.",
"U.I.I.Y.N.m.N.C.)._._.E.!.!.@X@XXXXXOX-XXXXXXX!.@X-X>X>XXX&X&X&X&X&X%X=X%X%X&X&X%XXXXX%X%X%X&XN.N.(.",
"I.U.I.(.N.N.`.`.`._.&X_.@X@X!.@XXXOXXX-XXX-XE.!.XXoX=X>X-X&X&X_.&XXX%X%X=X%X).).&XOXOX%XXX%X).C.N.N.",
"Y.I.^.^.).).%X&X&XE.[.!.[.Q.Q.E.&X_.&X_.&X_._._.&XXXOXOX-X%X%X).`.`.).).).&X-X-X&X&X&X)._._.^.N.(.(.",
"I.(.^.).%X&X&X&X@X!.Q.Q.Q.[.[./._._.).).`.)._.)._.#XOXXX-X%X%X).C.^.`.`.`.&XXX-X%XXX&X_.(.(.^.Z.`.(.",
"(.(.^.).%X%X&X&XXX{.[.Q.[.[.P./.].).).).).)./._._.XX#XXX-X%X%X).Z.^.N.`.`.&XXXOX&X&X&X).(.^.^.^.`.^.",
").).%X-X-X=X&X@X@X{.P.[././.^.^.B.%X).).).).).)._.!.!.!.&X%X%X%XC.C.^.(.(._.XX&X_.&X_._.I.U.(.^.).).",
"=X%X=X=X>X>X&XE.E.U.U.U./.^.^.C.D.D.D.C.C.S.)._._.P.P.P.XXOX=X%XB.B.I.I.Y./._._._._._.].I.I.(.).).).",
"%X=X=XoX>X>XXX@XE.[.U.U.(.`.^.C.D.D.D.S.V.B.).).).[.P.Q.&X%X=XD.C.V.N.Y.Y./._.!._._._./.I.I./.).).).",
"%X%X%X-X-X-X_./.[./.I.I.^.S.D.=XK.;X%Xn.Z.0.m q 0 0 8 h w.,X>X>X=XF.M.I.].]._./._._./.^./.I.^.).].).",
").%X%X_.&X&X/.U.U.I.Y.(.M.G.F.K.;X3XM.V B V - $ + + $ % 3.y.c.,X,X,XR.T.'._././._._._._.^././.).).&X",
"%X%X).&X&X&X/.U.U.I.Y.I.D.K.3XK.A.%X9.> > 3 d.L.~.~.h.d.w ; 5 4.,X,X4X9XI.T.^././._././.^./._.).%X%X",
").).%X&X_.&X/.(.].^.`.`.=X2X3X=XR.2.m i 4 M :.|.}.}.8X5X3.b b v 3.,X4X:XT.T._./././._._._././.)._.).",
").).).XX&X&X)./.^.%XS.%X>X,X,X+Xd.3 4 ;.1.<.) A T } g.6XuXcXnXb 6 x.c.XXoX-X^.)./._./._./.!._._._.).",
").).).)._.&X/.^./.).%X%X1X,Xp.2.4 M o._ *.[ ! ! ' j.6XsXcXkXx.eXr.6 5.R.OX&X).).)._./._._._._.).%X).",
"&X&X&X&X-X&X_.^._.).=X=X>X,X3.g y o.>.R R T ! [ >.6XaXfXuXyXx.yXx.1 w 2.+X%X).`.)._._._._._._.).).).",
"&X%X%X%XOXXX&X&X_.=X1XoXOXq.; y ;.W T ) ) ) ' >..XfXvXlXg.g.lXb.N k < 5 i.=XF.F.%X_._._.!.!.E.%X).&X",
"%X%X%XOXXXXX&X).&X=XoX=X>Xu.: y  X[ R ) ( [ >..XqXxXuXv.v.b.b.k.s.k 1 > i.=XF.F.%X_._._.E.!.E._.&X&X",
"&X).&XXXXXXX&X_.).-X=X>XOXq.; i  X-._ T R >.qXdXdXfXyXz.8X8X . .| n < - w.F.F.F.D._._._.!.!._.%X%X).",
"/././.R.E._./././.&X-X-X#Xq.- 4 1.-._ T <..XxXvXzXv.yXfXk.@.#.` A C , - w.=XG.F.S./._._.!.!.@X&X%X%X",
"/././._.E.E./././.&X-X-X-Xh.- 4 1.*.R T <.qXvXkXyXyX7Xz.@.^ ^ ^ A C , - w.=XF.F.F._._._.!.!.E.&X%X%X",
"/././._.R._./././.).XXXX-Xh.  4  X=.W W  XqXvXuXrXiXv.k ` ^ P ^ ' C ,   w.=XF.F.%X^._./.!.!._.&X&X%X",
"^.^.^.)./._._.^.^._._.`._.0.* q wXL.[.dXhXhXlXlXgXk.Y c Y ~ L @.+.S O   l.3XF.=X%XU./.^./././.).).).",
"`.^.^._.)./.)./._.^.^./.^.0.* q wX:X4XxXaXpXlXuX6X#.K c I ~ ~ ' G Z , @ y.>XoXF.%XU./.U./././.^.].).",
"^.).^.`.^.)./.).`._.^./.^.e.* q dXhXhXhX+Xh.fX<X} Y K c P ~ / A Z n < = u.,XS.=X).^.U.U./././.).).^.",
"`.^.`.^.(.(.(./.`.%X=XF.K.a.* e xXbXaXj.5XwX.X>.` ^ K x P ~ { ' F D < - i.-XS.=X%X^.^.`.).).).D.%X).",
"`.`.`.(.(.(.^.^.`.%X=X1XtXp.. e bXjX4Xf.Q.}.>.] L K K P P I ^ +.E n , - i.>XS.S.).C.B.).%X%XS.S.S.D.",
"`.`.^.(.(.(.^.`.^.S.1X1X2Xp.. e vXc.l.dXf.G ! A C J K Y P L J &.$.s O # l.OX;X%X).C.`.).D.%XS.S.S.S.",
"%X=X%X).^.^.(.(.(.%XF.F.K.p.4.v 5.c.7XP.O.O.] Q H H J ] @.] ` ..k & 8 2.+X%XB.%XB.).C.%X%X%X;X%XS.S.",
"=X=X=X).^.).I.Y.Y.C.S.F.1XtXtX4.9 r.l.$.k.%.] Q Q L U ` ` +.U d t 1 7.E.@X&XC.`.).B.).D.=X=XS.S.=XS.",
"=X1X=X&X).).(.Y.Y.`.S.%X3XtXH.y.l.7 9 |..X|.L ^ { &.` A z z C & 1 j.h.XX4X*X`.C.B.).).D.=X%X%X=XS.%X",
"OX-X-X_._._./.^.(.^.`.`.%X=X;XoXl.2.h f f u s F G F F D r & < f 6.~.!.E.M.m.^.(.`.).).&X%X%X%X&X_._.",
"&X&XXX&X_._./././.^.^.(.m.m.*X*XR.&X7.& % 1 t u u a p p 2 % % 7.#X$X&X/.n.m.(.(.^.).)._.&X&X_._._./.",
"XXXX-X_._._./.^.^.(.(.Z.Z.Z.Z._.:XXXh.e.j.6.& o X o o o M h.$Xl.+X$XXXT.*X'.(.(.^.)._.).XX&X_._./._.",
")._./.)._._._._._._./._.^.C.Z.`.*X).T.W.$Xh.v h w h j h d.<X7X+XOX#XE./.'.].I.I.^.).)._.&X&X_._.{._.",
"Y.Y.:.Y./.^._.&XXX&X%X%X).`.C.`.).Z.C.&X&XXX>X#X<X@X!.@X>X,X<X>X>X>X).^.^.^.Y.I.^.).).).&X&X&X!._.!.",
"Y.Y.Y.N._./.&XXX&X&X&X&X).`.).`.`.`.).&XXX%X#XOX#X@X!.!.$X,X>X>X>XoX&X^.^.^.U.I./.).)._.&X&X_._.!._.",
"N.N.I.^.).).).&X).&X%X&X).).B.).).`.).%X%X*X-XXX&XE.!.!.#X>X>XoXoXoX_.^.^.].(.(.^.).).%X%X).&X&XXXXX",
"N.C.V.C.`.`.)._.).).&X).).S.).B.C.B.D.).).`.)._._.[.[.[.&X>XoX-X-X%X_./.U././._.).%X%XD.D.;X;X=X=X=X",
"N.V.V.C.`.B.).).).).%X).%X).%XB.C.B.).).).).).)._.[.[.{.-X>X>X-X-X-X_.I././././.).%XS.%XS.%X%X%X=X=X",
"V.V.D.B.B.).).)._._._.).).).).B.).B.S.).).)._.)._./.[.{.&X-XoX%X-X%X_./.U./._._.).).).D.S.D.S.=X=X1X",
"F.=XF.=XS.%X^./.^.^.^.^.^.C.^.`.).B.).).)._./._././.U.[.%X=X=X&X).%X/.[.[./._._.).).).B.B.C.D.=XoX1X",
"F.F.F.S.%X%X`.^.^.^.I.^.^.C.).`.B.).%X).)._.{._.{./.U./.&X=X=X&X%X%X/./././.E._.%XB.).).B.B.%X1X1X1X",
"%X=X=X&X&X%X_.)././.^.^.^.C.C.).B.B.)._._.&X{.{._./././.%X=XF.&X%X%X_././.{.&X_._.`.).`.N.^.).=X-X-X",
"_._._._._._._._.R.&X%X%XD.S.C.S.S.D.).)._._.{.{.[.).).).S.F.F.F.S.S._.[.{.{.@X@X_.^.^.(.Y.I.^.XX#XXX",
"_._./.E.{.{._._.E.&XD.%XD.D.S.D.C.D.%X_._._.{.{.{.^.B.).F.F.F.S.S.S.)._._.E.@XE._.U.(.(.Y.Y.U.XXXX#X",
"/.{.{.E.E.{._.XX).&X%X).%XD.S.B.D.B.)._._._.!.Q.{.).).C.F.F.F.D.D.%X_./.[.E.@X@X_.]./.I.Y.Y./.!.#X@X"
};
