/* XPM */
static char *_51bad97e73d488e89987330af40541d1W7lH5SNijpoXJqf[] = {
/* columns rows colors chars-per-pixel */
"50 50 192 2 ",
"   c #564D3E",
".  c #6C6D2C",
"X  c #727629",
"o  c #666234",
"O  c #676830",
"+  c #67633B",
"@  c #6A663B",
"#  c #6E6B36",
"$  c #787437",
"%  c #7A7A37",
"&  c #73723A",
"*  c #7C7C3C",
"=  c #574F40",
"-  c #584F40",
";  c #5D5445",
":  c #5D574A",
">  c #5D584B",
",  c #635C4D",
"<  c #645D53",
"1  c #685F51",
"2  c #676342",
"3  c #696344",
"4  c #6D6A43",
"5  c #6C654C",
"6  c #6F694B",
"7  c #726E45",
"8  c #726C4D",
"9  c #797645",
"0  c #7D7C43",
"q  c #77724C",
"w  c #7A764A",
"e  c #7C7B4C",
"r  c #757143",
"t  c #676152",
"y  c #6A6354",
"u  c #6C6855",
"i  c #6D665A",
"p  c #6E695B",
"a  c #736D54",
"s  c #70675B",
"d  c #726C5D",
"f  c #786D5F",
"g  c #767256",
"h  c #797554",
"j  c #7D7B52",
"k  c #75705F",
"l  c #7B745C",
"z  c #7D795C",
"x  c #6C6561",
"c  c #6F6A62",
"v  c #746E62",
"b  c #786F62",
"n  c #746E69",
"m  c #786E6C",
"M  c #767163",
"N  c #7A7465",
"B  c #7E7965",
"V  c #77726C",
"C  c #7C756A",
"Z  c #7E796B",
"A  c #786E73",
"S  c #7D7472",
"D  c #7F7971",
"F  c #807D46",
"G  c #807E4B",
"H  c #817E55",
"J  c #817C5B",
"K  c #827C64",
"L  c #807769",
"P  c #837C6C",
"I  c #807674",
"U  c #847C72",
"Y  c #857D7A",
"T  c #887D79",
"R  c #84853E",
"E  c #88893E",
"W  c #89863D",
"Q  c #838243",
"!  c #8B8B45",
"~  c #84834E",
"^  c #8B8C4A",
"/  c #888648",
"(  c #8C9043",
")  c #929346",
"_  c #93944B",
"`  c #99974C",
"'  c #9B9E4F",
"]  c #858453",
"[  c #898753",
"{  c #8C8C52",
"}  c #85825B",
"|  c #89855D",
" . c #8D8C5C",
".. c #908D56",
"X. c #928F5A",
"o. c #8F9152",
"O. c #919155",
"+. c #999652",
"@. c #969951",
"#. c #9B9C54",
"$. c #93925C",
"%. c #9B9B5B",
"&. c #A09F5D",
"*. c #9DA34C",
"=. c #9DA051",
"-. c #A1A34F",
";. c #A5AA4F",
":. c #A9AE4C",
">. c #A3A653",
",. c #A5AA54",
"<. c #AAAD55",
"1. c #A2A55C",
"2. c #A5A95B",
"3. c #AAAD5B",
"4. c #AEB454",
"5. c #AEB35A",
"6. c #B0B757",
"7. c #B5BB56",
"8. c #B2B55B",
"9. c #B5BB5B",
"0. c #B9BE5C",
"q. c #868264",
"w. c #8A8565",
"e. c #8B8864",
"r. c #87816C",
"t. c #89846C",
"y. c #908E66",
"u. c #928D6B",
"i. c #979366",
"p. c #969962",
"a. c #9D9A64",
"s. c #979468",
"d. c #9B9669",
"f. c #868172",
"g. c #8A8474",
"h. c #8E8875",
"j. c #86827A",
"k. c #8C847A",
"l. c #8F8879",
"z. c #908A76",
"x. c #90877A",
"c. c #928B7B",
"v. c #979375",
"b. c #A29C67",
"n. c #A19F68",
"m. c #A5A565",
"M. c #A7A963",
"N. c #A9AD64",
"B. c #A2A06A",
"V. c #ADB061",
"C. c #B3B460",
"Z. c #B6BC62",
"A. c #B9BE63",
"S. c #BAC355",
"D. c #BFCB55",
"F. c #BBC35B",
"G. c #BFC95A",
"H. c #BDC363",
"J. c #C6D34F",
"K. c #C2CD56",
"L. c #C1C75E",
"P. c #C4CD5B",
"I. c #C6D355",
"U. c #C9D555",
"Y. c #CBD954",
"T. c #C6D35C",
"R. c #C9D55C",
"E. c #CCD95C",
"W. c #D1DC5C",
"Q. c #C1C662",
"!. c #C4CC62",
"~. c #C1C669",
"^. c #C4CB6B",
"/. c #C9CF69",
"(. c #C7D362",
"). c #CAD563",
"_. c #CBD962",
"`. c #C7D16B",
"'. c #CAD56B",
"]. c #CEDA6A",
"[. c #D1DC64",
"{. c #D0DA6B",
"}. c #C5CB74",
"|. c #C8CD78",
" X c #C6CC79",
".X c #CCD670",
"XX c #CED872",
"oX c #D1D973",
"OX c #D3DA7A",
"+X c #8C8582",
"@X c #928B81",
"#X c #9A9183",
/* pixels */
"_._._._._._._.D.T.T.T._._.(.(.`.`.XX`.`.XX_._.T.T.T._.].]._.'.'.`.'.'.'.`.`._.(.T.I.(._.T._._._._._.",
"_._._._._._.(._.T.T._._._.(.(.(._.`.`.`.G._._._.T._._.]._.'.G._.(._.'.].(.'._.(.(.(.T._._._._._._._.",
"_._._._._._._.T.T._.T._.T.Y.T.T.T.(.(.(._._.D._._._.'.'._._._._.R.R.R.R.R.(._.(.(._.T.(._._._._._._.",
"R.R.T.R.T.T._.T.T.T.T.T.T.Y.Y.I.J.I.Y.T.T.D._._.D.D.D._.D.T.D._.R.U.U.U.U.T.(.(.(._.T.T._._.D._._.D.",
"_._._.D.T.T.T._.T.T.T.T.E._.T.J.J.J.J.Y.I.I.T.T.R.I.I.T.T.T.U.E.R.U.R.P.T.T.(.(.E.(.T.T._.D._.D.(.(.",
"_.D._._.D._.D.T.T.T._.T._._._.E.I.Y.Y.E.I.Y.T.T.E.E.E.E.T.E.T.E._.T.R.R._._.D._._.T._.T.D._._.]._._.",
"_._._.D.T._._.T.T._.T.T.T._.T.T.E.T.E.D.D.S.S.S.9.F.H.F.S.S.G.(.].R.T.T.R.T.T.(.(.T.T._.D._._.D.(._.",
"_._._._.T.D._.D.T._.T.T.T.I.T.T._._.D.D.6.2.1.p.a.1.=.M.=.5.6.H./.).I.I.T.I.D.(.T.T.T.D._.D.D._.(.(.",
"_._._.T.T.D.T.T.T.T.T.T.T.Y.T.(.).!.A.2.%.X.| w.q.q.K |  .O.#.C.H.(.T.I.Y.U.(.T.(.E.T.T.T.T.P.T.T._.",
"_._.T.T.T.T.T.T.T.T.T.T.(.(.D.D.Z.5.b.X.e.q.t.g.f.D P P q.w.[ %.1.9.0.S.P.R.E._._._.T.R._._.R.]._._.",
"_._.T.T.D.T.T.T.T.T.T.D.(.H.Z.2.&.$.| H K P g.k.j.Y U k.f.K h ] o.@.=.5.H.Q.(.R.T.(.(._._._._.).].].",
"_._._.T.T.T._._._.T.T.D.Z.p.o.~ j h h f L t.c.z.f.U k.x.z.K g 8 7 w ~ { a.5.D.D.D.D.R.(.R.T.R.P.(.D.",
"T.T.(.(.T.D.(.(.T.S.5.1.p.q.z j g B B N P g.c.z.l.k.l.x.c.f.N l l z z J J o.*.,.6.H.G.].U.R.R.R._.'.",
"(._.(.(.(.T.D.D.F.2.p.e.B V k k N f.g.B P U z.z.l.l.l.k.g.g.P P f.g.D Z k h F { =.N.H.(.I.U.U.R.].XX",
"_._.T.T.T._.G.H.1.o.} q.B M Z f.h.l.f.N M N L L Z Z Z P P P P f.g.l.g.f.Z l e j ] o.2.9.K.U.R.I.D.].",
"_.(.Y.Y.Y.D.H.m.y.B B B B Z f.z.h.r.N i 1 5 y y y i p p p d v Z f.j.g.f.f.B z z h j o.2.0.P.R.I._._.",
"(.R.U.Y.I.S.M.y.C n b K r.g.h.g.P d t ;     ; ; ; , > > , , t c N Z P f.g.f.D D M a j O.,.0.P.I.R.E.",
"]._.U.I.S.>.X.P S S I f.h.l.P f t , ; ; ; ; , 1 , y y y t < t p d v M C U j.+XD C M z | ..>.0.L.E.[.",
"].'.D.S.,.{ z n A S U g.g.f.f , ;   ; , , y y p s d f d i y y p d p p d N U Y D S V B z H ..2.0.Q.).",
"].H.5.1.o.h a d m I T g.P M ,     , y p s f k M B N M N d p p v v p p i d C D C C S C N a H ..&.C.H.",
"'.9.@.$.w.N l v N L P P f , ; ; , 5 p p p u k k d d v d p p p v M d d p p f L P U C I P N L | X.&.3.",
"^.N.~ q.P I Z B L L B C y ; , , s d d y y u u u p d d p p p p d d v v p y s b P g.U U I U U t.| $.&.",
"}.M.~ q.U T U P w.P P C y ; , p N d p 5 y u u p d M M v M d v p d M n v p p s U g.g.U U T k.c.u.i.b.",
"}.M.] r.U T L L P g.g.I p ; i M L s y y p k M k M M M M N N M p y f M N d p f U g.g.k.T I U f.w.i.b.",
" XM.] t.f.D Z C r.h.k.f.p > p C Z p u k M Z B V M M N V Z B k u y p M N k d b U g.g.g.Y S Y U w.i.n.",
" XN.[ t.k.+Xk.j.P h.k.Z i > c Z f.c c c V Z Z Z C N B Z Z B k c p k M N M d f P g.h.f.j.+Xk.c.u.d.b.",
"}.N. .h.@X+X+Xk.f.f.f.Z y > c Z D V c c M Z Z Z Z B B Z Z Z M M M M M M p p s L P f.j.j.+Xk.z.u.d.b.",
"^.M.{ v.@XY Y k.k.f.Z M i > x M Z M c c k V Z Z Z N V Z Z Z Z B N Z N v y y d b B Z D D j.j.g.y.d.m.",
"H.*.& } Z V n n Z D D Z N p k M Z Z V k M N C V V Z B B Z Z V M N Z N d s s f L C m n n m M N j ..+.",
"`.*.. 4 g M x i p C g.f.D Z N B Z Z B M M N N N M B V N M M M M M M n f d b L U C n x x C d 8 & / ` ",
"oX:.X O 4 M n i < V j.c.c.g.P Z M B V M M N B N N B B M M M M k f d v b N U c.h.I < x n P l 4 . W -.",
"].H.*./ e z P S c p M r.g.h.g.r.B M k k k k N N V B V k c k M k b b N P h.c.z.m i < n U h.J 0 W ,.Q.",
"].^.H.,.o.e t.r.M p y M Z g.g.g.t.L l d g k N L L B N N f d v N N P U g.l.k.r.i < < N P e.[ ^ >.H.XX",
"(.).'.H.=.* j B U v t t k r.h.c.c.g.P L N M N L L B C N v v M P U c.x.k.g.M t > < d b J r ! >.^.`.'.",
"(.(.(.(.6.( 0 z f.Z N M l N P r.z.g.P P P P t.P P P P Z L L L U g.k.U L v y t y d N f q $ ` 8.{.].(.",
"]._.P._.G.,.^ H B f.g.P B M k N K P P K P t.z.g.f.P U U U P L P P P b s t t y V Z B 8 $ W <.L.'.(.D.",
"].R.I.I.T.Q.2. .l P k.x.U L u y 1 y a f L g.x.l.g.P U z.g.P B d u 1 1 1 y f Z g.L 8 F G C.Q.).L.R._.",
"].).T.U.R.].0.2.{ [ J J P U m b v s s i L z.c.x.g.P g.c.c.U f i 1 s v b N N B l H F F -.L.R.U.K.R._.",
"].(.T.I.U.W.T.0.;.) F F L T T U L b s y L x.#X@Xg.f.z.c.c.U d 1 i b P U U B a r 9 W :.L.R.U.J.J.R._.",
").).(.R.R.E.T.!.0.3.' _ H J J K L l f d L k.@Xx.T k.T g.g.L d d f L l f 5 8 F ..&.A.Q.P.U.U.I.U.(._.",
"/.)./.W.R.U.R.P.!.F.9.<.#.[ ~ G 9 w 8 a f N U I I I I L L J 5 5 6 8 G F 9 / &.3.Q./.).).U.R.R./._._.",
"L.!.{././.P.P.R._._.(.L.7.>.) W $ $ # + 3 y d v v x s f s 8 , o o # $ ! &.4.L.P.).R.).R.R.P.R./.'.'.",
"P.).[.).R.R.P.R.E.R.R.I.P.L.0.<.;.&.` F & @ + 2 , 6 5 + o @ $ Q _ -.<.8.7.P.R.I.U.U.R.R.).R.R.R.(.].",
"R.).R./.).R.R.R.R.R.Y.Y.E.E.P.P.L.0.4.` ( R * F F F F F $ W ) >.8.Q.L.P.).R.Y.Y.U.R.R.R.R.R.!.R._._.",
"W.W.R.R.R.).).).R.R.I.R.U.U.I.I.E.).!.L.7.:.4.4.8.-.;.<.4.7.L./.P.P.R.U.R.U.J.Y.E.W.R.T.P.R.R.W.E.E.",
"W.U.U.R.R.).).R.).R.R.R.R.U.I.R.R.R.R.P.K.K.K.K.K.0.L.L.L.L.P.P.R.R.R.U.R.R.U.E.E.R.T.P.I.P.R.R.T.Y.",
"U.U.R.R.R.R.).).P.).).R.R.R.R.R.R.R.R.R.R.U.U.J.K.E.R.R.R.K.U.R.R.U.R.U.U.I.(.R.R.T.I.T.T.I.K.R.T.T.",
"P.P.R./.).).P.R.P.P.R./.R.U.R.R.R.).R.R.R.R.R.R.U.R.R.R.K.K.R.R./.U.R./.E.(.(.P.T.T._._.R.T.T.P.(._.",
"oX/././.[.).R.R.R.)./.)./.R.R.).).).R././.).).{.'.R.).R.R.).].).R.R.R.[.{.).).).T.)._._._._.(.'.'.'.",
"OXoXoX/.{.)./.).R.R.R.).).W.R./.R./.{./.{./././.{.'.'.).).).{.'./.L.{.[.{./.)./.).]._._.[.'.].]..X.X"
};
