/* XPM */
static char *_176e1f77c37483ba079767d041deff9h3IWPhMsePMpeUW6[] = {
/* columns rows colors chars-per-pixel */
"50 50 177 2 ",
"   c None",
".  c #362F2B",
"X  c #343436",
"o  c #35353A",
"O  c #37383A",
"+  c #3B3B3D",
"@  c #343934",
"#  c #3F413E",
"$  c #4F443C",
"%  c #514438",
"&  c #59433C",
"*  c #6E442C",
"=  c #764625",
"-  c #794623",
";  c #7C4A26",
":  c #794629",
">  c #7B4A2A",
",  c #75452A",
"<  c #684A34",
"1  c #734F3D",
"2  c #7F5637",
"3  c #2D3843",
"4  c #373C43",
"5  c #3B3C41",
"6  c #433E42",
"7  c #3F4040",
"8  c #775642",
"9  c #5F6766",
"0  c #616367",
"q  c #82481E",
"w  c #854C24",
"e  c #8A4E25",
"r  c #8A4E28",
"t  c #814E2A",
"y  c #8D5025",
"u  c #915225",
"i  c #985628",
"p  c #835635",
"a  c #875935",
"s  c #8E5A34",
"d  c #855B3C",
"f  c #8A5C3A",
"g  c #895737",
"h  c #925B34",
"j  c #9B5E33",
"k  c #945D39",
"l  c #976537",
"z  c #9C6239",
"x  c #A2602F",
"c  c #A36336",
"v  c #BB6C32",
"b  c #CE691D",
"n  c #D16E1F",
"m  c #D96F1F",
"M  c #E2701E",
"N  c #CE6D24",
"B  c #C86C2C",
"V  c #D26E24",
"C  c #D86F26",
"Z  c #D06F28",
"A  c #CE7023",
"S  c #CE722D",
"D  c #D67226",
"F  c #DA7325",
"G  c #DF7824",
"H  c #D67229",
"J  c #DC7529",
"K  c #DE7829",
"L  c #C56E30",
"P  c #D87830",
"I  c #E27625",
"U  c #E57A26",
"Y  c #E97B26",
"T  c #E17729",
"R  c #E57B2A",
"E  c #E97B29",
"W  c #996747",
"Q  c #8C6D56",
"!  c #A36E54",
"~  c #887164",
"^  c #B47F63",
"/  c #C17E59",
"(  c #BD876A",
")  c #B98465",
"_  c #AC8A7C",
"`  c #BC8E7B",
"'  c #C4835B",
"]  c #CB865E",
"[  c #C4885E",
"{  c #C78760",
"}  c #CA8B64",
"|  c #C48C6E",
" . c #CB8E69",
".. c #C1876A",
"X. c #D08F69",
"o. c #D08D64",
"O. c #C8916C",
"+. c #C38E71",
"@. c #C69276",
"#. c #CB9474",
"$. c #C2907C",
"%. c #D49A73",
"&. c #D9A179",
"*. c #A18E87",
"=. c #A5968E",
"-. c #B99684",
";. c #BE9E92",
":. c #BDA49A",
">. c #BEA89E",
",. c #BEA396",
"<. c #BFAEA5",
"1. c #C29684",
"2. c #C09E86",
"3. c #C39C8C",
"4. c #C89A85",
"5. c #C39E93",
"6. c #C5A28C",
"7. c #CAA18F",
"8. c #C5A395",
"9. c #CBA495",
"0. c #CDAB94",
"q. c #C4A49A",
"w. c #C9A69A",
"e. c #C6A99E",
"r. c #CBAA9D",
"t. c #D2AE9B",
"y. c #D3AD96",
"u. c #D3B19B",
"i. c #CDA7A3",
"p. c #C4ADA4",
"a. c #CCADA3",
"s. c #CBAEAA",
"d. c #D0ADA3",
"f. c #D1ABA8",
"g. c #CDB1A5",
"h. c #C7B6AC",
"j. c #CFB5AA",
"k. c #D2B3A5",
"l. c #D2B4AA",
"z. c #D8B7AB",
"x. c #D4B9AC",
"c. c #D9BAAB",
"v. c #CBB8B2",
"b. c #D5BAB2",
"n. c #DABEB3",
"m. c #D6C0AD",
"M. c #D5C2B5",
"N. c #DBC2B5",
"B. c #D5C2B9",
"V. c #DDC4BA",
"C. c #DEC9BE",
"Z. c #E1C6BC",
"A. c #E2CABE",
"S. c #D4C7C0",
"D. c #D7C8C2",
"F. c #DECCC3",
"G. c #DECFC9",
"H. c #E4CDC3",
"J. c #E7CFC8",
"K. c #E6CBC3",
"L. c #E5D1C5",
"P. c #E9D2C6",
"I. c #E5D3CA",
"U. c #EAD5CC",
"Y. c #E7D8CB",
"T. c #ECD9CE",
"R. c #F2DBCF",
"E. c #EDD7D0",
"W. c #E7D9D1",
"Q. c #EDDCD3",
"!. c #E4D6D2",
"~. c #F1DDD5",
"^. c #F2DFD9",
"/. c #EFE0D5",
"(. c #EFE3DA",
"). c #F2E2D7",
"_. c #F2E3DA",
/* pixels */
"                                                                                                    ",
"                                                                                                    ",
"                            V.L.I.L.B.                        F.L.K.F.v.                            ",
"                      H.h.,.Y._._._.H.:.                    p.R.).).).V.j.W.                        ",
"                  G.).R.g.2.H.(._._.P.N./.T.~.U.i.Z.~.).~.n.;.H.(._.(.x.n.)._.W.                    ",
"                  Q._.U.q.3.H._._._.U.V._._._._.l.C.)._.~.N.8.Q._._._.A.k._._.Q.                    ",
"                H.(._.K.w.3.A._.(._.L.N._._._._.x.N._._.Q.k.8.E._._._.N.b._._._._.                  ",
"              b.U.).I.b.8.3.N.~.Q.I.V.l._._.).Q.k.k.~._.Z.8.5.K.P.T.G.b.x.Q._.~.(.                  ",
"              p.N.x.r.w.3.;.w.N.n.z.r.d.H.I.H.K.i.w.C.I.Z.w.5.l.r.t.w.r.w.g.x.l.V.b.                ",
"            I.F.A.n.C.V.a.) ) +.#.| ( ! @.@.#.#.) ( ( @.#.+.W | | +. ...5.V.Z.V.V.H.U.              ",
"            Q._._./._.~.z.N V b T C V C D D T U V D N D C T V Z D T U K %.Q._._._._._.              ",
"            ~._._.)._.L.6.N D N R D V H D D R R V D D D F R V H D R Y Y ] F.).).)._._.Y.            ",
"            Q._.)._.(.Q.0.N D V R H N N N C U Y D H V D T R V D V I U R } !._._._._.^.G.            ",
"            b.H.Z.T.T.A.y.N N V R H N N N H J D V N N D J J V Z N U U E X.F.T.W.U.K.V.p.            ",
"            :.q.r.k.d.w._ k h s z j s g h h h j h s s h j z h k k l c c Q q.i.j.a.w.,.              ",
"                W./.Q.Q.=.X 5 O $ @ 5 O O 7 O 7 o + O + + X 7 X 6 @ 6 3 0 E.Q.~.~.E.                ",
"                (._.(.Q.p.= - ; > t = > ; - ; ; - = - = ; ; - - : , q - ~ )._._._.^.                ",
"                (._.Q.K.3.N V C R U N H D D I U V H D F Y E D H H J Y E ] Z.Q._._.Q.                ",
"                ).U.L.K.3.V D V E Y N H D Z I E D D D F E Y T C H D Y E ' Z.P.U.~.U.                ",
"                g.r.i.5.$.V D C E U N H H N I E D D D F E E J D D G Y E ' ;.w.w.g.a.                ",
"            M.A.L.P.A.n.3.V D D E E N D D N J E D D D F E Y J D D D Y E { N.A.H.I.H.B.              ",
"            H./._._._.K.3.V D D E E N D D N G E J D H F E Y J H F D Y E ] A.).)._.~.Y.b.            ",
"            Q._.(._.(.U.9.N D C E E A D H N K Y F C D J Y Y D H D G Y R } P._._._._.).G.            ",
"            H.(._._.^.H.7.V D C E E D D D N I E J D H T E Y D H C G Y R } Z.W._._._./.              ",
"            M.Y.H.T.Q.b.1.N D V R R D D H A I E J H D F E E C H D K Y R ' g.U.T.L.U.H.              ",
"            p.s.k.x.a.w.` A F n K K D D H V J E T D D F Y E C D m K Y R / e.a.l.x.a.p.              ",
"                T.Q.U.U.w.V D v < % x D H D I E J D D F E Y D D F U Y R  .I.T.T.Q.U.                ",
"              I.)._._._.m.V F c 4 O $ S C D T E J C D D E Y V D F I Y R %._._._._.U.                ",
"              B.Q.)._.T.w.V D d . . & L D D U R D D D J E E V D D F Y R  .U._.(._.F.                ",
"              h.R._._.I.9.V D 1 w * u j C C R Y D D D T E E V H C F Y E } U./.(._.V.                ",
"                j.A.Z.l.1.Z I 8 K R W i G G U R G D D U E E D D H C Y R ' v.N.H.N.w.                ",
"            S.V.K.Z.A.n.-.N H L d d > b H H E Y T H D U E E D D H H Y Y / b.V.C.K.A.F.              ",
"            Q._._._._.Q.q.n D F Y G V H F G Y Y K D D U E Y C D H D Y E  .Q._._.(._.).G.            ",
"            ^._._._.).).c.V F H R R D D D D R Y K D D T E Y D D H D Y R %._._._.(._.(.G.            ",
"            I.Q._.Q.T.U.6.V D V E Y D D D V R R G D H K E Y J H C J Y R } J.^._._.).U.M.            ",
"            g.b.K.N.x.r.4.V D V E E D H F D Y E H D D J E Y J D H H Y E { d.k.n.H.n.r.a.            ",
"                b.l.s.5.` V D V E E D D D V U Y J D D G E Y G H H J Y E ' 8.w.k.l.j.                ",
"                ~.Q.~.H.8.N D V E E D H H V R R H D H D E E I D C C Y Y [ V.~._._.Q.                ",
"              W._._._.~.r.n V V E Y F D F V T E J C F G Y Y F V H m E Y O.~.)._._.~.                ",
"              ^._.)._._.>.2 2 p f s p p p 2 a s p p p p f f g p d p f s ~ (._.(._._.                ",
"              D.R.Q.Q.I.*.X + X + X 5 o O + o + o 5 o 5 O O 5 X + X 5 X 0 P.~.~.Q.H.                ",
"                k.l.l.w._ w w r r u e r e w y e w w w u u y y w r e e u Q 8.g.k.j.g.                ",
"            V.F.b.Z.V.V.8.N V Z G R D D D V U F D C A H T U V V H D I T } Z.V.V.V.V.C.              ",
"            L.)._._._.).m.V D C U Y D H D C R U F D D H I I D H D D Y R %.~._._.(._.T.              ",
"            L._._._._._.A.N D V E E V H D D R E J D D G Y R D D C D Y R &._._.)._._.~.              ",
"            N.U.U.Q._._.Z.N V n U U b V C C I I J V V J I I V V N N I G %.Q._._.Y.Y.L.              ",
"            q.a.j.H.U.L.w.6.0.u.2.7.t.t.y.t.t.d.-.0.u.u.0.0.0.u.` 6.y.9.8.A.^.~.c.k.w.              ",
"                                        s.a.t.t.r.d.f.i.    i.                                      ",
"                                                                                                    ",
"                                                                                                    "
};
