/* XPM */
static char *_4e84b48c4df4b17aeb6e62e52cd3e3fDUmQ0gVuLKNI8NyO[] = {
/* columns rows colors chars-per-pixel */
"50 50 256 2 ",
"   c #110F17",
".  c #1F2F09",
"X  c #2C3416",
"o  c #09172D",
"O  c #172F31",
"+  c #263B2B",
"@  c #353728",
"#  c #363B38",
"$  c #292B2D",
"%  c #201F30",
"&  c #4D3A2F",
"*  c #3C7113",
"=  c #174430",
"-  c #294826",
";  c #254639",
":  c #364538",
">  c #3E5B33",
",  c #32572B",
"<  c #386B2E",
"1  c #274B14",
"2  c #49671F",
"3  c #545829",
"4  c #474638",
"5  c #534B33",
"6  c #4C5637",
"7  c #545738",
"8  c #4C5128",
"9  c #624939",
"0  c #466927",
"q  c #586339",
"w  c #516F33",
"e  c #677539",
"r  c #6A6E38",
"t  c #073349",
"y  c #0A3459",
"u  c #0F3148",
"i  c #063568",
"p  c #0C3771",
"a  c #2D334B",
"s  c #463B44",
"d  c #184357",
"f  c #3C544F",
"g  c #32664C",
"h  c #16526A",
"j  c #384E6C",
"k  c #237365",
"l  c #167372",
"z  c #484C45",
"x  c #554A43",
"c  c #485747",
"v  c #565747",
"b  c #494C58",
"n  c #495656",
"m  c #555955",
"M  c #75584B",
"N  c #5A6448",
"B  c #5B6355",
"V  c #52704C",
"C  c #666B4A",
"Z  c #756746",
"A  c #697847",
"S  c #757948",
"D  c #66695C",
"F  c #6A7557",
"G  c #747A5B",
"H  c #7B6653",
"J  c #485567",
"K  c #526F72",
"L  c #6A6967",
"P  c #757874",
"I  c #6F736A",
"U  c #745A69",
"Y  c #815C37",
"T  c #896849",
"R  c #98795B",
"E  c #8A6D54",
"W  c #A97854",
"Q  c #96736C",
"!  c #AB786B",
"~  c #845C4D",
"^  c #C5785A",
"/  c #398D38",
"(  c #6F8834",
")  c #478621",
"_  c #32986D",
"`  c #289A64",
"'  c #558C4A",
"]  c #7C8746",
"[  c #738A4E",
"{  c #4A8C73",
"}  c #6B8E61",
"|  c #53AD70",
" . c #7CAA6E",
".. c #58A65D",
"X. c #868A3E",
"o. c #A0AE3C",
"O. c #828B45",
"+. c #858C48",
"@. c #8A9648",
"#. c #919D4A",
"$. c #899853",
"%. c #969C57",
"&. c #92885B",
"*. c #BA8458",
"=. c #99A556",
"-. c #93A64E",
";. c #A1AC54",
":. c #A9B555",
">. c #B6BD58",
",. c #A2AB4E",
"<. c #8D896E",
"1. c #B8856B",
"2. c #B08C6C",
"3. c #97A96C",
"4. c #B6BE68",
"5. c #B2BB69",
"6. c #DB976A",
"7. c #CA9A76",
"8. c #D0936C",
"9. c #E6996C",
"0. c #EA9C77",
"q. c #F29D78",
"w. c #F89C6E",
"e. c #DDAA76",
"r. c #D4AA73",
"t. c #EBA26D",
"y. c #EBA375",
"u. c #E9A579",
"i. c #F2A173",
"p. c #F3A27A",
"a. c #F6AA77",
"s. c #FEB27A",
"d. c #BACA4B",
"f. c #BAC758",
"g. c #BCD45B",
"h. c #BCD34C",
"j. c #B9C566",
"k. c #BDD467",
"l. c #BECD76",
"z. c #BEE167",
"x. c #8EC37F",
"c. c #C9D64B",
"v. c #C3CF53",
"b. c #C4CD5B",
"n. c #C8CE5A",
"m. c #C6CB56",
"M. c #C6D354",
"N. c #CAD555",
"B. c #CBD955",
"V. c #C6D25B",
"C. c #C9D45C",
"Z. c #CBD95C",
"A. c #C5DA5B",
"S. c #D2D95C",
"D. c #D2D65B",
"F. c #CDD54B",
"G. c #C2CE63",
"H. c #C8CB68",
"J. c #C5D363",
"K. c #CBD562",
"L. c #CCD963",
"P. c #C5D46B",
"I. c #CBD46A",
"U. c #C8DA69",
"Y. c #D2D967",
"T. c #CBD972",
"R. c #C6C870",
"E. c #D2E06B",
"W. c #053E8D",
"Q. c #035E8B",
"!. c #0F5294",
"~. c #0C6694",
"^. c #296F89",
"/. c #0855BA",
"(. c #0E53AB",
"). c #0D72AE",
"_. c #2D5D9C",
"`. c #747484",
"'. c #0D56C7",
"]. c #0379C3",
"[. c #096ACF",
"{. c #A77E8F",
"}. c #198B94",
"|. c #118CB8",
" X c #328EAB",
".X c #24969F",
"XX c #478DB7",
"oX c #4DAFA5",
"OX c #68ACA2",
"+X c #4FC093",
"@X c #0596C9",
"#X c #0695D6",
"$X c #0C8DCD",
"%X c #0B92E4",
"&X c #3694C0",
"*X c #899586",
"=X c #95998D",
"-X c #8D9499",
";X c #959797",
":X c #898B89",
">X c #8FA78E",
",X c #ABA99B",
"<X c #94B0B3",
"1X c #A8A9A5",
"2X c #ADAEB3",
"3X c #ACB3B6",
"4X c #B3B5B3",
"5X c #A09892",
"6X c #D0A486",
"7X c #E9AA86",
"8X c #F3AC85",
"9X c #E7B48B",
"0X c #F7B685",
"qX c #F6B89A",
"wX c #E7AF91",
"eX c #C2B2BA",
"rX c #DCA696",
"tX c #9AC78D",
"yX c #BAC4BC",
"uX c #A0CC83",
"iX c #F2C398",
"pX c #C1CBBB",
"aX c #ECC5A6",
"sX c #F7C4A6",
"dX c #F5DABA",
"fX c #F0CEB6",
"gX c #F6E2B9",
"hX c #AAB5C5",
"jX c #B9BCC7",
"kX c #BCC6CC",
"lX c #DCDECC",
"zX c #DADCD5",
"xX c #C9CECE",
"cX c #F6DBC8",
"vX c #E2DED9",
"bX c #E5DBCD",
"nX c #D8E1D2",
"mX c #F8E2CB",
"MX c #F7E7DA",
"NX c #E1ECDF",
"BX c #DCDEE2",
"VX c #E3DDE6",
"CX c #DAE4E3",
"ZX c #E8ECEA",
"AX c #EDF3E9",
"SX c #F6F4EB",
"DX c #EBEFF7",
"FX c #ECF3F4",
"GX c #EDF8F9",
"HX c #F4F6F4",
"JX c #F3FAF4",
"KX c #FBFAF4",
"LX c #F3FAFB",
"PX c #FAFCFA",
"IX c #F8F5FB",
"UX c #F5EBE3",
/* pixels */
"L.I.L.K.K.K.K.K.K.L.K.K.Z.K.C.K.L.C.N.Z.Z.L.b.I.I.K.J.P.I.K.B.D.D.Y.n.N.F.N.L.K.K.Y.K.K.K.K.L.Y.I.K.",
"L.L.K.K.K.K.J.C.Z.K.Z.K.C.Z.C.C.L.C.C.K.C.C.L.L.K.L.J.b.I.I.K.Z.I.Y.K.C.c.N.L.K.Z.K.K.C.b.J.K.I.L.K.",
"I.K.K.n.J.K.C.C.J.C.C.C.n.M.C.Z.C.V.g.j.j.k.E.C.M.L.C.g.J.H.R.4.j.T.U.C.v.C.Z.C.C.K.C.b.b.b.V.K.L.L.",
"K.K.K.C.n.b.C.V.C.C.C.V.V.V.C.L.J.:.#.O.] #.j.g.h.M.V.V.:.%.[ S $.4.j.J.C.K.K.C.C.C.K.C.b.b.b.K.K.I.",
"K.K.K.V.C.b.K.C.C.C.C.C.V.V.J.k.j.$.A N 7 e =.f.g.f.m.f.#.S q v C %.5.g.I.K.C.b.C.C.C.C.b.C.C.K.K.L.",
"K.K.K.K.V.C.K.C.C.C.C.C.V.V.k.5.3.F v b 4 v S 3.R.R.>.,.] q z n B S $.:.K.C.V.N.V.C.C.K.C.K.K.K.K.K.",
"K.C.C.C.K.C.C.C.C.C.C.C.M.d.:.@.v I -XhX3X=XF [ 3.l.;.r F *X3XyX;XF r X.f.C.N.C.C.C.C.C.K.K.K.C.K.C.",
"K.K.K.C.V.C.C.C.C.C.C.C.M.h.,.e X `.jXDXZXyXB c C %.e X L 2XGXDXyXF 8 3 >.C.C.C.C.V.M.b.C.C.C.K.C.C.",
"L.K.C.C.C.V.C.C.C.C.C.v.C.M.:.q   OXxXLXJXpXx $ $ 8 X   P jXIXLXxXP 6 3 4.K.C.C.Z.N.V.M.n.C.Z.C.K.C.",
"C.C.C.C.C.M.C.C.C.M.N.C.b.>.=.C @ ;XxXJXSXxXI b # 4 : # :XxXFXIXzX:Xv q 3.4.v.N.C.C.C.b.V.C.C.C.C.K.",
"C.K.K.V.C.V.V.C.C.N.C.v.:.&.+.G Q 4XCXFXJXnX,X} L P I K 2XzXDXIXVX1X} F G -.d.v.C.Z.C.N.b.C.C.C.Z.Z.",
"K.C.C.C.V.C.N.C.C.C.C.C.%.C v :XzXZXPXPXJXSXAXvXzXCXnXnXNXFXPXIXSXZXxX*X: r o.d.v.Y.C.C.N.V.V.C.C.K.",
"L.C.C.C.C.C.V.C.C.C.C.C.@.x v ;XHXPXPXLXLXLXLXJXHXJXHXHXJXJXGXLXLXLXCXkX`.G ] @.:.L.Z.C.C.V.C.I.K.n.",
"K.L.K.C.C.C.C.C.C.C.V.C.@.7 v ;XPXPXPXFXGXLXJXSXUXSXKXIXJXHXAXFXHXJXJXZXkX-XB N $.J.A.V.V.N.n.I.K.n.",
"L.K.C.C.C.C.C.C.C.C.V.C.@.8 c ;XIXIXPXLXPXIXMXmXmXcXMXMXmXcXmXmXcXcXMXSXDX<XB 6 +.k.J.A.K.C.C.T.K.n.",
"K.K.K.K.C.C.C.C.C.V.C.v.@.0 c ;XIXKXPXPXHXUXfXsXiXiXaXfXaXiXsXqXqXqXfXmXUX,XB q ] J.J.A.Z.C.n.I.K.D.",
"K.K.K.C.C.C.V.C.C.V.C.V.[ w m ;XIXIXKXKXMXfXrXu.y.u.u.6Xu.0.0.i.w.9.0XsXcX5Xv 7 O.J.A.A.L.V.b.H.K.N.",
"K.K.K.K.C.N.C.C.C.N.C.V.@.> n -XDXIXKXMXcXqXu.q.i.y.p.p.0.u.p.a.a.t.a.qXsX2.z 7 ] A.V.C.C.N.C.K.K.C.",
"I.K.K.J.C.V.C.C.C.N.V.N.@.> b ;XFXKXSXcXsX8Xw.9.9.8.6.i.0.y.8Xa.t.8.6.u.qX! z 6 ] J.V.V.C.C.C.I.K.D.",
"K.K.K.K.C.C.C.C.C.C.V.V.@.N m ;XFXJXUXfXwXi.w.6.*.E ! y.y.y.r.e.7.2.&.! 0.R 4 7 O.J.g.M.C.C.C.I.K.N.",
"K.K.K.K.V.C.C.C.C.C.C.C.@.7 v ;XDXLXSXdXqXq.w.^ r & H 6.i.a.a.9X8.M 9 H 8.R x 3 O.K.V.C.K.C.n.I.K.N.",
"K.K.K.K.C.C.C.C.C.C.C.C.@.7 v 5XDXLXHXcXqXq.w.W & O m 8.a.s.s.7X! 9 @ 5 8.R z 7 +.J.C.K.K.C.b.H.K.D.",
"K.K.J.C.C.V.C.C.C.C.C.V.@.7 v ;XDXGXFXmXqXq.9.~ & % v 8.i.s.0Xu.^ 9 & & W T 4 5 O.H.C.C.L.C.C.I.L.D.",
"K.C.K.C.C.V.C.C.C.C.C.C.@.c v =XZXGXAXmX8X9.0.! U b E 6.p.8X8Xa.8.Y M ~ ^ ~ 4 5 +.I.J.C.L.Z.K.I.K.C.",
"K.K.C.J.C.C.C.Z.F.B.Z.A.$.c v =XAXAXZXmXwX6.0.6X{.! 1.0.q.8X8Xq.9.*.1.1.8.T 4 7 +.I.V.V.J.C.K.I.K.n.",
"I.Z.M.J.J.A.K.Z.F.F.c.U.#.7 m ;XAXIXIXUXaXe.0.u.0.0.0.q.q.q.7Xq.t.t.u.0XwX! z 7 O.P.C.V.v.K.K.K.K.C.",
"T.K.C.J.J.V.K.K.F.F.Z.k.$.7 n -XAXHXIXSXbXiXwXp.p.0.q.0.t.t.9.9.t.t.s.iXfX5Xv 6 ] P.A.N.M.C.K.J.K.L.",
"I.Y.Z.V.g.v.K.Z.c.B.U.k.[ g n >XAXHXIXPXSXmXaX9Xu.rX7Xu.u.e.e.u.r.r.iXdXMX,Xm 5 ] P.C.c.M.C.K.H.J.I.",
"I.K.A.J.V.g.C.K.c.k.5.[ 6 + c >XSXSXPXIXIXKXUXbXdXcXcXcXgXgXgXgXdXgXmXMXSX2XD 7 ] T.L.B.B.C.K.K.P.I.",
"I.Z.A.V.V.V.K.K.V.j.$.w , - c *XlXvXVXVXVXVXzXzXlXzXbXzXbXlXvXlXzXbXzXCXBX<XD q @.P.Z.B.N.K.J.H.P.P.",
"Y.n.C.C.V.C.L.K.A.=.F > , 6 C <.,XeXeXeX3X2X3X4XyX1X2X2XhXhXhXhX2X2X3XhXhXOXA r #.g.M.N.N.n.J.I.L.K.",
"D.K.Z.J.A.V.K.Z.A.[ V }  .3.} F m b b J b f c c g f f J j J j n n x b b b Z $.=.>.C.Z.C.b.G.K.K.C.C.",
"K.K.K.K.V.V.C.C.V.[ c 3.tXuX} g d y y y t O + + O O t t y y y ; - $       7 =.j.J.Z.D.C.b.H.K.K.C.c.",
"D.K.C.C.J.V.C.C.g.A g tXtX..g h Q.(.).(.~.^._ {  X^.Q.Q.Q.~.^.{ ' > $     5 ;.k.A.N.N.n.b.K.I.Y.B.N.",
"Z.C.b.J.K.V.V.B.A.e >  .} g = h &X&X&X&X|.}.| +XoX$X].|.|.|. X+X| < + % $ C %.:.f.C.N.n.n.Y.I.D.C.N.",
"Z.K.b.J.J.K.C.B.A.' ; ..) - O j OX<X<X_.^.k ..| oX%X#X#X#X#X.X+X..< # s L H S ( ,.K.N.M.n.K.I.H.C.C.",
"Z.K.J.J.J.J.C.B.h.( ; ) w - & L 6X9X6XQ : . ) / _ $X#X#X@X$X}._ g 1 @ M 7.<.v 3 X.Y.v.v.N.D.K.H.H.I.",
"L.K.K.K.n.b.C.A.g.w - / < = @ E e.iX6X! & . ) / ` @X@X@X#X$X.X` / . & M e.2.x 3 X.J.c.c.N.n.K.n.K.K.",
"K.K.C.n.n.m.Z.J.k.( 1 ' < = @ T e.9X7.Q & X < / .X@X@X$X%X%X$X{ * . - M 7.&.7 3 X.b.N.c.N.C.n.K.C.N.",
"b.C.K.n.n.C.C.b.k.( < < , , 2 r R R R L j h l ^.}.$X$X$X#X#X$X}.k + @ 5 R E Z S =.K.N.v.N.n.n.J.C.n.",
"m.J.K.n.C.S.v.v.k.-.( * , < * 0 # & s j !.(.~.).).[.[.].).].].[.~.y % X 7 S $.-.>.K.M.M.N.K.H.K.C.C.",
"b.K.K.n.C.S.v.m.k.j.-.w 2 0 2 1     o i (.'.'./.(.'.'.(.(.(./.'.'.p % . @ C 5.r.K.S.N.N.C.K.I.K.K.C.",
"I.K.J.K.K.S.N.N.z.J.j.-.[ 6 - O % o o p !.(.h p p i i y t i W././.p u 8 S %.j.G.C.D.B.C.b.J.H.I.K.K.",
"E.K.m.K.Y.D.N.B.S.Z.k.j.$.C 6 : a % u p _.^.d t u : f : O o p _._.h ; 3 ;.H.J.N.C.N.B.C.b.J.I.I.I.K.",
"L.J.f.L.K.C.D.D.D.C.n.I.j.$.&.G C : $ j `.`.# $ : e @.X.8 $ a `.`.j # 3 m.D.N.M.M.N.C.C.b.H.I.I.K.K.",
"A.C.J.J.J.b.C.B.N.N.n.H.f.d.>.:.o.q 4 x Q Q x 4 q #.>.,.q & s Q {.m c 6 >.N.N.M.c.B.C.C.G.K.K.K.K.K.",
"V.C.K.J.G.f.b.N.M.N.C.b.M.B.B.c.h.( Z T 7.5.E Z +.>.D.m.O.r Z *.7.<.F [ f.M.m.M.N.C.C.V.J.K.K.J.V.V.",
"B.L.I.P.J.f.V.V.C.Z.Y.b.g.V.d.m.E.l.r.>.Y.T.4.f.v.n.F.F.m.R.4.H.H.R.5.j.D.D.v.N.C.C.V.b.C.C.V.C.V.V.",
"Z.L.L.P.U.U.J.L.A.L.K.K.C.C.k.J.U.I.K.b.L.L.U.J.N.K.V.M.B.A.C.U.K.K.I.L.K.C.J.C.K.Y.C.C.Z.C.C.S.L.L.",
"Z.Z.U.T.T.T.U.U.L.C.C.K.D.D.U.P.P.D.D.C.g.g.K.D.Y.P.J.g.c.B.B.z.z.L.Z.Z.V.J.K.K.K.I.K.K.Z.C.C.Y.E.L."
};
