/* XPM */
static char *_029_6c1680b884f83d52fbae9995ee637367c40922bfe9073527f24d3ae960f5a6a8[] = {
/* columns rows colors chars-per-pixel */
"50 50 24 1 ",
"  c black",
". c #020202",
"X c #090809",
"o c #111111",
"O c #1D1E1D",
"+ c #23120D",
"@ c #3A2106",
"# c #272626",
"$ c #53260C",
"% c #513015",
"& c #6D371C",
"* c #542E20",
"= c #73441E",
"- c #715946",
"; c #955826",
": c #865D41",
"> c #A1694A",
", c #C5875E",
"< c #0F368B",
"1 c #0059BA",
"2 c #0064CD",
"3 c #C7C6C5",
"4 c #DFD2C2",
"5 c None",
/* pixels */
"55555555555555555555555555555555555555555555555555",
"55555555555555555555555555555555555555555555555555",
"55555555555555555555555555555555555555555555555555",
"555555555555555555555::::::***55555555555555555555",
"55555555555555555+:::----::--:***55555555555555555",
"5555555555555555**---------:----:**555555555555555",
"555555555555555*----------:::::--::*55555555555555",
"55555555555555*-44----------:--::-::*5555555555555",
"5555555555555*:44------------:---::::*555555555555",
"5555555555555*-4-------------:----:::*555555555555",
"555555555555*:--4------------------:::*55555555555",
"55555555555+*:-434--------------4--:::*55555555555",
"555555555 +**:-433--------------44--::*55555555555",
"5555555555 *::--434------------4-4--::* 5555555555",
"55555555555*::--44-4444-------44----::* 5555555555",
"5555555555+*::---4-434-444444434----::* 5555555555",
"555555555++*::------44-43334-44-----::* 5555555555",
"555555555+**::--:-------444---------:** 5555555555",
"55555555+***:::-:-----------------:-:** 5555555555",
"55555555+  *:::-:-----------------*-:* $5555555555",
"55555555 55*:::::---:---------:---*::* $5555555555",
"55555555555 ::::::--:---------:--:*:: , 5555555555",
"55555555555 *:::*:--:---------:--:*:* > 5555555555",
"555555555555 :::*::-::-------::-:*:: & 55555555555",
"555555555555 *::*:::::-------::::*::  555555555555",
"5555555555555 ::**:::::-----:::::*:* 5555555555555",
"55555555555555 ***::::::---:::::**: 55555555555555",
"555555555555555 **::::::::::::::*** 55555555555555",
"5555555555555555 **::*:::::::*:*** 555555555555555",
"55555555555555555  *:*:::::::***  5555555555555555",
"5555555555555555...  **:::::**  ....55555555555555",
"555555555555555.X.XXo  *:::*  oXX.Xo.5555555555555",
"55555555555555.OOX....o     o....XO#O.555555555555",
"55555555555555.o#OXXooXXXXXXXooXXOOooX.55555555555",
"5555555555555.XoooXoOOOOoooOOOOoXoooooo.5555555555",
"5555555555555.oooo.oOOOOOoOOOOOo  XoOOo.5555555555",
"5555555555555.XooX.XooOOOoOOOooX.5 oOOOo.555555555",
"5555555555555     .XoOOOOoOOOOoX.5     o.555555555",
"55555555555555 == ...............5 =%;;  555555555",
"555555555555555  5.oOOOOOOOOOOOo.55 %==@5555555555",
"555555555555555555               555   55555555555",
"55555555555555555.ooOOOOOoOOOOOo.55555555555555555",
"55555555555555555.oOOOOOOooOOOoo.55555555555555555",
"55555555555555555.oO      oooooo 55555555555555555",
"555555555555555555  <1221<      555555555555555555",
"55555555555555555555@%%%%@5 %% 5555555555555555555",
"55555555555555555555@=;;=@555555555555555555555555",
"55555555555555555555555555555555555555555555555555",
"55555555555555555555555555555555555555555555555555",
"55555555555555555555555555555555555555555555555555"
};
