/* XPM */
static char *fcc58350bfa74936c468d35c68488d12Y21D5QwFdI8aXxHz[] = {
/* columns rows colors chars-per-pixel */
"50 50 118 2 ",
"   c #3E1407",
".  c #411608",
"X  c #441809",
"o  c #4A1C0B",
"O  c #592710",
"+  c #5D2A12",
"@  c #632E14",
"#  c #653014",
"$  c #6D3411",
"%  c #6F3718",
"&  c #703712",
"*  c #723C14",
"=  c #7B3B17",
"-  c #733A19",
";  c #7E3B18",
":  c #764117",
">  c #784217",
",  c #784218",
"<  c #803D19",
"1  c #83411B",
"2  c #89461E",
"3  c #864A1D",
"4  c #8A4A1F",
"5  c #8C4D22",
"6  c #904E22",
"7  c #955325",
"8  c #9A5627",
"9  c #9E5827",
"0  c #9C5728",
"q  c #9E5829",
"w  c #A35626",
"e  c #A35B2A",
"r  c #AA5E2C",
"t  c #B45F2D",
"y  c #A7612F",
"u  c #AB612E",
"i  c #B6622E",
"p  c #BA622E",
"a  c #AD6632",
"s  c #AF6834",
"d  c #B66531",
"f  c #BE6631",
"g  c #BD6632",
"h  c #BD6732",
"j  c #BF6531",
"k  c #BD6430",
"l  c #B26833",
"z  c #B56B35",
"x  c #BA6832",
"c  c #BA6833",
"v  c #BB6833",
"b  c #BC6933",
"n  c #BE6833",
"m  c #BE6933",
"M  c #BE6A34",
"N  c #BF6B35",
"B  c #B86D37",
"V  c #B86E38",
"C  c #B96E38",
"Z  c #BC723A",
"A  c #BD723B",
"S  c #C06631",
"D  c #C06632",
"F  c #C16732",
"G  c #C06833",
"H  c #C16933",
"J  c #C06B35",
"K  c #C16B35",
"L  c #C26A34",
"P  c #C26B34",
"I  c #C56B35",
"U  c #C16C35",
"Y  c #C26C35",
"T  c #C26C36",
"R  c #C36D36",
"E  c #C56C36",
"W  c #C46D36",
"Q  c #C66C36",
"!  c #C66D36",
"~  c #C76D36",
"^  c #C46E36",
"/  c #C56E36",
"(  c #C56E37",
")  c #C66E37",
"_  c #C66F37",
"`  c #C76F37",
"'  c #C86F38",
"]  c #C77038",
"[  c #C6723A",
"{  c #C7733B",
"}  c #C0743C",
"|  c #C1753D",
" . c #C1763D",
".. c #C2773E",
"X. c #C87038",
"o. c #C97038",
"O. c #C97138",
"+. c #CA7139",
"@. c #CA733A",
"#. c #CB743B",
"$. c #CC743B",
"%. c #C8743C",
"&. c #C9763C",
"*. c #CB773E",
"=. c #CD763C",
"-. c #CE763D",
";. c #CE773D",
":. c #C3783F",
">. c #CC783E",
",. c #CD793F",
"<. c #CF783E",
"1. c #CF7B41",
"2. c #D07C41",
"3. c #D07D41",
"4. c #D17E42",
"5. c #D27F43",
"6. c #D37F44",
"7. c #D88648",
/* pixels */
"7 7 7 7 7 7 7 7 7 8 7 7 7 7 7 7 7 7 7 8 7 7 7 7 7 8 7 7 7 7 7 7 7 7 7 8 7 7 7 7 7 7 7 7 7 7 7 7 7 7 ",
"8 5 + 5 0 0 0 0 8 8 8 8 8 8 8 8 8 8 8 8 8 8 8 8 8 8 8 8 8 8 8 8 8 8 8 8 8 8 8 8 8 8 8 8 0 7 8 % % 0 ",
"8 O   @ 8 8 8 8 8 8 8 8 8 8 8 8 8 8 8 8 8 8 8 8 8 8 8 8 8 8 8 8 8 8 8 8 8 8 8 8 8 8 8 8 0 0 5     5 ",
"8 5 @ 5 8 8 8 8 8 8 8 8 8 8 8 8 8 8 8 8 8 8 8 8 8 8 8 8 8 8 8 8 8 8 8 8 8 8 8 8 8 8 8 8 0 0 7 = % 7 ",
"8 8 8 8 5 < < 1 1 < 1 < 1 1 1 1 < 1 1 1 1 1 < 1 1 1 1 < 1 < 1 1 < 1 1 1 1 1 1 1 1 1 1 1 1 4 8 8 0 0 ",
"8 8 8 8 < 2 2 5 2 2 & & & & $ & $ & & & & & & $ & & & & & & & & & $ & & & & $ $ ; 2 2 2 2 < 8 8 0 0 ",
"8 0 8 8 < 7 8 8 8 8 e b P U T T t H T H T b p T U T U i j T I U U i U U P N b i 0 8 8 8 8 = 8 8 0 7 ",
"0 7 0 0 < 7 8 8 8 8 8 a +.o.o.o.S o.o.o.o.I j o.o.o.o.j I o.+.+.+.p o.o.o.o.{ e 8 8 8 8 8 < 8 8 0 0 ",
"0 0 8 8 < 7 8 8 8 8 8 8 l +.+.o.p o.o.o.+.I j o.o.o.o.S I o.o.o.o.p o.o.o.@.e 8 8 8 8 8 7 < 8 8 7 8 ",
"7 0 8 8 1 , 8 8 8 8 8 8 8 B $.o.S o.o.o.+.I j o.o.o.o.S I o.o.o.o.H o.o.&.y 8 8 8 8 8 8 6 = 8 8 0 0 ",
"8 8 8 8 < * d 0 8 8 8 8 8 8 B $.S o.o.o.o.I S o.o.o.o.S I o.o.o.o.p [ >.y 8 8 8 8 8 8 w , = 8 8 8 8 ",
"8 8 8 8 ; * T b 0 8 8 8 8 8 8 C H o.o.+.+.I j o.o.o.o.j I o.o.o.o.p <.u 8 8 8 8 8 8 r U = = 8 8 8 8 ",
"8 8 8 8 < * M ' c 0 8 8 8 8 8 0 C ;.o.o.o.I S o.o.o.o.S I o.o.o.I { y 8 8 8 8 8 8 e [ I , = 8 8 8 8 ",
"8 8 8 8 < * T +.+.c 8 8 8 8 8 8 0 Z ;.o.o.o.j o.o.o.o.S I o.o.o.7.y 8 8 8 8 8 8 e [ +.I , = 8 8 8 8 ",
"8 8 8 8 < * ( ' o.o.i 8 8 8 8 8 8 0 Z ;.o.I p o.o.o.o.S I o.o.4.u 8 8 8 8 8 8 e / o.[ I , = 8 8 8 8 ",
"8 8 8 8 < * T +.o.o.H d 8 8 8 8 8 8 0 } ;.o.S o.o.o.o.H I +.,.a 8 8 8 8 8 8 r d o.o.o./ , = 8 8 8 8 ",
"8 8 8 8 < * T o.+.+.H I d 0 8 8 8 8 8 0 ..$.S +.o.o.o.S I 1.s 8 8 8 8 8 8 0 T S ' ' +.I , = 8 8 8 8 ",
"8 8 8 8 < * M o.' +.S I +.c w 8 8 8 8 8 8 ..I +.o.o.+.S <.a 8 8 8 8 8 8 e ( ' S ' +.+.I , = 8 8 8 8 ",
"8 8 8 8 < : M o.+.o.H I +.+.d 8 8 8 8 8 8 0 ..<.o.o.o.1.s 8 8 8 8 8 0 w ( +.I G o.o.+.I , = 8 8 8 8 ",
"8 8 8 8 < * T o.o.o.S I o.o.+.d 0 8 8 8 8 8 0 ..<.o.4.s 8 8 8 8 8 8 r I +.+.I S o.o.+./ : = 8 8 8 8 ",
"8 8 8 8 < : U o.o.o.S I o.o.o.o.t 8 8 8 8 8 8 0 :.7.a 8 8 8 8 8 8 e I o.+.' Q S o.o.o./ > = 8 8 8 8 ",
"8 8 8 8 < * M +.o.o.S o.o.o.o.o.j d 0 8 8 8 8 8 0 y 0 8 8 8 8 8 e t o.o.' ' Q S o.o.o./ , = 8 8 8 8 ",
"8 8 8 8 < * T +.' ' S I o.o.o.o.j ' d 0 8 8 8 8 8 8 8 8 8 8 8 e H S +.+.+.' Q S o.o.o./ , = 8 8 8 8 ",
"8 8 8 8 < * T ' +.' S o.o.o.o.o.j ' ' d 0 8 8 8 8 8 8 8 8 0 e U o.S +.+.' +.o.S o.o.o./ , = 8 8 8 8 ",
"8 8 8 8 1 * N o.o.o.S I ' ' o.o.p o.o.o.d 8 8 8 8 8 8 8 8 0 I +.' S o.o.o.o.Q S o.o.+./ : = 8 8 8 8 ",
"8 8 8 8 ; : N o.o.+.S o.o.+.o.o.p o.o.o.P 9 8 8 8 8 8 8 8 r [ +.+.p o.o.o.o.Q S o.[ +./ : = 8 8 8 8 ",
"8 8 8 8 ; : U o.+.' S I o.o.o.o.S o.O.N q 8 8 8 8 8 8 8 8 8 r I ' S o.o.o.o.o.S o.o.+.I , = 8 8 8 8 ",
"8 8 8 8 < * N o.' +.H o.o.o.o.o.S o.U q 8 8 8 8 8 8 8 8 8 8 8 u I S o.o.o.o.Q S o.o.+.I , = 8 0 8 8 ",
"8 8 8 8 < * N o.o.o.S I o.o.o.o.p U 0 0 8 8 8 8 8 7 8 8 8 8 8 8 r p +.o.o.o.o.S o.o.o.I , = 0 0 8 8 ",
"8 8 8 8 < : N o.o.o.S I o.o.o.+.p w 8 8 8 8 8 8 5 3 7 8 8 8 8 8 8 e o.o.o.o.I S o.o.+./ : = 0 7 8 8 ",
"8 8 8 8 ; : U o.o.o.H I o.o.+.U e 8 8 8 8 8 8 5 y / 6 7 8 8 8 8 8 8 r o.o.o.I S o.o.o./ , = 8 8 8 8 ",
"8 8 8 8 ; * N o.o.o.H I o.o.N 0 8 8 8 8 8 8 5 r o.o.^ 7 7 8 8 8 8 8 8 r o.o.o.b o.o.o./ , = 8 8 8 8 ",
"8 8 8 8 1 * N o.o.o.S I +.U w 0 8 8 8 8 8 3 e o.o.o.o.p 6 7 8 8 8 8 8 8 r / ~ S o.o.o./ > = 8 8 8 8 ",
"8 8 8 8 ; * N o.o.o.H I T 0 7 0 8 8 8 8 5 u p o.o.o.o.F S 7 7 8 8 8 8 8 8 u / S o.o.o./ > = 8 8 8 8 ",
"8 8 8 8 < : U o.o.o.H b 0 8 0 0 8 8 8 6 u / S o.o.o.o.F I / 7 7 8 8 8 8 8 8 u f o.o.o./ > = 8 8 8 8 ",
"8 8 8 8 < * U o.o.o.j 9 0 8 8 0 8 8 6 r / / S o.o.o.o.F I o./ 7 7 8 8 8 8 8 8 u o.o.o./ > = 8 8 8 8 ",
"8 8 8 8 1 * U o.+.U q 8 8 8 8 8 8 7 r o.+.I j o.o.o.o.S I o.o.~ 7 7 8 8 8 8 8 8 u ( +.I > = 7 8 8 8 ",
"8 8 8 8 ; : U o.U e 8 8 8 8 8 8 7 u I o.+.I j o.o.o.o.S I o.o.o./ 7 7 8 8 8 8 8 0 r +.I > = 8 8 8 8 ",
"8 8 8 8 ; : N U q 8 8 8 8 8 8 7 w +.o.o.+.I j +.o.o.o.S I o.o.o.o.p 9 7 8 8 8 8 0 8 r o., = 8 8 8 8 ",
"8 8 8 8 1 * c 9 8 8 8 8 8 7 7 u p o.o.o.+./ j o.o.o.o.S I o.o.o.o.p / w 8 8 8 8 8 8 0 r > = 8 8 8 8 ",
"8 8 8 8 < * w 8 8 8 8 8 8 7 i o.j +.o.o.o.I j +.o.o.o.S I o.o.[ o.S +./ 9 8 8 8 8 8 8 8 4 = 8 8 8 8 ",
"8 8 8 8 < 7 8 8 8 8 8 8 7 l o.o.j / o.o.+.I S +.o.o.o.S I o.o.+.o.p o.o./ e 7 8 8 8 8 8 8 ; 8 8 8 8 ",
"8 8 8 8 < 8 8 8 8 8 8 8 c o.o.o.j +.o.@.+.I S +.o.o.+.j I o.+.+.o.S o.o.o.o.r 8 8 8 8 8 8 ; 8 8 8 8 ",
"8 8 8 8 < 7 8 8 8 8 8 i / U ^ ^ p I U ^ U U p I U I I j b I U ^ I p / U ^ I P 8 8 8 8 8 8 ; 8 8 0 0 ",
"8 8 8 8 < 7 8 8 8 7 * : > > > > * > > > : : * > > > > * : : : , > * > > > > : : , 8 8 8 8 ; 8 8 0 7 ",
"8 8 8 8 4 1 1 1 1 > = ; = = > = = = = = = = = = ; = > = = = = = = = = = = ; = = ; 1 1 1 1 2 8 8 8 8 ",
"0 7 2 7 8 8 8 8 8 8 8 8 8 8 8 8 8 8 8 8 8 8 8 8 8 8 8 8 8 8 8 8 8 8 8 8 8 8 8 8 8 8 8 8 8 0 8 5 5 0 ",
"8 @   % 8 8 8 8 8 8 8 8 8 8 8 8 8 8 8 8 8 8 8 8 8 8 8 0 8 8 8 8 8 8 8 8 8 8 8 8 8 8 8 8 8 0 5 . o 7 ",
"8 - X - 0 8 8 8 8 0 8 8 8 8 8 8 8 8 8 8 8 8 8 8 8 8 8 8 8 8 8 8 8 8 8 8 8 8 8 8 8 8 8 8 8 8 7 O o 7 ",
"8 0 7 8 8 8 8 8 8 8 8 8 8 8 8 8 8 8 8 8 8 8 8 8 8 8 8 8 8 8 8 8 8 8 8 8 8 8 8 8 8 8 8 8 8 8 8 8 7 7 "
};
